<svg xmlns="http://www.w3.org/2000/svg" width="133" height="133" viewBox="0 0 133 133">
  <g id="Grupo_117547" data-name="Grupo 117547" transform="translate(8222.834 -34.002)">
    <g id="Elipse_17548" data-name="Elipse 17548" transform="translate(-8222.834 34.002)" fill="#fff" stroke="#6677d6" stroke-width="4">
      <circle cx="66.5" cy="66.5" r="66.5" stroke="none"/>
      <circle cx="66.5" cy="66.5" r="64.5" fill="none"/>
    </g>
    <g id="plan" transform="translate(-8200.781 63.709)">
      <g id="Grupo_117100" data-name="Grupo 117100" transform="translate(0 0)">
        <g id="Grupo_117099" data-name="Grupo 117099" transform="translate(1.304 1.305)">
          <path id="Trazado_178696" data-name="Trazado 178696" d="M2.253,47.032H85.681A3.545,3.545,0,0,1,88.546,49.9V95.22a3.551,3.551,0,0,1-2.864,2.864H10.546a8.3,8.3,0,0,1-8.293-8.3V47.032Z" transform="translate(-2.253 -30.441)" fill="#ecf4ff" fill-rule="evenodd"/>
          <path id="Trazado_178697" data-name="Trazado 178697" d="M10.546,18.365a8.291,8.291,0,0,0-8.293,8.293V77.71a8.291,8.291,0,0,1,8.293-8.293,7.748,7.748,0,0,1,4.115,1.088.576.576,0,0,0,.886-.541V21.1a2.017,2.017,0,0,0-1.009-1.713,8.206,8.206,0,0,0-3.991-1.019Z" transform="translate(-2.253 -18.365)" fill="#a3ade6" fill-rule="evenodd"/>
          <path id="Trazado_178698" data-name="Trazado 178698" d="M38.465,58.512H50.858a1.271,1.271,0,0,1,1.265,1.265V72.165a1.268,1.268,0,0,1-1.265,1.265H38.465a1.263,1.263,0,0,1-1.26-1.265V59.777a1.267,1.267,0,0,1,1.26-1.265Z" transform="translate(-16.977 -35.277)" fill="#a3ade6" fill-rule="evenodd"/>
          <path id="Trazado_178699" data-name="Trazado 178699" d="M131.239,33.517l-5.813-1.767-5.315,1.767V75l5.6,1.457L131.239,75Z" transform="translate(-51.901 -24.004)" fill="#ff6978" fill-rule="evenodd"/>
          <path id="Trazado_178700" data-name="Trazado 178700" d="M126.377,116.047l2.082-4.095,2.781-5.478H120.111l2.781,5.478,2.082,4.095A.764.764,0,0,0,126.377,116.047Z" transform="translate(-51.901 -55.482)" fill="#ffcbbe" fill-rule="evenodd"/>
          <path id="Trazado_178701" data-name="Trazado 178701" d="M131.239,27.879V21.766a3.411,3.411,0,0,0-3.4-3.4h-4.321a3.412,3.412,0,0,0-3.406,3.4v6.113Z" transform="translate(-51.901 -18.365)" fill="#ff8793" fill-rule="evenodd"/>
          <path id="Trazado_178702" data-name="Trazado 178702" d="M36.845,119.443H45.33l1.393-4.606-1.393-3.583H36.845a2.639,2.639,0,0,0-2.131,2.136v3.923a2.639,2.639,0,0,0,2.131,2.131Z" transform="translate(-15.927 -57.495)" fill="#fbd894" fill-rule="evenodd"/>
          <path id="Trazado_178703" data-name="Trazado 178703" d="M53.057,113.1H63.678l1.452-5.237L63.678,99.8V98.321a2.639,2.639,0,0,0-2.136-2.136H55.193a2.639,2.639,0,0,0-2.136,2.136V113.1Z" transform="translate(-23.654 -51.147)" fill="#ffef0f" fill-rule="evenodd"/>
          <path id="Trazado_178704" data-name="Trazado 178704" d="M71.408,115.729H82.024L83.1,112.2l-1.073-4.661v-2.973a2.639,2.639,0,0,0-2.136-2.131h-8.48Z" transform="translate(-31.385 -53.78)" fill="#fbd894" fill-rule="evenodd"/>
          <path id="Trazado_178705" data-name="Trazado 178705" d="M89.752,119.443h8.485a2.639,2.639,0,0,0,2.131-2.131V113.39a2.639,2.639,0,0,0-2.131-2.136H89.752Z" transform="translate(-39.112 -57.495)" fill="#ffef0f" fill-rule="evenodd"/>
          <path id="Trazado_178706" data-name="Trazado 178706" d="M81.988,93.871H6.853a8.256,8.256,0,0,1-3.366-.714,8.289,8.289,0,0,0,7.579,4.926H86.2a3.551,3.551,0,0,0,2.864-2.864V49.9A3.545,3.545,0,0,0,86.2,47.032H84.852V91.007A3.551,3.551,0,0,1,81.988,93.871Z" transform="translate(-2.773 -30.441)" fill="#a3ade6" fill-rule="evenodd"/>
          <path id="Trazado_178707" data-name="Trazado 178707" d="M15.841,34.956V69.447A7.506,7.506,0,0,1,19.168,70.5a.576.576,0,0,0,.886-.541V21.1a2.017,2.017,0,0,0-1.009-1.713,8.207,8.207,0,0,0-3.991-1.019,8.45,8.45,0,0,0-2.1.266,8.442,8.442,0,0,1,1.88.753A2.018,2.018,0,0,1,15.841,21.1V34.956Z" transform="translate(-6.76 -18.365)" fill="#6677d6" fill-rule="evenodd"/>
          <path id="Trazado_178708" data-name="Trazado 178708" d="M132.059,34.8v41.48h4.213V34.8Z" transform="translate(-56.934 -25.29)" fill="#eb616f" fill-rule="evenodd"/>
          <path id="Trazado_178709" data-name="Trazado 178709" d="M129.58,21.766v6.113h4.213V21.766a3.411,3.411,0,0,0-3.4-3.4h-4.218A3.412,3.412,0,0,1,129.58,21.766Z" transform="translate(-54.455 -18.365)" fill="#f77b87" fill-rule="evenodd"/>
        </g>
        <path id="Trazado_178710" data-name="Trazado 178710" d="M79.343,25.63V20.817a2.117,2.117,0,0,0-2.1-2.1H72.92a2.109,2.109,0,0,0-2.1,2.1V25.63h8.524Zm-54.434,23.4a1.3,1.3,0,0,1,1.841-1.841l1.186,1.186,3.293-3.3a1.3,1.3,0,1,1,1.841,1.846l-4.213,4.213a1.3,1.3,0,0,1-1.841,0ZM73.776,34.006a1.3,1.3,0,1,1,2.6,0v27.33a1.3,1.3,0,1,1-2.6,0ZM53.248,78.065H61.26V72.479H53.248Zm9.312,2.6H20.09a1.307,1.307,0,0,1-1.3-1.3v-8.19a1.3,1.3,0,0,1,1.3-1.3h9.317V62.453a1.3,1.3,0,0,1,1.3-1.3H41.327a1.3,1.3,0,0,1,1.3,1.3v2.313h9.317a1.306,1.306,0,0,1,1.3,1.3v3.8h9.312a1.3,1.3,0,0,1,1.3,1.3v8.19a1.306,1.306,0,0,1-1.3,1.3Zm-19.933-2.6h8.013V67.375H42.627Zm-10.616,0h8.012V63.758H32.011Zm-10.621,0h8.018V72.479H21.39ZM15.9,32.7H68.21V20.817a4.722,4.722,0,0,1,4.71-4.705h4.321a4.722,4.722,0,0,1,4.705,4.705V32.7H87.6a1.3,1.3,0,0,1,1.3,1.3V85.059a1.3,1.3,0,0,1-1.3,1.3H51.545a1.3,1.3,0,0,1,0-2.6H86.292V35.306H81.946v9.415a1.3,1.3,0,1,1-2.6,0V28.234H70.818V67.11h8.524V50.622a1.3,1.3,0,1,1,2.6,0V68.409a1.382,1.382,0,0,1-.222.738l-5.483,10.8a1.324,1.324,0,0,1-.581.581,1.3,1.3,0,0,1-1.742-.576l-5.5-10.828a1.385,1.385,0,0,1-.207-.714v-33.1H15.9v9.853a1.3,1.3,0,1,1-2.6,0V19.768a6.907,6.907,0,0,0-3.7-1.053A6.99,6.99,0,0,0,2.6,25.709V70.191c.069-.074.138-.148.207-.217A9.571,9.571,0,0,1,9.6,67.164a9.718,9.718,0,0,1,3.051.5c.217.074.433.157.645.246V51.06a1.3,1.3,0,1,1,2.6,0V70.141a1.3,1.3,0,0,1-2.087,1.034,6.819,6.819,0,0,0-1.988-1.048A7,7,0,1,0,9.6,83.755H45.649a1.3,1.3,0,0,1,0,2.6H9.6a9.595,9.595,0,0,1-9.6-9.6V25.709A9.6,9.6,0,0,1,15.316,18a1.312,1.312,0,0,1,.581,1.088V32.7ZM78.526,69.713h-6.9l3.45,6.787Zm-17.4-29.121a1.3,1.3,0,0,1,0,2.6H43.5a1.3,1.3,0,0,1,0-2.6ZM53.794,53.024a1.3,1.3,0,1,1,0,2.6H43.5a1.3,1.3,0,0,1,0-2.6Zm7.328-6.216a1.3,1.3,0,0,1,0,2.6H43.5a1.3,1.3,0,0,1,0-2.6Zm-39.59-7.461H36.45a1.3,1.3,0,0,1,1.3,1.3V55.568a1.3,1.3,0,0,1-1.3,1.3H21.532a1.3,1.3,0,0,1-1.3-1.3V40.651a1.3,1.3,0,0,1,1.3-1.3Zm13.614,2.609H22.832V54.269H35.146Z" transform="translate(0 -16.111)"/>
      </g>
    </g>
  </g>
</svg>
