<svg xmlns="http://www.w3.org/2000/svg" width="133" height="133" viewBox="0 0 133 133">
  <g id="Grupo_117553" data-name="Grupo 117553" transform="translate(8023.333 -231.773)">
    <g id="Grupo_117310" data-name="Grupo 117310" transform="translate(-2990.217 -4044.195)">
      <g id="Elipse_17554" data-name="Elipse 17554" transform="translate(-5033.117 4275.969)" fill="#fff" stroke="#6677d6" stroke-width="4">
        <circle cx="66.5" cy="66.5" r="66.5" stroke="none"/>
        <circle cx="66.5" cy="66.5" r="64.5" fill="none"/>
      </g>
      <g id="esfuerzo" transform="translate(-5006.474 4292.382)">
        <g id="Grupo_117091" data-name="Grupo 117091" transform="translate(0 0)">
          <g id="Grupo_117089" data-name="Grupo 117089" transform="translate(12.05 1.464)">
            <path id="Trazado_178634" data-name="Trazado 178634" d="M71.491,104.983l-3.251,4.25-2.857,3.734-12.9,16.861-6.727-4.1,10.77-19.314,1.831-3.281,3.105-5.568v0Z" transform="translate(-37.829 -35.395)" fill="#2e344c"/>
            <g id="Grupo_117087" data-name="Grupo 117087">
              <path id="Trazado_178635" data-name="Trazado 178635" d="M49.408,68.793C59.148,58.847,71,42.722,75.5,32.948c6.166-13.389-5.021-30.7-5.021-30.7S50.048,5,43.881,18.388c-4.5,9.774-9.053,29.259-10.28,43.125Z" transform="translate(-33.602 -2.245)" fill="#ebeef2"/>
              <path id="Trazado_178636" data-name="Trazado 178636" d="M70.561,2.245s-.619.084-1.672.292c1.944,4.187,7.089,17.186,2,28.247-4.5,9.774-15.807,26.149-24.914,36.386L33.847,61.587l15.647,7.206c9.74-9.946,21.587-26.071,26.088-35.845C81.748,19.558,70.561,2.245,70.561,2.245Z" transform="translate(-33.687 -2.245)" fill="#d1d6de"/>
              <path id="Trazado_178637" data-name="Trazado 178637" d="M58.5,10.856,86.006,23.523c-.166-10.9-6.87-21.278-6.87-21.278S66.891,3.9,58.5,10.856Z" transform="translate(-42.262 -2.245)" fill="#6677d6"/>
              <path id="Trazado_178638" data-name="Trazado 178638" d="M89.218,2.25l-.022,0-.014,0-.034.005-.021,0-.037.006-.033.005-.043.006-.043.007-.049.008-.047.007-.058.009-.058.01-.062.01-.277.048-.035.006-.128.023-.04.007-.14.026-.035.006-.16.03-.028.005-.194.038h0l-.082.016c1.413,3.043,4.515,10.739,4.15,18.964l4.392,2.023h0c-.138-9.019-4.752-17.681-6.34-20.4l-.008-.014c-.087-.149-.165-.28-.232-.392l0,0-.051-.084-.024-.04-.04-.065L89.4,2.483l-.032-.052-.042-.067-.02-.032-.016-.026-.014-.023-.013-.02-.005-.008-.006-.01-.023,0Z" transform="translate(-52.374 -2.245)" fill="#4e2e8e"/>
              <ellipse id="Elipse_16038" data-name="Elipse 16038" cx="5.669" cy="5.669" rx="5.669" ry="5.669" transform="translate(18.76 21.354)" fill="#8088a0"/>
              <path id="Trazado_178639" data-name="Trazado 178639" d="M39.775,99.47l4.463-15.018a3.082,3.082,0,0,1,4.088-1.51h0a3.082,3.082,0,0,1,1.51,4.088l-8.512,13.154A.862.862,0,0,1,39.775,99.47Z" transform="translate(-35.735 -30.213)" fill="#ed5575"/>
            </g>
            <g id="Grupo_117088" data-name="Grupo 117088" transform="translate(43.749 18.228)">
              <path id="Trazado_178640" data-name="Trazado 178640" d="M111.8,37.133h0a7.517,7.517,0,0,0-9.481,4.81l-1.266,3.875a7.517,7.517,0,0,0,4.81,9.481h0a7.518,7.518,0,0,0,9.481-4.81l1.267-3.875A7.517,7.517,0,0,0,111.8,37.133Z" transform="translate(-100.681 -32.477)" fill="#f9c295"/>
              <path id="Trazado_178641" data-name="Trazado 178641" d="M117.846,32.309l-5.559-1.817a6.014,6.014,0,0,0-7.585,3.848L102.527,41l4.436,1.45.077-.237a3.272,3.272,0,0,1,4.126-2.094l2.69.879a7.082,7.082,0,0,0,8.932-4.531l1.713-5.242-5.69,1.145A1.9,1.9,0,0,1,117.846,32.309Z" transform="translate(-101.323 -30.193)" fill="#444966"/>
            </g>
            <path id="Trazado_178642" data-name="Trazado 178642" d="M95.352,73a6.22,6.22,0,0,1-1.226,3.708L84.178,90.148,73.451,83.663,84.1,69.285A6.24,6.24,0,0,1,95.352,73Z" transform="translate(-47.461 -24.683)" fill="#c6412a"/>
            <path id="Trazado_178643" data-name="Trazado 178643" d="M97.366,68.161a6.234,6.234,0,0,0-1.695-.89,6.236,6.236,0,0,1,.78,8.294L86.51,88.991l2.209,1.336L98.669,76.89a6.239,6.239,0,0,0-1.3-8.729Z" transform="translate(-52.003 -24.861)" fill="#c6412a"/>
            <path id="Trazado_178644" data-name="Trazado 178644" d="M81.54,76.413,58.017,73.786a3.049,3.049,0,0,1-2.74-3.33h0a3.049,3.049,0,0,1,3.33-2.74l23.523,2.627a3.049,3.049,0,0,1,2.74,3.33h0A3.049,3.049,0,0,1,81.54,76.413Z" transform="translate(-41.136 -25.011)" fill="#c6412a"/>
            <path id="Trazado_178645" data-name="Trazado 178645" d="M92.56,105.377,82.284,99.164,71.557,92.679,69.2,95.861v0l-.478.857a5.64,5.64,0,0,0,1.962,7.546l5.294,3.27.073.045,9.1,5.616-4.335,15.529,7.565,2.215L94.3,109.856A3.942,3.942,0,0,0,92.56,105.377Z" transform="translate(-45.568 -33.698)" fill="#656d88"/>
            <path id="Trazado_178646" data-name="Trazado 178646" d="M61.5,68.04l-2.893-.323a3.049,3.049,0,0,0-3.33,2.74h0a3.049,3.049,0,0,0,2.74,3.33l2.66.3Z" transform="translate(-41.136 -25.011)" fill="#f9c295"/>
          </g>
          <g id="Grupo_117090" data-name="Grupo 117090">
            <path id="Trazado_178647" data-name="Trazado 178647" d="M64.265,46.354a7.136,7.136,0,1,0-3.709-4.009A7.095,7.095,0,0,0,64.265,46.354Zm-.831-8.24a4.2,4.2,0,1,1-.125,3.213A4.175,4.175,0,0,1,63.434,38.114Z" transform="translate(-30.771 -11.384)"/>
            <path id="Trazado_178648" data-name="Trazado 178648" d="M43,78.839l5.01,2.307a1.468,1.468,0,0,0,1.228-2.666l-4.627-2.131,3.539-5.47a1.478,1.478,0,0,0,.1-.183,4.549,4.549,0,0,0-8.264-3.806,1.484,1.484,0,0,0-.074.2L38.059,73.33l-3.683-1.7a173.847,173.847,0,0,1,7.741-35.755,1.467,1.467,0,0,0-2.773-.962A176.248,176.248,0,0,0,31.357,72.4a1.468,1.468,0,0,0,.848,1.462l5.01,2.307L35.452,82.1h0a2.313,2.313,0,0,0,1.258,2.779,2.346,2.346,0,0,0,.984.218,2.312,2.312,0,0,0,1.946-1.068Zm-.308-10.8a1.614,1.614,0,0,1,2.928,1.348L39.466,78.9Z" transform="translate(-20.769 -11.801)"/>
            <path id="Trazado_178649" data-name="Trazado 178649" d="M105.069,19.746a1.468,1.468,0,0,0-1.386-.464l-5.69,1.145a.431.431,0,0,1-.219-.013L92.215,18.6a7.491,7.491,0,0,0-9.436,4.788l-.614,1.879q.091-1.153.083-2.352a1.5,1.5,0,0,0,.01-.19c-.171-11.192-6.822-21.614-7.1-22.052A1.465,1.465,0,0,0,73.791.006c-.023,0-.045,0-.068,0l-.046.006c-.959.134-12.885,1.926-21.329,8.929a1.473,1.473,0,0,0-.139.131A23.013,23.013,0,0,0,45.989,17l-.241.53a1.467,1.467,0,1,0,2.676,1.206l.234-.515a19.645,19.645,0,0,1,4.874-6.415L79.318,23.68a19.675,19.675,0,0,1-1.711,7.873,95.185,95.185,0,0,1-7.591,12.871L54.68,42.711l-.021,0a4.52,4.52,0,0,0-4.933,4.058c0,.029,0,.057-.006.086,0,.047-.008.095-.01.142,0,.02,0,.04,0,.06,0,.057,0,.114,0,.171,0,.006,0,.012,0,.018a4.481,4.481,0,0,0,1.028,2.83c.019.023.041.044.061.067q.086.1.178.2c.045.047.092.093.139.138s.113.1.171.155.113.095.171.14.112.085.169.126.124.085.187.126.13.08.2.118.114.062.171.092c.084.043.168.083.255.121.041.018.082.034.123.05.106.042.214.082.324.116l.067.019c.123.036.248.068.375.094l.029.005c.138.027.279.049.422.063l12.849,1.435-4.762,6.431-.006.007L59.5,62.754l-.012.02a1.473,1.473,0,0,0-.105.169h0l-.008.012-.455.816-.012.023L43.689,91.078a1.467,1.467,0,0,0,.517,1.967l6.727,4.1a1.467,1.467,0,0,0,1.93-.361L65.139,80.747a1.467,1.467,0,0,0-2.331-1.784L51.335,93.957,46.94,91.274,57.024,73.193l1.653-2.963a7.088,7.088,0,0,0,2.714,3.05l13.524,8.351L70.877,96.1a1.467,1.467,0,0,0,1,1.8l7.565,2.215A1.468,1.468,0,0,0,81.267,99.1l5.923-21.07A5.412,5.412,0,0,0,84.8,71.886l-8.9-5.378L84.89,54.366A7.658,7.658,0,0,0,86.4,49.784,7.707,7.707,0,0,0,74.093,43.6a99.49,99.49,0,0,0,5.266-8.941,8.984,8.984,0,0,0,17.5,3.5l1.268-3.876h0a8.957,8.957,0,0,0,.44-2.533,8.589,8.589,0,0,0,5.093-5.333l1.712-5.242A1.466,1.466,0,0,0,105.069,19.746ZM56.129,9.77c6.423-4.442,14.362-6.2,17.048-6.694a52.462,52.462,0,0,1,3.888,8.39l.017.048q.208.582.406,1.187l.047.146q.072.222.142.446l.054.175q.087.283.171.57c.017.059.034.118.05.177q.058.2.114.4c.025.092.05.184.075.276s.056.21.083.316.052.2.078.3.054.22.081.33q.066.272.128.546.028.121.054.242.041.186.08.373.022.107.044.214.134.66.243,1.33c.009.058.019.116.028.174q.033.211.063.422c.008.056.016.112.023.168q.074.534.129,1.072Zm-.8,39.149-1.237-.138-.021,0a1.566,1.566,0,0,1-.159-.024l-.018,0a1.585,1.585,0,0,1-1.24-1.363c0-.006,0-.012,0-.018,0-.039-.005-.078-.006-.117,0-.014,0-.028,0-.042,0-.038,0-.076.005-.113,0-.015,0-.031,0-.046s0-.02,0-.03c0-.042.01-.083.018-.124,0-.022.011-.044.016-.066s.013-.056.021-.083.017-.049.025-.073.016-.047.025-.069.022-.05.034-.075.018-.04.028-.059.028-.051.043-.076.02-.034.031-.051.034-.05.052-.074l.033-.044c.02-.025.04-.049.061-.072l.034-.037c.022-.023.045-.046.069-.068l.035-.032q.037-.033.076-.063l.037-.028c.027-.02.054-.039.083-.057l.039-.024c.029-.017.058-.034.088-.049l.041-.02c.03-.014.06-.028.091-.04l.046-.017c.031-.011.061-.022.093-.031l.051-.014c.031-.008.061-.016.092-.022l.059-.01c.029,0,.059-.01.088-.013l.073,0c.026,0,.052,0,.078,0,.05,0,.1,0,.152.006l.514.057.874.1ZM83.278,74.4h0a2.479,2.479,0,0,1,1.09,2.826L78.843,96.882l-4.75-1.391,3.945-14.133a1.467,1.467,0,0,0-.642-1.643L62.933,70.784a4.165,4.165,0,0,1-1.457-5.572l.445-.8,1.5-2.022,5.006,3.026ZM81.535,45.943a4.771,4.771,0,0,1,1,6.678L73.378,64.983,70.091,63l-4.917-2.973L70,53.51l7.292.814.021,0q.224.022.445.022a4.517,4.517,0,0,0,.44-9.011l-.937-.1A4.77,4.77,0,0,1,81.535,45.943Zm-3.657,2.312.021,0a1.582,1.582,0,0,1-.3,3.149L58.244,49.245l.427-3.135,14.635,1.635.016,0ZM95.333,33.372l-1.268,3.877a6.05,6.05,0,0,1-11.5-3.759l.374-1.145,3.04.994a1.483,1.483,0,0,0,.2.05l.044.007a1.458,1.458,0,0,0,.2.016h.024a1.482,1.482,0,0,0,.191-.015l.03,0a1.448,1.448,0,0,0,.2-.047l.034-.012a1.484,1.484,0,0,0,.189-.077h0a1.468,1.468,0,0,0,.175-.105l.032-.023A1.471,1.471,0,0,0,87.452,33l.02-.021a1.44,1.44,0,0,0,.122-.14l.021-.026a1.439,1.439,0,0,0,.108-.172l.02-.04a1.481,1.481,0,0,0,.083-.2l.08-.242a1.8,1.8,0,0,1,.066-.171l.013-.025c.022-.047.044-.093.069-.137l0-.005a1.81,1.81,0,0,1,1.576-.9h.015c.047,0,.093,0,.14.009l.039,0c.041,0,.082.013.122.02l.056.01a1.777,1.777,0,0,1,.175.048l2.691.88c.165.054.332.1.5.145l.084.022q.249.062.5.11l.062.011a8.469,8.469,0,0,0,1.059.123l.06,0c.147.007.293.011.44.01A6.075,6.075,0,0,1,95.333,33.372Zm5.533-7.865A5.615,5.615,0,0,1,93.785,29.1l-2.691-.881c-.121-.039-.242-.072-.364-.1l-.045-.011q-.181-.042-.364-.069l-.029,0a4.707,4.707,0,0,0-2.816.465c-.048.024-.094.051-.14.077l-.029.016a4.725,4.725,0,0,0-1.18.931l-.014.015q-.123.136-.236.28l-.01.012c-.078.1-.154.206-.224.314l-1.79-.585-.006,0,1.72-5.26A4.553,4.553,0,0,1,91.3,21.386L96.862,23.2a3.374,3.374,0,0,0,1.71.1l3.225-.649Z" transform="translate(-24.996 0)"/>
            <path id="Trazado_178650" data-name="Trazado 178650" d="M31.176,143.959H16.593a1.467,1.467,0,1,0,0,2.935H31.176a1.467,1.467,0,1,0,0-2.935Z" transform="translate(-15.126 -50.069)"/>
            <path id="Trazado_178651" data-name="Trazado 178651" d="M33.487,131.043H23.24a1.467,1.467,0,0,0,0,2.935H33.487a1.467,1.467,0,0,0,0-2.935Z" transform="translate(-17.438 -45.577)"/>
            <path id="Trazado_178652" data-name="Trazado 178652" d="M36.64,118.128H32.3a1.467,1.467,0,0,0,0,2.935H36.64a1.467,1.467,0,0,0,0-2.935Z" transform="translate(-20.59 -41.085)"/>
          </g>
        </g>
      </g>
    </g>
  </g>
</svg>
