<svg xmlns="http://www.w3.org/2000/svg" width="157" height="157" viewBox="0 0 157 157">
  <g id="Grupo_117515" data-name="Grupo 117515" transform="translate(2950.475 2652.481)">
    <g id="Grupo_117450" data-name="Grupo 117450" transform="translate(103.525 -1964.481)">
      <rect id="Rectángulo_42559" data-name="Rectángulo 42559" width="157" height="157" rx="78.5" transform="translate(-3054 -688)" fill="#fff"/>
      <g id="aseo-de-mascotas" transform="translate(-3028.14 -667.613)">
        <g id="Grupo_116378" data-name="Grupo 116378" transform="translate(0.087)">
          <g id="Grupo_116364" data-name="Grupo 116364" transform="translate(8.241 18.981)">
            <path id="Trazado_178168" data-name="Trazado 178168" d="M19.116,27.477a7.123,7.123,0,0,0-7.1,7.1v9.457H40.894c-1.788-3.1-2.811-10.345-2.811-12.886a12.925,12.925,0,0,1,.317-3.676H19.116Z" transform="translate(-12.017 -27.477)" fill="#fff56f" fill-rule="evenodd"/>
          </g>
          <g id="Grupo_116365" data-name="Grupo 116365" transform="translate(68.988 18.981)">
            <path id="Trazado_178169" data-name="Trazado 178169" d="M122.268,27.477h-19.82q.106.618.176,1.235a20.92,20.92,0,0,1-.035,5.181c-.365,2.794-1.27,7.775-2.617,10.116-.006.012-.012.018-.018.029h29.412V34.581a7.124,7.124,0,0,0-7.1-7.1Z" transform="translate(-99.955 -27.477)" fill="#fff56f" fill-rule="evenodd"/>
          </g>
          <g id="Grupo_116366" data-name="Grupo 116366" transform="translate(4.93 39.048)">
            <path id="Trazado_178170" data-name="Trazado 178170" d="M103.47,56.526H7.224v62.066a3.567,3.567,0,0,0,3.558,3.558h89.13a3.567,3.567,0,0,0,3.558-3.558Z" transform="translate(-7.224 -56.526)" fill="#f9f3f1" fill-rule="evenodd"/>
          </g>
          <g id="Grupo_116367" data-name="Grupo 116367" transform="translate(46.693 52.463)">
            <path id="Trazado_178171" data-name="Trazado 178171" d="M67.68,79.675v36.041a3.742,3.742,0,0,0,3.729,3.735h38.316a3.748,3.748,0,0,0,3.735-3.735V79.675a3.742,3.742,0,0,0-3.735-3.729H71.408a3.738,3.738,0,0,0-3.729,3.729Z" transform="translate(-67.68 -75.946)" fill="#a3ade6" fill-rule="evenodd"/>
          </g>
          <g id="Grupo_116368" data-name="Grupo 116368" transform="translate(13.634 62.544)">
            <path id="Trazado_178172" data-name="Trazado 178172" d="M42.1,90.539h-20.2a2.084,2.084,0,0,0-2.082,2.076v40.052H44.178V92.615A2.083,2.083,0,0,0,42.1,90.539Z" transform="translate(-19.824 -90.539)" fill="#dbdbdb" fill-rule="evenodd"/>
          </g>
          <g id="Grupo_116369" data-name="Grupo 116369" transform="translate(4.93 39.048)">
            <path id="Trazado_178173" data-name="Trazado 178173" d="M55.344,56.526H7.224v9.557H90.237c6.8,0,6.8,3.74,6.8,11.039v41.469a3.566,3.566,0,0,1-3.552,3.558h6.428a3.567,3.567,0,0,0,3.558-3.558V56.526H55.344Z" transform="translate(-7.224 -56.526)" fill="#a3ade6" fill-rule="evenodd"/>
          </g>
          <g id="Grupo_116370" data-name="Grupo 116370" transform="translate(25.403 18.981)">
            <path id="Trazado_178174" data-name="Trazado 178174" d="M37.178,27.477a13.154,13.154,0,0,0-.317,3.676,25.2,25.2,0,0,0,2.811,10.534l3.27,2.353,3.282-2.353A21.088,21.088,0,0,1,43.73,27.477Z" transform="translate(-36.86 -27.477)" fill="#ffef0f" fill-rule="evenodd"/>
          </g>
          <g id="Grupo_116371" data-name="Grupo 116371" transform="translate(1.554 1.554)">
            <path id="Trazado_178175" data-name="Trazado 178175" d="M35.548,33.886H4.972a2.646,2.646,0,0,0-2.635,2.635v5.293a2.647,2.647,0,0,0,2.635,2.641H102.7a2.647,2.647,0,0,0,2.635-2.641V36.521a2.646,2.646,0,0,0-2.635-2.635H72.124a21.1,21.1,0,1,0-36.575,0Z" transform="translate(-2.337 -2.25)" fill="#c6412a" fill-rule="evenodd"/>
          </g>
          <g id="Grupo_116372" data-name="Grupo 116372" transform="translate(90.143 33.19)">
            <path id="Trazado_178176" data-name="Trazado 178176" d="M133.213,50.681v5.293a2.643,2.643,0,0,1-2.635,2.641h11.774a2.647,2.647,0,0,0,2.635-2.641V50.681a2.646,2.646,0,0,0-2.635-2.635H130.579A2.642,2.642,0,0,1,133.213,50.681Z" transform="translate(-130.579 -48.046)" fill="#c6412a" fill-rule="evenodd"/>
          </g>
          <g id="Grupo_116373" data-name="Grupo 116373" transform="translate(71.341 18.981)">
            <path id="Trazado_178177" data-name="Trazado 178177" d="M106.177,31.152a21.024,21.024,0,0,1-2.817,10.534h6.552a21.021,21.021,0,0,0,2.811-10.534,21.636,21.636,0,0,0-.317-3.676h-6.552a21.037,21.037,0,0,1,.324,3.676Z" transform="translate(-103.36 -27.477)" fill="#ffef0f" fill-rule="evenodd"/>
          </g>
          <g id="Grupo_116374" data-name="Grupo 116374" transform="translate(46.693 52.463)">
            <path id="Trazado_178178" data-name="Trazado 178178" d="M109.724,75.947H71.408a3.737,3.737,0,0,0-3.729,3.729v2.205h35.74a3.737,3.737,0,0,1,3.729,3.729v33.841h2.576a3.748,3.748,0,0,0,3.735-3.735V79.675A3.743,3.743,0,0,0,109.724,75.947Z" transform="translate(-67.68 -75.947)" fill="#6677d6" fill-rule="evenodd"/>
          </g>
          <g id="Grupo_116375" data-name="Grupo 116375" transform="translate(13.634 62.544)">
            <path id="Trazado_178179" data-name="Trazado 178179" d="M42.1,90.539h-20.2a2.084,2.084,0,0,0-2.082,2.076V94.98h17.9A2.085,2.085,0,0,1,39.8,97.056v35.612h4.376V92.615A2.083,2.083,0,0,0,42.1,90.539Z" transform="translate(-19.824 -90.539)" fill="#dbdbdb" fill-rule="evenodd"/>
          </g>
          <g id="Grupo_116376" data-name="Grupo 116376" transform="translate(60.441 71.284)">
            <path id="Trazado_178180" data-name="Trazado 178180" d="M104,108.531l-4.276-3.958a4.438,4.438,0,0,0-3-1.382,3.583,3.583,0,0,0-.5.035,4.851,4.851,0,0,0-2.505,1.347l-4.276,3.958c-2.729,2.529-2.858,8.252,2.347,8.252,1.97,0,2.335-1.065,4.435-1.206.159-.012.324-.018.5-.018,2.547,0,2.817,1.223,4.934,1.223,5.2,0,5.069-5.722,2.341-8.252Z" transform="translate(-87.581 -103.191)" fill="#fff56f" fill-rule="evenodd"/>
          </g>
          <g id="Grupo_116377" data-name="Grupo 116377">
            <path id="Trazado_178181" data-name="Trazado 178181" d="M102,31.636h-1.963v-5.55a8.666,8.666,0,0,0-8.653-8.659h-16.2a22.662,22.662,0,0,0-44.1,0H15.427a8.666,8.666,0,0,0-8.653,8.659v5.55h-2.5A4.194,4.194,0,0,0,.087,35.825v5.293a4.2,4.2,0,0,0,3.376,4.114v55.881a5.118,5.118,0,0,0,5.112,5.113h89.13a5.118,5.118,0,0,0,5.112-5.113V45.233a4.2,4.2,0,0,0,3.376-4.114V35.825A4.194,4.194,0,0,0,102,31.636Zm-10.616-11.1a5.554,5.554,0,0,1,5.544,5.55v5.55H73.944A22.683,22.683,0,0,0,75.8,22.657c0-.715-.035-1.423-.1-2.121h15.69ZM9.883,26.086a5.554,5.554,0,0,1,5.544-5.55H30.581c-.065.7-.1,1.406-.1,2.122a22.682,22.682,0,0,0,1.855,8.979H9.883Zm26.639,77.032H15.276V64.62A.532.532,0,0,1,15.8,64.1H36a.529.529,0,0,1,.522.522Zm66.564-62A1.1,1.1,0,0,1,102,42.2H56.848a1.554,1.554,0,1,0,0,3.109h42.86v55.8a2.006,2.006,0,0,1-2,2H39.63V64.62A3.634,3.634,0,0,0,36,60.99H15.8a3.637,3.637,0,0,0-3.636,3.63v38.5H8.575a2.006,2.006,0,0,1-2-2v-55.8h43.09a1.554,1.554,0,0,0,0-3.109H4.276A1.1,1.1,0,0,1,3.2,41.118V35.825a1.1,1.1,0,0,1,1.081-1.081H34.853A1.554,1.554,0,0,0,36.2,32.413a19.55,19.55,0,1,1,33.883,0,1.554,1.554,0,0,0,1.346,2.331H102a1.1,1.1,0,0,1,1.081,1.081v5.293Z" transform="translate(-0.087)"/>
            <path id="Trazado_178182" data-name="Trazado 178182" d="M76.033,28.063a5.77,5.77,0,0,0-2.3,1.575l-.853-2.276,4.68-12.483a1.554,1.554,0,0,0-2.911-1.091l-3.429,9.147-3.429-9.147a1.554,1.554,0,1,0-2.911,1.091l4.68,12.483-.853,2.275a5.8,5.8,0,1,0,1.106,5.9v0l1.406-3.75,1.406,3.75h0v0a5.81,5.81,0,1,0,3.4-7.479Zm-10.539,7.9a2.67,2.67,0,0,1-2.063.067,2.7,2.7,0,1,1,2.063-.067Zm13.517.068A2.7,2.7,0,0,1,75.54,34.45h0a2.7,2.7,0,1,1,3.472,1.58Z" transform="translate(-18.17 -3.951)"/>
            <path id="Trazado_178183" data-name="Trazado 178183" d="M65.43,78.979V94.23a1.554,1.554,0,0,0,3.109,0V78.979A2.177,2.177,0,0,1,70.713,76.8h38.316a2.18,2.18,0,0,1,2.18,2.175V115.02a2.183,2.183,0,0,1-2.18,2.18H70.713a2.18,2.18,0,0,1-2.174-2.18v-13.61a1.554,1.554,0,0,0-3.109,0v13.61a5.292,5.292,0,0,0,5.283,5.289h38.316a5.3,5.3,0,0,0,5.289-5.289V78.979a5.292,5.292,0,0,0-5.289-5.283H70.713A5.289,5.289,0,0,0,65.43,78.979Z" transform="translate(-20.291 -22.787)"/>
            <path id="Trazado_178184" data-name="Trazado 178184" d="M42.754,115.21a1.554,1.554,0,0,0-1.554,1.554v4.929a1.554,1.554,0,1,0,3.109,0v-4.929A1.554,1.554,0,0,0,42.754,115.21Z" transform="translate(-12.799 -35.624)"/>
            <path id="Trazado_178185" data-name="Trazado 178185" d="M101.673,92V89.733a1.554,1.554,0,0,0-3.109,0V92a1.554,1.554,0,1,0,3.109,0Z" transform="translate(-30.537 -27.265)"/>
            <path id="Trazado_178186" data-name="Trazado 178186" d="M84.259,95.913a1.554,1.554,0,0,0-2.2,2.2l1.6,1.6a1.554,1.554,0,0,0,2.2-2.2Z" transform="translate(-25.293 -29.516)"/>
            <path id="Trazado_178187" data-name="Trazado 178187" d="M115.862,99.711l1.6-1.6a1.554,1.554,0,0,0-2.2-2.2l-1.6,1.6a1.554,1.554,0,1,0,2.2,2.2Z" transform="translate(-35.065 -29.516)"/>
            <path id="Trazado_178188" data-name="Trazado 178188" d="M87.693,106.7a7.356,7.356,0,0,0-1.959,7.651,5.373,5.373,0,0,0,5.362,3.295,6.125,6.125,0,0,0,2.877-.718,4.435,4.435,0,0,1,4.112,0,6.142,6.142,0,0,0,2.88.718,5.369,5.369,0,0,0,5.356-3.293,7.359,7.359,0,0,0-1.96-7.654l-4.274-3.956a5.484,5.484,0,0,0-8.119,0Zm8.337-2.646a3,3,0,0,1,1.943.968l4.275,3.958a4.229,4.229,0,0,1,1.178,4.238,2.34,2.34,0,0,1-2.462,1.319,3.124,3.124,0,0,1-1.553-.421,7.528,7.528,0,0,0-6.766,0,3.112,3.112,0,0,1-1.549.42,2.346,2.346,0,0,1-2.468-1.321,4.226,4.226,0,0,1,1.177-4.236l4.274-3.957a3.027,3.027,0,0,1,1.951-.969Z" transform="translate(-26.448 -31.211)"/>
          </g>
        </g>
      </g>
    </g>
  </g>
</svg>
