<svg xmlns="http://www.w3.org/2000/svg" width="80.742" height="79.969" viewBox="0 0 80.742 79.969">
  <g id="Grupo_117507" data-name="Grupo 117507" transform="translate(2545.637 3658.234)">
    <g id="finanzas" transform="translate(-2545.637 -3658.234)">
      <g id="Grupo_116360" data-name="Grupo 116360" transform="translate(0 0)">
        <g id="Grupo_116358" data-name="Grupo 116358" transform="translate(1.18 1.184)">
          <g id="Grupo_116349" data-name="Grupo 116349" transform="translate(14.665 31.78)">
            <path id="Trazado_178121" data-name="Trazado 178121" d="M69.467,111.743v-7.187A15.369,15.369,0,0,0,54.1,89.188H50.376a15.369,15.369,0,0,0-15.369,15.369v7.187a4.866,4.866,0,1,0,0,9.732h34.46a4.866,4.866,0,1,0,0-9.732Z" transform="translate(-30.141 -75.652)" fill="#a3ade6"/>
            <path id="Trazado_178122" data-name="Trazado 178122" d="M56.588,89.389a15.371,15.371,0,0,0-12.879,15.168v7.185a4.866,4.866,0,1,0,0,9.732h-8.7a4.866,4.866,0,1,1,0-9.732v-7.185a15.369,15.369,0,0,1,15.368-15.37H54.1A15.318,15.318,0,0,1,56.588,89.389Z" transform="translate(-30.141 -75.652)" fill="#6677d6"/>
            <path id="Trazado_178123" data-name="Trazado 178123" d="M69.259,63.443a3.794,3.794,0,0,0-3.932,3.791,3.794,3.794,0,0,0-3.932-3.791,3.853,3.853,0,0,0-3.656,3.882v2.062a7.588,7.588,0,0,0,15.176,0V67.325A3.853,3.853,0,0,0,69.259,63.443Z" transform="translate(-43.231 -63.44)" fill="#a3ade6"/>
            <path id="Trazado_178124" data-name="Trazado 178124" d="M67.3,76.717a7.594,7.594,0,0,1-9.557-7.329V67.325a3.851,3.851,0,0,1,3.655-3.882A3.775,3.775,0,0,1,63.515,64a3.921,3.921,0,0,0-1.836,3.327v2.062A7.591,7.591,0,0,0,67.3,76.717Z" transform="translate(-43.231 -63.44)" fill="#6677d6"/>
          </g>
          <g id="Grupo_116350" data-name="Grupo 116350" transform="translate(0.031 70.717)">
            <path id="Trazado_178125" data-name="Trazado 178125" d="M20.449,137.51H5.746a3.442,3.442,0,1,0,0,6.885h14.7a3.442,3.442,0,0,0,0-6.885Z" transform="translate(-2.303 -137.509)" fill="#ffef0f"/>
            <path id="Trazado_178126" data-name="Trazado 178126" d="M10.362,143.386a3.431,3.431,0,0,0,2.434,1.007H5.747a3.442,3.442,0,1,1,0-6.884H12.8a3.442,3.442,0,0,0-2.434,5.877Z" transform="translate(-2.304 -137.509)" fill="#fff56f"/>
          </g>
          <g id="Grupo_116351" data-name="Grupo 116351" transform="translate(0.031 63.832)">
            <path id="Trazado_178127" data-name="Trazado 178127" d="M20.449,124.413H5.746a3.442,3.442,0,1,0,0,6.885h14.7a3.442,3.442,0,0,0,0-6.885Z" transform="translate(-2.303 -124.412)" fill="#ffef0f"/>
            <path id="Trazado_178128" data-name="Trazado 178128" d="M10.362,130.289A3.431,3.431,0,0,0,12.8,131.3H5.747a3.442,3.442,0,1,1,0-6.884H12.8a3.442,3.442,0,0,0-2.434,5.877Z" transform="translate(-2.304 -124.412)" fill="#fff56f"/>
          </g>
          <g id="Grupo_116352" data-name="Grupo 116352" transform="translate(9.249 70.717)">
            <path id="Trazado_178129" data-name="Trazado 178129" d="M37.983,137.51H23.28a3.442,3.442,0,1,0,0,6.885h14.7a3.442,3.442,0,1,0,0-6.885Z" transform="translate(-19.838 -137.509)" fill="#ffef0f"/>
            <path id="Trazado_178130" data-name="Trazado 178130" d="M27.9,143.386a3.431,3.431,0,0,0,2.434,1.007H23.28a3.442,3.442,0,1,1,0-6.884h7.05a3.442,3.442,0,0,0-2.434,5.877Z" transform="translate(-19.838 -137.509)" fill="#fff56f"/>
          </g>
          <g id="Grupo_116353" data-name="Grupo 116353" transform="translate(9.249 63.832)">
            <path id="Trazado_178131" data-name="Trazado 178131" d="M37.983,124.413H23.28a3.442,3.442,0,1,0,0,6.885h14.7a3.442,3.442,0,1,0,0-6.885Z" transform="translate(-19.838 -124.412)" fill="#ffef0f"/>
            <path id="Trazado_178132" data-name="Trazado 178132" d="M27.9,130.289A3.431,3.431,0,0,0,30.33,131.3H23.28a3.442,3.442,0,1,1,0-6.884h7.05a3.442,3.442,0,0,0-2.434,5.877Z" transform="translate(-19.838 -124.412)" fill="#fff56f"/>
          </g>
          <g id="Grupo_116354" data-name="Grupo 116354" transform="translate(0.031 56.947)">
            <path id="Trazado_178133" data-name="Trazado 178133" d="M20.449,111.316H5.746a3.442,3.442,0,1,0,0,6.885h14.7a3.442,3.442,0,0,0,0-6.885Z" transform="translate(-2.303 -111.315)" fill="#ffef0f"/>
            <path id="Trazado_178134" data-name="Trazado 178134" d="M10.362,117.192A3.431,3.431,0,0,0,12.8,118.2H5.747a3.442,3.442,0,1,1,0-6.884H12.8a3.442,3.442,0,0,0-2.434,5.877Z" transform="translate(-2.304 -111.315)" fill="#fff56f"/>
          </g>
          <g id="Grupo_116355" data-name="Grupo 116355" transform="translate(0.031 50.062)">
            <path id="Trazado_178135" data-name="Trazado 178135" d="M20.449,98.219H5.746a3.442,3.442,0,1,0,0,6.885h14.7a3.442,3.442,0,0,0,0-6.885Z" transform="translate(-2.303 -98.218)" fill="#ffef0f"/>
            <path id="Trazado_178136" data-name="Trazado 178136" d="M10.362,104.095A3.431,3.431,0,0,0,12.8,105.1H5.747a3.442,3.442,0,1,1,0-6.884H12.8a3.442,3.442,0,0,0-2.434,5.877Z" transform="translate(-2.304 -98.218)" fill="#fff56f"/>
          </g>
          <g id="Grupo_116356" data-name="Grupo 116356" transform="translate(38.053 29.589)">
            <path id="Trazado_178137" data-name="Trazado 178137" d="M0,0H4.965V11.5H0Z" transform="translate(21.449 24.974) rotate(-45)" fill="#4e5959"/>
            <path id="Trazado_178138" data-name="Trazado 178138" d="M0,0H2.483V11.5H0Z" transform="translate(21.448 24.974) rotate(-45)" fill="#454b4b"/>
            <ellipse id="Elipse_15995" data-name="Elipse 15995" cx="14.718" cy="14.718" rx="14.718" ry="14.718" transform="translate(0 0)" fill="#ffef0f"/>
            <path id="Trazado_178139" data-name="Trazado 178139" d="M90.592,88.657q-.614.052-1.242.052a14.718,14.718,0,1,1,0-29.437q.627,0,1.242.052a14.719,14.719,0,0,0,0,29.332Z" transform="translate(-74.631 -59.273)" fill="#fff56f"/>
            <ellipse id="Elipse_15996" data-name="Elipse 15996" cx="8.881" cy="8.881" rx="8.881" ry="8.881" transform="translate(5.838 5.838)" fill="#caeffa"/>
            <path id="Trazado_178140" data-name="Trazado 178140" d="M96.386,87.962a8.881,8.881,0,1,1,0-17.408,8.883,8.883,0,0,0,0,17.408Z" transform="translate(-79.898 -64.54)" fill="#a2d6e3"/>
            <path id="Trazado_178141" data-name="Trazado 178141" d="M137.341,119.1l-2.878,2.878a2.3,2.3,0,0,1-3.249,0l-7.3-7.3a2.3,2.3,0,0,1,0-3.249l2.878-2.878a2.3,2.3,0,0,1,3.249,0l7.3,7.3A2.3,2.3,0,0,1,137.341,119.1Z" transform="translate(-97.686 -82.328)" fill="#6677d6"/>
            <path id="Trazado_178142" data-name="Trazado 178142" d="M136.569,121.179l-2.107,2.107a2.3,2.3,0,0,1-3.249,0l-7.3-7.3a2.3,2.3,0,0,1,0-3.249l2.107-2.107a2.3,2.3,0,0,0,0,3.249l7.3,7.3A2.3,2.3,0,0,0,136.569,121.179Z" transform="translate(-97.686 -83.631)" fill="#4e2e8e"/>
          </g>
          <g id="Grupo_116357" data-name="Grupo 116357" transform="translate(9.249 56.947)">
            <path id="Trazado_178143" data-name="Trazado 178143" d="M37.983,111.316H23.28a3.442,3.442,0,1,0,0,6.885h14.7a3.442,3.442,0,1,0,0-6.885Z" transform="translate(-19.838 -111.315)" fill="#ffef0f"/>
            <path id="Trazado_178144" data-name="Trazado 178144" d="M27.9,117.192A3.431,3.431,0,0,0,30.33,118.2H23.28a3.442,3.442,0,1,1,0-6.884h7.05a3.442,3.442,0,0,0-2.434,5.877Z" transform="translate(-19.838 -111.315)" fill="#fff56f"/>
          </g>
          <path id="Trazado_178145" data-name="Trazado 178145" d="M67.345,3.146,56.218,7.1a2.686,2.686,0,0,0-.843,4.575l2.124,1.81-7.117,8.35L39.473,11.73a3.114,3.114,0,0,0-4.736.6l-17.52,27.3L7.46,30.706a3.114,3.114,0,0,0-4.2,4.594L15.739,46.724a3.113,3.113,0,0,0,4.722-.615L37.97,18.825l10.561,9.781a3.114,3.114,0,0,0,4.485-.265l9.222-10.819,2.124,1.811a2.686,2.686,0,0,0,4.383-1.557L70.885,6.163a2.685,2.685,0,0,0-3.54-3.017Z" transform="translate(-2.244 -2.987)" fill="#c6412a"/>
        </g>
        <g id="Grupo_116359" data-name="Grupo 116359">
          <path id="Trazado_178146" data-name="Trazado 178146" d="M69.83,110.764a11.892,11.892,0,0,1-3.027-1.408,1.039,1.039,0,0,1-.247-1,1.419,1.419,0,0,1,.939-1.122,2.486,2.486,0,0,1,2.282.362,1.183,1.183,0,0,0,1.513-1.819,4.759,4.759,0,0,0-1.974-.927v-.528a1.183,1.183,0,0,0-2.366,0v.608c-.046.012-.091.024-.137.038a3.763,3.763,0,0,0-2.582,2.949,3.354,3.354,0,0,0,1.112,3.3,12.89,12.89,0,0,0,3.7,1.777,1.614,1.614,0,0,1,1.167,1.892,2.1,2.1,0,0,1-2.084,1.771,3.458,3.458,0,0,1-2.48-.651,1.183,1.183,0,0,0-1.3,1.98,5.4,5.4,0,0,0,2.6.993v.6a1.183,1.183,0,0,0,2.366,0v-.71a4.528,4.528,0,0,0,3.226-3.586A3.989,3.989,0,0,0,69.83,110.764Z" transform="translate(-30.267 -49.306)"/>
          <path id="Trazado_178147" data-name="Trazado 178147" d="M93.549,88.255A10.063,10.063,0,1,0,83.486,78.191,10.075,10.075,0,0,0,93.549,88.255Zm0-17.761a7.7,7.7,0,1,1-7.7,7.7A7.706,7.706,0,0,1,93.549,70.494Z" transform="translate(-39.598 -32.7)"/>
          <path id="Trazado_178148" data-name="Trazado 178148" d="M79.75,90.9l-7.3-7.3a3.457,3.457,0,0,0-2.461-1.019,3.494,3.494,0,0,0-1.022.152l-1.459-1.459A15.893,15.893,0,0,0,44.578,60.107a4.843,4.843,0,0,0-2.638-.889A4.938,4.938,0,0,0,38.3,60.609q-.179.173-.338.36-.159-.187-.338-.36a4.938,4.938,0,0,0-3.635-1.391,5,5,0,0,0-4.8,5.063v2.064a8.756,8.756,0,0,0,3.261,6.817,16.647,16.647,0,0,0-9.477,6.058,4.618,4.618,0,0,0-3.6-1.723H4.679a4.623,4.623,0,0,0-3.085,8.068,4.62,4.62,0,0,0-.185,6.713c.06.06.121.117.183.173a4.62,4.62,0,0,0-.183,6.712c.06.06.121.117.184.174a4.62,4.62,0,0,0-.185,6.71c.1.1.2.188.293.269a1.183,1.183,0,1,0,1.511-1.82c-.04-.033-.085-.074-.133-.123a2.238,2.238,0,0,1-.66-1.6,2.262,2.262,0,0,1,2.26-2.258H9.862a4.61,4.61,0,0,0,0,4.518H7.045a1.183,1.183,0,1,0,0,2.366H55.2A6.05,6.05,0,0,0,56.378,95.42V89.3c0-.218-.006-.436-.014-.655a15.8,15.8,0,0,0,5.958-2.192l1.461,1.461a3.482,3.482,0,0,0,.865,3.48l7.3,7.3a3.484,3.484,0,0,0,4.921,0l2.879-2.878a3.484,3.484,0,0,0,0-4.921ZM67.512,72.924A13.535,13.535,0,1,1,53.977,59.389,13.551,13.551,0,0,1,67.512,72.924Zm-35.95-6.58V64.281a2.679,2.679,0,0,1,2.515-2.7,2.61,2.61,0,0,1,2.707,2.609,1.183,1.183,0,0,0,2.366,0,2.61,2.61,0,0,1,2.708-2.609,2.488,2.488,0,0,1,.817.17,15.849,15.849,0,0,0-4.6,10.995l-.112,0a6.412,6.412,0,0,1-6.4-6.4ZM28.6,91.267H13.887a2.259,2.259,0,0,1,.006-4.519H28.6a2.26,2.26,0,1,1,0,4.519Zm2.26,4.625a2.262,2.262,0,0,1-2.26,2.26H13.9a2.26,2.26,0,1,1,0-4.519H28.6A2.262,2.262,0,0,1,30.859,95.892ZM4.679,79.862h14.7a2.26,2.26,0,0,1,0,4.519H4.679a2.26,2.26,0,1,1,0-4.519ZM3.081,90.6a2.239,2.239,0,0,1-.661-1.6,2.263,2.263,0,0,1,2.26-2.26H9.863a4.61,4.61,0,0,0,0,4.519H4.678A2.245,2.245,0,0,1,3.081,90.6Zm1.6,3.028H9.863a4.61,4.61,0,0,0,0,4.52H4.679a2.26,2.26,0,0,1,0-4.52Zm6.957,9.145a2.262,2.262,0,0,1,2.246-2.259H28.6a2.26,2.26,0,1,1,0,4.519H13.891A2.262,2.262,0,0,1,11.637,102.777ZM54.013,89.3v7.187A1.183,1.183,0,0,0,55.2,97.671a3.683,3.683,0,1,1,0,7.366H32.632a4.614,4.614,0,0,0-.948-5.7,4.617,4.617,0,0,0,0-6.885A4.623,4.623,0,0,0,28.6,84.382H23.415a4.6,4.6,0,0,0,.592-2.26c0-.074,0-.147-.006-.22a14.241,14.241,0,0,1,12.1-6.787h2.121a15.925,15.925,0,0,0,15.75,13.711H54c.005.158.009.317.009.476Zm12.084-6.1.91.91-1.839,1.839-.91-.91A16.049,16.049,0,0,0,66.1,83.205Zm11.98,10.941L75.2,97.025a1.116,1.116,0,0,1-1.576,0l-7.3-7.3a1.116,1.116,0,0,1,0-1.576L69.2,85.268a1.116,1.116,0,0,1,1.576,0l7.3,7.3A1.115,1.115,0,0,1,78.077,94.146Z" transform="translate(-0.025 -27.433)"/>
          <path id="Trazado_178149" data-name="Trazado 178149" d="M1.392,35.1,13.876,46.529a4.285,4.285,0,0,0,2.9,1.126,4.337,4.337,0,0,0,.555-.035,4.283,4.283,0,0,0,3.06-1.941L37.138,19.584l9.524,8.82a4.3,4.3,0,0,0,6.19-.364l8.454-9.919,1.224,1.043a3.869,3.869,0,0,0,6.315-2.242L70.984,5.31a3.87,3.87,0,0,0-5.1-4.347L54.758,4.915a3.869,3.869,0,0,0-1.215,6.59l1.224,1.043-5.55,6.511L47.653,17.61a1.183,1.183,0,0,0-1.608,1.735l2.468,2.287a1.183,1.183,0,0,0,1.7-.1l7.117-8.349a1.183,1.183,0,0,0-.133-1.667L55.078,9.7a1.5,1.5,0,0,1,.472-2.56L66.676,3.192a1.5,1.5,0,0,1,1.982,1.69L66.519,16.493a1.5,1.5,0,0,1-2.454.871l-2.124-1.81a1.183,1.183,0,0,0-1.667.133L51.052,26.506a1.932,1.932,0,0,1-2.781.164L37.709,16.889a1.183,1.183,0,0,0-1.8.229L18.4,44.4a1.922,1.922,0,0,1-1.373.872,1.966,1.966,0,0,1-.251.015,1.926,1.926,0,0,1-1.3-.505L2.99,33.36A1.931,1.931,0,1,1,5.6,30.511l9.757,8.929a1.183,1.183,0,0,0,1.794-.234L34.667,11.9a1.931,1.931,0,0,1,2.938-.375l4.971,4.6A1.183,1.183,0,1,0,44.183,14.4l-4.97-4.6a4.3,4.3,0,0,0-6.536.831L15.915,36.747,7.194,28.766a4.3,4.3,0,1,0-5.8,6.339Z" transform="translate(0 -0.735)"/>
        </g>
      </g>
    </g>
  </g>
</svg>
