<svg xmlns="http://www.w3.org/2000/svg" width="133" height="133" viewBox="0 0 133 133">
  <g id="Grupo_117526" data-name="Grupo 117526" transform="translate(2985.556 538.435)">
    <g id="Grupo_117459" data-name="Grupo 117459" transform="translate(-1247.042 -2683.435)">
      <g id="Elipse_17850" data-name="Elipse 17850" transform="translate(-1738.513 2145)" fill="#fff" stroke="#6677d6" stroke-width="4">
        <circle cx="66.5" cy="66.5" r="66.5" stroke="none"/>
        <circle cx="66.5" cy="66.5" r="64.5" fill="none"/>
      </g>
      <g id="lista" transform="translate(-1708.219 2171.829)">
        <g id="Grupo_116432" data-name="Grupo 116432" transform="translate(0 0)">
          <g id="Grupo_116419" data-name="Grupo 116419" transform="translate(20.644 60.131)" opacity="0.8">
            <path id="Trazado_178302" data-name="Trazado 178302" d="M47.462,133.019H92.908l4.345-8.3-4.345-8.308H47.462Z" transform="translate(-47.462 -116.409)" fill="#ffef0f" fill-rule="evenodd"/>
          </g>
          <g id="Grupo_116420" data-name="Grupo 116420" transform="translate(1.162 58.697)">
            <path id="Trazado_178303" data-name="Trazado 178303" d="M29.228,131.678V114.43a.8.8,0,0,0-.8-.8H10.543a.8.8,0,0,0-.8.8v17.884a.8.8,0,0,0,.788.8h17.9a.8.8,0,0,0,.792-.8v-.637Z" transform="translate(-9.746 -113.633)" fill="#f9f7f8" fill-rule="evenodd"/>
          </g>
          <g id="Grupo_116421" data-name="Grupo 116421" transform="translate(1.162 29.927)">
            <path id="Trazado_178304" data-name="Trazado 178304" d="M10.543,77.42H28.426a.8.8,0,0,0,.8-.8V58.739a.8.8,0,0,0-.8-.8H10.543a.8.8,0,0,0-.8.8V76.623a.8.8,0,0,0,.8.8Z" transform="translate(-9.746 -57.937)" fill="#f9f7f8" fill-rule="evenodd"/>
          </g>
          <g id="Grupo_116422" data-name="Grupo 116422" transform="translate(20.644 31.361)" opacity="0.8">
            <path id="Trazado_178305" data-name="Trazado 178305" d="M47.462,60.713V77.328H92.908l4.345-8.308-4.345-8.308Z" transform="translate(-47.462 -60.713)" fill="#6677d6" fill-rule="evenodd"/>
          </g>
          <g id="Grupo_116423" data-name="Grupo 116423" transform="translate(20.644 2.596)" opacity="0.71">
            <path id="Trazado_178306" data-name="Trazado 178306" d="M47.462,21.636H92.908l4.345-8.3L92.908,5.025H47.462Z" transform="translate(-47.462 -5.025)" fill="#c6412a" fill-rule="evenodd"/>
          </g>
          <g id="Grupo_116424" data-name="Grupo 116424" transform="translate(1.162 1.162)">
            <path id="Trazado_178307" data-name="Trazado 178307" d="M29.228,20.294V3.047a.8.8,0,0,0-.8-.8H10.543a.8.8,0,0,0-.8.8V20.931a.8.8,0,0,0,.8.8H28.426a.8.8,0,0,0,.8-.8Z" transform="translate(-9.746 -2.25)" fill="#f9f7f8" fill-rule="evenodd"/>
          </g>
          <g id="Grupo_116425" data-name="Grupo 116425" transform="translate(14.189 1.162)">
            <path id="Trazado_178308" data-name="Trazado 178308" d="M35.766,3.684V20.931a.8.8,0,0,1-.8.8h5.654a.8.8,0,0,0,.8-.8V3.047a.8.8,0,0,0-.8-.8H34.964a.8.8,0,0,1,.8.8Z" transform="translate(-34.964 -2.25)" fill="#dddaec" fill-rule="evenodd"/>
          </g>
          <g id="Grupo_116426" data-name="Grupo 116426" transform="translate(14.189 29.927)">
            <path id="Trazado_178309" data-name="Trazado 178309" d="M40.618,57.937H34.964a.8.8,0,0,1,.8.8V76.623a.8.8,0,0,1-.8.8h5.654a.8.8,0,0,0,.8-.8V58.739A.8.8,0,0,0,40.618,57.937Z" transform="translate(-34.964 -57.937)" fill="#dddaec" fill-rule="evenodd"/>
          </g>
          <g id="Grupo_116427" data-name="Grupo 116427" transform="translate(14.189 58.697)">
            <path id="Trazado_178310" data-name="Trazado 178310" d="M40.618,113.633H34.964a.8.8,0,0,1,.8.8v17.884a.8.8,0,0,1-.792.8h5.654a.8.8,0,0,0,.792-.8V114.43A.8.8,0,0,0,40.618,113.633Z" transform="translate(-34.964 -113.633)" fill="#dddaec" fill-rule="evenodd"/>
          </g>
          <g id="Grupo_116428" data-name="Grupo 116428" transform="translate(59.021 2.596)" opacity="0.71">
            <path id="Trazado_178311" data-name="Trazado 178311" d="M121.755,5.025a27.532,27.532,0,0,1,1.612,9.372,27.872,27.872,0,0,1-.939,7.239h6.4l4.345-8.3-4.345-8.308h-7.07Z" transform="translate(-121.755 -5.025)" fill="#c6412a" fill-rule="evenodd"/>
          </g>
          <g id="Grupo_116429" data-name="Grupo 116429" transform="translate(59.021 31.361)" opacity="0.8">
            <path id="Trazado_178312" data-name="Trazado 178312" d="M121.755,60.713a27.539,27.539,0,0,1,1.612,9.376,27.922,27.922,0,0,1-.939,7.239h6.4l4.345-8.308-4.345-8.308Z" transform="translate(-121.755 -60.713)" fill="#6677d6" fill-rule="evenodd"/>
          </g>
          <g id="Grupo_116430" data-name="Grupo 116430" transform="translate(59.021 60.131)" opacity="0.8">
            <path id="Trazado_178313" data-name="Trazado 178313" d="M121.755,116.409a27.532,27.532,0,0,1,1.612,9.372,27.9,27.9,0,0,1-.939,7.239h6.4l4.345-8.3-4.345-8.308h-7.07Z" transform="translate(-121.755 -116.409)" fill="#ffef0f" fill-rule="evenodd"/>
          </g>
          <g id="Grupo_116431" data-name="Grupo 116431">
            <path id="Trazado_178314" data-name="Trazado 178314" d="M9.455,21.807H27.339a1.965,1.965,0,0,0,1.89-1.438H73.586a1.163,1.163,0,0,0,1.03-.623l4.345-8.3a1.162,1.162,0,0,0,0-1.078L74.616,2.057a1.162,1.162,0,0,0-1.03-.624H54.291a1.162,1.162,0,1,0,0,2.324H72.883L76.62,10.9l-3.737,7.141H29.3V3.758H48.855a1.162,1.162,0,1,0,0-2.324H29.228A1.965,1.965,0,0,0,27.339,0H9.455A1.961,1.961,0,0,0,7.5,1.959V19.843a1.964,1.964,0,0,0,1.959,1.964ZM9.82,2.324H26.978V19.483H9.82Z" transform="translate(-7.496 0)"/>
            <path id="Trazado_178315" data-name="Trazado 178315" d="M74.616,57.744a1.162,1.162,0,0,0-1.03-.624H29.228a1.966,1.966,0,0,0-1.889-1.434H9.455A1.964,1.964,0,0,0,7.5,57.651V75.535a1.961,1.961,0,0,0,1.959,1.959H27.339a1.965,1.965,0,0,0,1.89-1.434H73.586a1.162,1.162,0,0,0,1.03-.624l4.345-8.308a1.161,1.161,0,0,0,0-1.077ZM26.978,75.17H9.82V58.012H26.978Zm45.9-1.434H29.3V59.445h43.58l3.737,7.145Z" transform="translate(-7.496 -26.922)"/>
            <path id="Trazado_178316" data-name="Trazado 178316" d="M27.57,10.575h-1.83a1.162,1.162,0,1,0,0,2.324h.668v7.39a1.162,1.162,0,1,0,2.324,0V11.738a1.162,1.162,0,0,0-1.162-1.162Z" transform="translate(-15.754 -5.113)"/>
            <path id="Trazado_178317" data-name="Trazado 178317" d="M27.647,74.807c-.72.009-1.479.016-2.151.019.452-.611,1.044-1.426,1.8-2.512a6.718,6.718,0,0,0,1.093-2.258,1.17,1.17,0,0,0,.022-.127l.04-.334a1.152,1.152,0,0,0,.008-.139,3.351,3.351,0,0,0-6.639-.645,1.162,1.162,0,1,0,2.282.444,1.027,1.027,0,0,1,2.032.144l-.022.18a4.575,4.575,0,0,1-.72,1.4c-1.358,1.941-2.165,3-2.6,3.563-.538.7-.834,1.09-.642,1.721a1.2,1.2,0,0,0,.78.795,6.837,6.837,0,0,0,1.958.1c.658,0,1.554-.007,2.783-.023a1.162,1.162,0,0,0-.03-2.324Z" transform="translate(-14.413 -31.96)"/>
            <path id="Trazado_178318" data-name="Trazado 178318" d="M25.466,121.761a3.364,3.364,0,0,0-3.29,2.7,1.162,1.162,0,0,0,2.28.454,1.027,1.027,0,1,1,1.011,1.224,1.162,1.162,0,1,0,0,2.324,1.026,1.026,0,1,1-1.016,1.181,1.177,1.177,0,0,1-.013-.157,1.162,1.162,0,0,0-2.324,0,3.455,3.455,0,0,0,.033.466A3.35,3.35,0,1,0,28,127.3a3.351,3.351,0,0,0-2.532-5.542Z" transform="translate(-14.563 -58.866)"/>
            <path id="Trazado_178319" data-name="Trazado 178319" d="M58.707,15.83h7.168a1.162,1.162,0,1,0,0-2.324H58.707a1.162,1.162,0,0,0,0,2.324Z" transform="translate(-31.692 -6.53)"/>
            <path id="Trazado_178320" data-name="Trazado 178320" d="M58.707,26.88H73.279a1.162,1.162,0,0,0,0-2.324H58.707a1.162,1.162,0,1,0,0,2.324Z" transform="translate(-31.692 -11.871)"/>
            <path id="Trazado_178321" data-name="Trazado 178321" d="M58.707,71.156h7.168a1.162,1.162,0,0,0,0-2.324H58.707a1.162,1.162,0,0,0,0,2.324Z" transform="translate(-31.692 -33.277)"/>
            <path id="Trazado_178322" data-name="Trazado 178322" d="M73.279,79.889H58.707a1.162,1.162,0,1,0,0,2.324H73.279a1.162,1.162,0,1,0,0-2.324Z" transform="translate(-31.692 -38.623)"/>
            <path id="Trazado_178323" data-name="Trazado 178323" d="M58.707,127.2h7.168a1.162,1.162,0,1,0,0-2.324H58.707a1.162,1.162,0,0,0,0,2.324Z" transform="translate(-31.692 -60.37)"/>
            <path id="Trazado_178324" data-name="Trazado 178324" d="M58.707,138.246H73.279a1.162,1.162,0,1,0,0-2.324H58.707a1.162,1.162,0,1,0,0,2.324Z" transform="translate(-31.692 -65.712)"/>
            <path id="Trazado_178325" data-name="Trazado 178325" d="M74.616,113.441a1.162,1.162,0,0,0-1.03-.624H54.291a1.162,1.162,0,0,0,0,2.324H72.883l3.737,7.145-3.737,7.141H29.3V115.142H48.855a1.162,1.162,0,1,0,0-2.324H29.228a1.965,1.965,0,0,0-1.89-1.434H9.455A1.962,1.962,0,0,0,7.5,113.343v17.884a1.964,1.964,0,0,0,1.959,1.964H27.339a1.965,1.965,0,0,0,1.89-1.438H73.586a1.163,1.163,0,0,0,1.03-.623l4.345-8.3a1.162,1.162,0,0,0,0-1.078ZM26.978,130.866H9.82V113.708H26.978Z" transform="translate(-7.496 -53.849)"/>
          </g>
        </g>
      </g>
    </g>
  </g>
</svg>
