<svg xmlns="http://www.w3.org/2000/svg" width="133" height="133" viewBox="0 0 133 133">
  <g id="Grupo_117524" data-name="Grupo 117524" transform="translate(2809.54 729.435)">
    <g id="Grupo_117457" data-name="Grupo 117457" transform="translate(-31.54 -2706.435)">
      <g id="Grupo_117456" data-name="Grupo 117456">
        <g id="Grupo_117455" data-name="Grupo 117455">
          <g id="Elipse_17845" data-name="Elipse 17845" transform="translate(-2778 1977)" fill="#fff" stroke="#6677d6" stroke-width="4">
            <circle cx="66.5" cy="66.5" r="66.5" stroke="none"/>
            <circle cx="66.5" cy="66.5" r="64.5" fill="none"/>
          </g>
          <g id="copiar" transform="translate(-2748.3 2007.587)">
            <g id="Grupo_116404" data-name="Grupo 116404" transform="translate(0)">
              <g id="Grupo_116402" data-name="Grupo 116402" transform="translate(0)">
                <g id="Grupo_116400" data-name="Grupo 116400">
                  <path id="Trazado_178271" data-name="Trazado 178271" d="M91.549,12.53l-4.72-8.641H56.065a3.058,3.058,0,0,0-3.058,3.058V61.625a3.058,3.058,0,0,0,3.058,3.058H92.412a3.058,3.058,0,0,0,3.058-3.058v-.208h2.247V16.549Z" transform="translate(-27.953 -2.051)" fill="#a3ade6"/>
                  <path id="Trazado_178272" data-name="Trazado 178272" fill="#a3ade6"/>
                </g>
                <path id="Trazado_178273" data-name="Trazado 178273" d="M139.434,27.576v46.54a3.058,3.058,0,0,1-3.058,3.058h4.02a3.058,3.058,0,0,0,3.058-3.058V29.041Z" transform="translate(-71.917 -14.542)" fill="#6677d6"/>
                <path id="Trazado_178274" data-name="Trazado 178274" d="M127.623,16.549h9.6l-12.66-12.66v9.6A3.058,3.058,0,0,0,127.623,16.549Z" transform="translate(-65.688 -2.051)" fill="#4e2e8e"/>
                <g id="Grupo_116401" data-name="Grupo 116401" transform="translate(1.063 9.968)">
                  <path id="Trazado_178275" data-name="Trazado 178275" d="M99.239,146.859a3.074,3.074,0,0,1-.223.292A3.073,3.073,0,0,0,99.239,146.859Z" transform="translate(-53.278 -87.413)" fill="#eaf6ff"/>
                  <path id="Trazado_178276" data-name="Trazado 178276" d="M41.655,81.883a3.058,3.058,0,0,0,3.058-3.058v-.067h1.919V33.749l-6.31-4.691-4.25-7.97H5.308A3.058,3.058,0,0,0,2.25,24.147V78.825a3.058,3.058,0,0,0,3.058,3.058Z" transform="translate(-2.25 -21.089)" fill="#dee4f0"/>
                </g>
                <path id="Trazado_178277" data-name="Trazado 178277" d="M88.677,39.371v49.1a3.058,3.058,0,0,1-3.058,3.058h4.019A3.058,3.058,0,0,0,92.7,88.466V43.39Z" transform="translate(-45.15 -20.762)" fill="#d2e1f1"/>
                <path id="Trazado_178278" data-name="Trazado 178278" d="M76.866,33.75h9.6l-12.66-12.66v9.6a3.058,3.058,0,0,0,3.058,3.058Z" transform="translate(-38.922 -11.121)" fill="#b3dafe"/>
              </g>
              <g id="Grupo_116403" data-name="Grupo 116403" transform="translate(0 0.774)">
                <path id="Trazado_178279" data-name="Trazado 178279" d="M16.591,63.611H48.4a1.063,1.063,0,1,0,0-2.127h-31.8a1.063,1.063,0,1,0,0,2.127Z" transform="translate(-8.189 -33.197)"/>
                <path id="Trazado_178280" data-name="Trazado 178280" d="M16.591,80.864H48.4a1.063,1.063,0,0,0,0-2.127h-31.8a1.063,1.063,0,1,0,0,2.127Z" transform="translate(-8.189 -42.296)"/>
                <path id="Trazado_178281" data-name="Trazado 178281" d="M16.591,98.117H48.4a1.063,1.063,0,1,0,0-2.127h-31.8a1.063,1.063,0,1,0,0,2.127Z" transform="translate(-8.189 -51.394)"/>
                <path id="Trazado_178282" data-name="Trazado 178282" d="M16.591,115.371H48.4a1.063,1.063,0,1,0,0-2.127h-31.8a1.063,1.063,0,1,0,0,2.127Z" transform="translate(-8.189 -60.493)"/>
                <path id="Trazado_178283" data-name="Trazado 178283" d="M72.289,14.61,59.629,1.95a1.073,1.073,0,0,0-.752-.311H28.112A4.126,4.126,0,0,0,23.991,5.76V9.768H4.121A4.126,4.126,0,0,0,0,13.89v7.657a1.063,1.063,0,0,0,2.127,0V13.89A2,2,0,0,1,4.121,11.9h29.7v8.539a4.126,4.126,0,0,0,4.121,4.121h8.539V68.569a2,2,0,0,1-1.995,1.995H4.121a2,2,0,0,1-1.995-1.995V26.51A1.063,1.063,0,0,0,0,26.51V68.568A4.126,4.126,0,0,0,4.121,72.69H44.488a4.126,4.126,0,0,0,4.121-4.121V64.56H52.6a1.063,1.063,0,1,0,0-2.127H48.61V48.362H64.2a1.063,1.063,0,1,0,0-2.127H48.61V40.207H64.2a1.063,1.063,0,1,0,0-2.127H48.61V32.052H64.2a1.063,1.063,0,1,0,0-2.127H48.61V23.9H64.2a1.063,1.063,0,1,0,0-2.127H47.328L35.638,10.08a1.074,1.074,0,0,0-.752-.311H26.118V5.76a2,2,0,0,1,1.995-1.995h29.7V12.3a4.126,4.126,0,0,0,4.122,4.121h8.539V60.439a2,2,0,0,1-1.995,1.995H57.565a1.063,1.063,0,0,0,0,2.127H68.479A4.126,4.126,0,0,0,72.6,60.439V15.362a1.068,1.068,0,0,0-.311-.752ZM37.944,22.429a2,2,0,0,1-1.995-1.995V13.4l9.03,9.03ZM61.935,14.3A2,2,0,0,1,59.94,12.3V5.269l9.03,9.03Z" transform="translate(0 -1.639)"/>
              </g>
            </g>
          </g>
        </g>
      </g>
    </g>
  </g>
</svg>
