<svg xmlns="http://www.w3.org/2000/svg" width="80.747" height="77.369" viewBox="0 0 80.747 77.369">
  <g id="Grupo_117512" data-name="Grupo 117512" transform="translate(2529.133 3491.093)">
    <g id="cronograma" transform="translate(-2529.133 -3491.093)">
      <g id="Grupo_116348" data-name="Grupo 116348" transform="translate(0 0)">
        <g id="Grupo_116346" data-name="Grupo 116346" transform="translate(1.22 1.191)">
          <ellipse id="Elipse_15989" data-name="Elipse 15989" cx="12.86" cy="12.86" rx="12.86" ry="12.86" transform="translate(0 49.283)" fill="#ffef0f"/>
          <ellipse id="Elipse_15990" data-name="Elipse 15990" cx="12.86" cy="12.86" rx="12.86" ry="12.86" transform="translate(26.33)" fill="#ff656f"/>
          <ellipse id="Elipse_15991" data-name="Elipse 15991" cx="4.028" cy="4.028" rx="4.028" ry="4.028" transform="translate(8.832 33.473)" fill="#ffef0f"/>
          <ellipse id="Elipse_15992" data-name="Elipse 15992" cx="4.028" cy="4.028" rx="4.028" ry="4.028" transform="translate(35.162 33.473)" fill="#ff656f"/>
          <ellipse id="Elipse_15993" data-name="Elipse 15993" cx="4.028" cy="4.028" rx="4.028" ry="4.028" transform="translate(61.492 33.473)" fill="#6677d6"/>
          <path id="Trazado_178105" data-name="Trazado 178105" d="M23.15,73.18a4.026,4.026,0,0,1,2.014-3.488,4.028,4.028,0,1,0,0,6.976A4.026,4.026,0,0,1,23.15,73.18Z" transform="translate(-10.29 -35.679)" fill="#fff56f"/>
          <path id="Trazado_178106" data-name="Trazado 178106" d="M73.237,73.18a4.026,4.026,0,0,1,2.014-3.488,4.028,4.028,0,1,0,0,6.976A4.026,4.026,0,0,1,73.237,73.18Z" transform="translate(-34.046 -35.679)" fill="#ff4756"/>
          <path id="Trazado_178107" data-name="Trazado 178107" d="M123.323,73.18a4.026,4.026,0,0,1,2.014-3.488,4.028,4.028,0,1,0,0,6.976A4.026,4.026,0,0,1,123.323,73.18Z" transform="translate(-57.802 -35.679)" fill="#6677d6"/>
          <ellipse id="Elipse_15994" data-name="Elipse 15994" cx="12.86" cy="12.86" rx="12.86" ry="12.86" transform="translate(52.661 49.283)" fill="#6677d6"/>
          <path id="Trazado_178108" data-name="Trazado 178108" d="M9.261,112.086A12.863,12.863,0,0,1,18.651,99.7a12.86,12.86,0,1,0,0,24.765,12.863,12.863,0,0,1-9.39-12.383Z" transform="translate(-2.321 -49.943)" fill="#fff56f"/>
          <path id="Trazado_178109" data-name="Trazado 178109" d="M59.348,18.338a12.863,12.863,0,0,1,9.39-12.383,12.86,12.86,0,1,0,0,24.765,12.863,12.863,0,0,1-9.39-12.383Z" transform="translate(-26.078 -5.477)" fill="#ff4756"/>
          <path id="Trazado_178110" data-name="Trazado 178110" d="M109.434,112.086a12.863,12.863,0,0,1,9.39-12.383,12.86,12.86,0,1,0,0,24.765A12.863,12.863,0,0,1,109.434,112.086Z" transform="translate(-49.834 -49.943)" fill="#6677d6"/>
        </g>
        <g id="Grupo_116347" data-name="Grupo 116347">
          <path id="Trazado_178111" data-name="Trazado 178111" d="M71.778,43.08h7.786a1.183,1.183,0,1,0,0-2.366H71.778a5.21,5.21,0,0,0-10.148,0H45.447a5.227,5.227,0,0,0-3.891-3.891V31.248A14.044,14.044,0,0,0,54.088,20.268a1.183,1.183,0,0,0-2.311-.505,11.677,11.677,0,1,1,0-5.014,1.183,1.183,0,0,0,2.311-.505,14.043,14.043,0,1,0-14.9,17.005v5.575A5.227,5.227,0,0,0,35.3,40.714H19.117a5.21,5.21,0,0,0-10.148,0H1.183a1.183,1.183,0,0,0,0,2.366H8.969a5.227,5.227,0,0,0,3.891,3.891v5.575a14.042,14.042,0,1,0,2.366,0V46.971a5.226,5.226,0,0,0,3.891-3.891H35.3a5.21,5.21,0,0,0,10.149,0H61.629a5.227,5.227,0,0,0,3.891,3.891v5.575a14.043,14.043,0,0,0-1.83,27.708,1.183,1.183,0,1,0,.505-2.311,11.677,11.677,0,1,1,5.014,0,1.183,1.183,0,1,0,.505,2.311,14.042,14.042,0,0,0-1.83-27.708V46.971a5.226,5.226,0,0,0,3.891-3.891ZM25.72,66.538A11.677,11.677,0,1,1,14.043,54.861,11.691,11.691,0,0,1,25.72,66.538Zm-11.677-21.8A2.846,2.846,0,1,1,16.888,41.9,2.849,2.849,0,0,1,14.043,44.742Zm26.33,0A2.846,2.846,0,1,1,43.219,41.9,2.849,2.849,0,0,1,40.373,44.742Zm26.33,0A2.846,2.846,0,1,1,69.549,41.9,2.849,2.849,0,0,1,66.7,44.742Z" transform="translate(0 -3.213)"/>
          <path id="Trazado_178112" data-name="Trazado 178112" d="M20.3,113.92a1.183,1.183,0,0,0,1.183,1.183H25.86a1.183,1.183,0,1,0,0-2.366H21.484A1.183,1.183,0,0,0,20.3,113.92Z" transform="translate(-9.629 -55.161)"/>
          <path id="Trazado_178113" data-name="Trazado 178113" d="M15.451,122.607a1.183,1.183,0,0,0,1.183,1.183h9.476a1.183,1.183,0,1,0,0-2.366H16.633A1.183,1.183,0,0,0,15.451,122.607Z" transform="translate(-7.328 -59.281)"/>
          <path id="Trazado_178114" data-name="Trazado 178114" d="M26.109,130.111H16.633a1.183,1.183,0,1,0,0,2.366h9.476a1.183,1.183,0,1,0,0-2.366Z" transform="translate(-7.328 -63.401)"/>
          <path id="Trazado_178115" data-name="Trazado 178115" d="M75.946,21.355a1.183,1.183,0,1,0,0-2.366H71.571a1.183,1.183,0,1,0,0,2.366Z" transform="translate(-33.385 -10.696)"/>
          <path id="Trazado_178116" data-name="Trazado 178116" d="M76.2,27.676H66.72a1.183,1.183,0,1,0,0,2.366H76.2a1.183,1.183,0,0,0,0-2.366Z" transform="translate(-31.085 -14.816)"/>
          <path id="Trazado_178117" data-name="Trazado 178117" d="M76.2,36.362H66.72a1.183,1.183,0,1,0,0,2.366H76.2a1.183,1.183,0,0,0,0-2.366Z" transform="translate(-31.085 -18.936)"/>
          <path id="Trazado_178118" data-name="Trazado 178118" d="M126.033,115.1a1.183,1.183,0,1,0,0-2.366h-4.376a1.183,1.183,0,1,0,0,2.366Z" transform="translate(-57.142 -55.161)"/>
          <path id="Trazado_178119" data-name="Trazado 178119" d="M115.624,122.607a1.183,1.183,0,0,0,1.183,1.183h9.476a1.183,1.183,0,0,0,0-2.366h-9.476a1.183,1.183,0,0,0-1.183,1.183Z" transform="translate(-54.841 -59.281)"/>
          <path id="Trazado_178120" data-name="Trazado 178120" d="M116.807,132.476h9.476a1.183,1.183,0,1,0,0-2.366h-9.476a1.183,1.183,0,0,0,0,2.366Z" transform="translate(-54.841 -63.401)"/>
        </g>
      </g>
    </g>
  </g>
</svg>
