<svg xmlns="http://www.w3.org/2000/svg" width="142.323" height="153.638" viewBox="0 0 142.323 153.638">
  <g id="Grupo_117518" data-name="Grupo 117518" transform="translate(2935.798 2126.481)">
    <g id="Grupo_117453" data-name="Grupo 117453" transform="translate(206.202 -2355.259)">
      <g id="idea" transform="translate(-3147.658 228.778)">
        <g id="Grupo_116388" data-name="Grupo 116388" transform="translate(5.658 0)">
          <g id="Grupo_116385" data-name="Grupo 116385" transform="translate(39.336 2.288)">
            <path id="Trazado_178217" data-name="Trazado 178217" d="M108.635,34.108A31.82,31.82,0,1,0,60.549,61.46l3.524,15.378h25.9l3.591-15.669A31.8,31.8,0,0,0,108.635,34.108Z" transform="translate(-44.994 -2.288)" fill="#ffef0f"/>
            <path id="Trazado_178218" data-name="Trazado 178218" d="M77.027,2.289a32.087,32.087,0,0,0-5.062.366A31.823,31.823,0,0,1,86.435,59.393a9.027,9.027,0,0,0-3.344,5.139L80.27,76.838h9.7l3.591-15.669A31.822,31.822,0,0,0,77.027,2.289Z" transform="translate(-44.994 -2.288)" fill="#fff56f"/>
          </g>
          <path id="Trazado_178219" data-name="Trazado 178219" d="M145.021,58.764,114.089,89.7V76.838l24.5-24.5a2.424,2.424,0,0,1,3.429,0l3,3a2.425,2.425,0,0,1,0,3.429Z" transform="translate(-5.658 0)" fill="#a3ade6"/>
          <path id="Trazado_178220" data-name="Trazado 178220" d="M8.608,58.764,39.539,89.7V76.838l-24.5-24.5a2.424,2.424,0,0,0-3.429,0l-3,3a2.425,2.425,0,0,0,0,3.429Z" transform="translate(-5.658 0)" fill="#a3ade6"/>
          <g id="Grupo_116386" data-name="Grupo 116386" transform="translate(33.881 76.838)">
            <path id="Trazado_178221" data-name="Trazado 178221" d="M109.241,151.388H44.388a4.849,4.849,0,0,1-4.849-4.849v-69.7h74.55v69.7a4.849,4.849,0,0,1-4.849,4.849Z" transform="translate(-39.539 -76.838)" fill="#a3ade6"/>
            <path id="Trazado_178222" data-name="Trazado 178222" d="M104.392,76.838v69.7a4.849,4.849,0,0,1-4.849,4.849h9.7a4.849,4.849,0,0,0,4.849-4.849v-69.7Z" transform="translate(-39.539 -76.838)" fill="#6677d6"/>
            <path id="Trazado_178223" data-name="Trazado 178223" d="M83.306,99.8l-5.147-3.431a2.424,2.424,0,0,0-2.689,0L70.322,99.8A1.818,1.818,0,0,1,67.5,98.291V76.838H86.133V98.291A1.818,1.818,0,0,1,83.306,99.8Z" transform="translate(-39.539 -76.838)" fill="#c6412a"/>
          </g>
          <g id="Grupo_116387" data-name="Grupo 116387">
            <path id="Trazado_178224" data-name="Trazado 178224" d="M147.981,57.05a4.645,4.645,0,0,0-1.369-3.305l-3-3a4.7,4.7,0,0,0-6.611,0L113.158,74.588H92.793l2.755-12.019a33.873,33.873,0,0,0,15.338-28.46c.332-25.98-29.21-42.831-51.378-29.351A2.25,2.25,0,0,0,61.8,8.631c19.244-11.694,44.873,2.932,44.586,25.478a29.414,29.414,0,0,1-14.01,25.148,2.249,2.249,0,0,0-1.007,1.41L88.176,74.588H83.944l3.063-30.746v-.008l.487-4.887a2.523,2.523,0,0,1,5.031.25v4.231a2.25,2.25,0,0,0,4.5,0V39.2c-.256-8.857-12.9-9.493-14.009-.7l-.432,4.341L80.863,45.41l-2.195-3.273a2.25,2.25,0,0,0-3.738,0l-2.189,3.269L71.05,42.881l-.436-4.38c-1.116-8.8-13.755-8.154-14.008.7v4.231a2.25,2.25,0,0,0,4.5,0V39.2a2.522,2.522,0,0,1,5.031-.25l3.55,35.641h-3.82L62.742,60.957a2.251,2.251,0,0,0-1.041-1.43c-15.53-8.885-19.264-31.279-7.352-44.642a2.25,2.25,0,1,0-3.416-2.928,34.064,34.064,0,0,0,7.634,50.925L61.25,74.588H40.472L16.629,50.744a4.7,4.7,0,0,0-6.611,0l-3,3a4.7,4.7,0,0,0,0,6.611L37.291,90.628v33.487a2.25,2.25,0,0,0,4.5,0V79.088H65.247v19.2a4.068,4.068,0,0,0,6.325,3.385l5.147-3.431a.173.173,0,0,1,.193,0l5.147,3.431a4.068,4.068,0,0,0,6.325-3.385v-19.2h23.456v21.024a2.25,2.25,0,0,0,4.5,0V90.628l30.272-30.273a4.65,4.65,0,0,0,1.368-3.305Zm-76.07-5.508a2.258,2.258,0,0,0,2.7-.839l2.189-3.27L78.994,50.7a2.255,2.255,0,0,0,2.724.826l-2.3,23.058H74.207ZM10.2,57.173a.174.174,0,0,1,0-.247l3-3a.167.167,0,0,1,.124-.051.165.165,0,0,1,.123.051L37.289,77.771v6.493ZM83.883,97.484,79.407,94.5a4.661,4.661,0,0,0-5.186,0l-4.476,2.984v-18.4H83.883ZM143.43,57.173,116.339,84.264V77.771l23.844-23.844a.175.175,0,0,1,.246,0l3,3a.166.166,0,0,1,.051.123.164.164,0,0,1-.051.123Z" transform="translate(-5.658 0)"/>
            <path id="Trazado_178225" data-name="Trazado 178225" d="M114.089,108.362a2.25,2.25,0,0,0-2.25,2.25V146.54a2.6,2.6,0,0,1-2.6,2.6H44.387a2.6,2.6,0,0,1-2.6-2.6V134.615a2.25,2.25,0,0,0-4.5,0V146.54a7.106,7.106,0,0,0,7.1,7.1h64.854a7.106,7.106,0,0,0,7.1-7.1V110.612a2.25,2.25,0,0,0-2.25-2.25Z" transform="translate(-5.658 0)"/>
            <path id="Trazado_178226" data-name="Trazado 178226" d="M93.05,142.3a2.25,2.25,0,0,0,2.25,2.25H105a2.25,2.25,0,0,0,0-4.5H95.3A2.25,2.25,0,0,0,93.05,142.3Z" transform="translate(-5.658 0)"/>
            <path id="Trazado_178227" data-name="Trazado 178227" d="M100.149,135.455H105a2.25,2.25,0,0,0,0-4.5h-4.849A2.25,2.25,0,0,0,100.149,135.455Z" transform="translate(-5.658 0)"/>
            <path id="Trazado_178228" data-name="Trazado 178228" d="M100.149,126.364H105a2.25,2.25,0,0,0,0-4.5h-4.849A2.25,2.25,0,0,0,100.149,126.364Z" transform="translate(-5.658 0)"/>
            <path id="Trazado_178229" data-name="Trazado 178229" d="M33.96,11.964l3.674,2.121a2.25,2.25,0,1,0,2.25-3.9L36.21,8.067a2.25,2.25,0,0,0-2.25,3.9Z" transform="translate(-5.658 0)"/>
            <path id="Trazado_178230" data-name="Trazado 178230" d="M28.971,27.957l4.178.737a2.25,2.25,0,0,0,.781-4.432l-4.178-.737a2.25,2.25,0,0,0-.782,4.432Z" transform="translate(-5.658 0)"/>
            <path id="Trazado_178231" data-name="Trazado 178231" d="M29.359,44.726a2.283,2.283,0,0,0,.393-.035l4.178-.737a2.25,2.25,0,1,0-.781-4.432l-4.178.737a2.25,2.25,0,0,0,.388,4.466Z" transform="translate(-5.658 0)"/>
            <path id="Trazado_178232" data-name="Trazado 178232" d="M37.634,54.13,33.96,56.252a2.25,2.25,0,0,0,2.25,3.9l3.674-2.121a2.25,2.25,0,1,0-2.25-3.9Z" transform="translate(-5.658 0)"/>
            <path id="Trazado_178233" data-name="Trazado 178233" d="M114.871,14.387a2.24,2.24,0,0,0,1.123-.3l3.674-2.121a2.25,2.25,0,0,0-2.25-3.9l-3.674,2.121a2.25,2.25,0,0,0,1.127,4.2Z" transform="translate(-5.658 0)"/>
            <path id="Trazado_178234" data-name="Trazado 178234" d="M117.873,26.868a2.254,2.254,0,0,0,2.606,1.825l4.178-.737a2.25,2.25,0,0,0-.781-4.432l-4.178.737a2.25,2.25,0,0,0-1.825,2.606Z" transform="translate(-5.658 0)"/>
            <path id="Trazado_178235" data-name="Trazado 178235" d="M124.658,40.259l-4.178-.737a2.25,2.25,0,1,0-.781,4.432l4.178.737a2.25,2.25,0,0,0,.781-4.432Z" transform="translate(-5.658 0)"/>
            <path id="Trazado_178236" data-name="Trazado 178236" d="M113.744,58.028l3.674,2.121a2.25,2.25,0,1,0,2.25-3.9l-3.674-2.121a2.25,2.25,0,1,0-2.25,3.9Z" transform="translate(-5.658 0)"/>
          </g>
        </g>
      </g>
    </g>
  </g>
</svg>
