<svg xmlns="http://www.w3.org/2000/svg" width="133" height="133" viewBox="0 0 133 133">
  <g id="Grupo_117554" data-name="Grupo 117554" transform="translate(7786.333 -249.164)">
    <g id="Grupo_117311" data-name="Grupo 117311" transform="translate(-2753.217 -4230)">
      <g id="Elipse_17555" data-name="Elipse 17555" transform="translate(-5033.117 4479.164)" fill="#fff" stroke="#6677d6" stroke-width="4">
        <circle cx="66.5" cy="66.5" r="66.5" stroke="none"/>
        <circle cx="66.5" cy="66.5" r="64.5" fill="none"/>
      </g>
      <g id="buscar" transform="translate(-5006.986 4505.292)">
        <g id="Grupo_116340" data-name="Grupo 116340" transform="translate(0 0)">
          <path id="Trazado_178063" data-name="Trazado 178063" d="M96.644,89.845A186.892,186.892,0,0,1,122.1,110.22s.99,3.411-3.735,8.136-8.136,3.735-8.136,3.735A186.891,186.891,0,0,1,89.851,96.637" transform="translate(-42.62 -42.614)" fill="#4e2e8e"/>
          <path id="Trazado_178064" data-name="Trazado 178064" d="M89.852,100.541l2.466-2.466c11.956,13.164,21.926,23.291,24.326,25.713-3.811,2.963-6.418,2.207-6.418,2.207A186.855,186.855,0,0,1,89.852,100.541Z" transform="translate(-42.621 -46.517)" fill="#4e2e8e"/>
          <ellipse id="Elipse_15985" data-name="Elipse 15985" cx="30.828" cy="30.828" rx="30.828" ry="30.828" transform="translate(1.183 1.183)" fill="#fff56f"/>
          <path id="Trazado_178065" data-name="Trazado 178065" d="M35.415,63.82q-1.155.085-2.329.086a30.828,30.828,0,1,1,0-61.656q1.176,0,2.329.086a30.83,30.83,0,0,0,0,61.483Z" transform="translate(-1.074 -1.067)" fill="#ffef0f"/>
          <ellipse id="Elipse_15986" data-name="Elipse 15986" cx="21.038" cy="21.038" rx="21.038" ry="21.038" transform="translate(10.973 10.973)" fill="#a3ade6"/>
          <path id="Trazado_178066" data-name="Trazado 178066" d="M20.879,41.91A21.038,21.038,0,0,0,41.917,62.948a21.391,21.391,0,0,0,2.89-.2,21.042,21.042,0,0,1,0-41.684,21.363,21.363,0,0,0-2.89-.2A21.038,21.038,0,0,0,20.879,41.91Z" transform="translate(-9.906 -9.9)" fill="#a3ade6"/>
          <path id="Trazado_178067" data-name="Trazado 178067" d="M80.619,67.276a1.184,1.184,0,0,0-.3-.507c-.09-.09-2.251-2.245-6.135-5.613a1.183,1.183,0,0,0-1.55,1.787c3.052,2.647,5.055,4.565,5.745,5.237.069.8-.054,3.312-3.468,6.726s-5.925,3.536-6.725,3.468A186.572,186.572,0,0,1,51.177,57.639a32.287,32.287,0,0,0,6.468-6.467c3.871,2.754,7.7,5.689,11.4,8.738a1.183,1.183,0,1,0,1.5-1.826c-3.751-3.091-7.636-6.065-11.56-8.856a32.035,32.035,0,1,0-9.76,9.759A185.311,185.311,0,0,0,66.776,80.313a1.184,1.184,0,0,0,.507.3,4.443,4.443,0,0,0,1.173.132,7.474,7.474,0,0,0,1.727-.213,13.867,13.867,0,0,0,6.4-3.954C81.745,71.419,80.668,67.443,80.619,67.276ZM2.372,32.011A29.645,29.645,0,1,1,32.017,61.656,29.679,29.679,0,0,1,2.372,32.011Z" transform="translate(-0.006 0)"/>
          <path id="Trazado_178068" data-name="Trazado 178068" d="M40.849,18.621A22.043,22.043,0,0,0,27.6,23a1.183,1.183,0,1,0,1.412,1.9,19.859,19.859,0,1,1-3.263,3.051,1.183,1.183,0,0,0-1.8-1.536,22.222,22.222,0,1,0,16.9-7.794Z" transform="translate(-8.838 -8.832)"/>
          <g id="Grupo_116338" data-name="Grupo 116338" transform="translate(27.817 16.054)">
            <path id="Trazado_178069" data-name="Trazado 178069" d="M58.433,74.053a15.284,15.284,0,0,1-3.065,0,2.608,2.608,0,0,1-2.329-2.508q-.234-6.369,0-12.738A2.608,2.608,0,0,1,55.368,56.3a15.262,15.262,0,0,1,3.065,0,2.608,2.608,0,0,1,2.33,2.508q.234,6.369,0,12.738A2.607,2.607,0,0,1,58.433,74.053Z" transform="translate(-52.922 -42.721)" fill="#fff56f"/>
            <path id="Trazado_178070" data-name="Trazado 178070" d="M58.359,39.458q-1.458.07-2.916,0a2.607,2.607,0,0,1-2.476-2.482q-.088-1.959,0-3.919a2.607,2.607,0,0,1,2.476-2.482q1.458-.07,2.916,0a2.607,2.607,0,0,1,2.476,2.482q.088,1.959,0,3.919A2.607,2.607,0,0,1,58.359,39.458Z" transform="translate(-52.922 -30.54)" fill="#fff56f"/>
          </g>
          <g id="Grupo_116339" data-name="Grupo 116339" transform="translate(26.635 14.872)">
            <path id="Trazado_178071" data-name="Trazado 178071" d="M55.834,74.246a16.468,16.468,0,0,1-1.651-.083,3.8,3.8,0,0,1-3.393-3.641c-.156-4.255-.156-8.57,0-12.825a3.8,3.8,0,0,1,3.393-3.641,16.544,16.544,0,0,1,3.3,0A3.8,3.8,0,0,1,60.878,57.7c.156,4.255.156,8.57,0,12.825a3.8,3.8,0,0,1-3.393,3.641A16.519,16.519,0,0,1,55.834,74.246Zm0-17.907a14.1,14.1,0,0,0-1.414.071,1.428,1.428,0,0,0-1.266,1.374c-.154,4.2-.154,8.454,0,12.651A1.427,1.427,0,0,0,54.42,71.81a14.144,14.144,0,0,0,2.828,0,1.427,1.427,0,0,0,1.266-1.374c.154-4.2.154-8.454,0-12.651a1.428,1.428,0,0,0-1.266-1.374A14.142,14.142,0,0,0,55.834,56.34Z" transform="translate(-50.673 -40.472)"/>
            <path id="Trazado_178072" data-name="Trazado 178072" d="M55.834,39.609c-.506,0-1.012-.012-1.515-.036a3.769,3.769,0,0,1-3.6-3.611c-.06-1.336-.06-2.69,0-4.025a3.769,3.769,0,0,1,3.6-3.611c1.005-.048,2.024-.048,3.03,0a3.769,3.769,0,0,1,3.6,3.611c.06,1.336.06,2.69,0,4.026a3.769,3.769,0,0,1-3.6,3.611C56.846,39.6,56.34,39.609,55.834,39.609Zm0-8.953c-.468,0-.936.011-1.4.033a1.432,1.432,0,0,0-1.351,1.354c-.057,1.265-.057,2.547,0,3.812a1.431,1.431,0,0,0,1.351,1.354c.93.045,1.873.045,2.8,0a1.431,1.431,0,0,0,1.351-1.354c.057-1.265.057-2.547,0-3.812a1.431,1.431,0,0,0-1.351-1.354c-.465-.022-.934-.033-1.4-.033Z" transform="translate(-50.673 -28.29)"/>
          </g>
        </g>
      </g>
    </g>
  </g>
</svg>
