<svg xmlns="http://www.w3.org/2000/svg" width="133" height="133" viewBox="0 0 133 133">
  <g id="Grupo_117555" data-name="Grupo 117555" transform="translate(7549.333 -231.773)">
    <g id="Grupo_117312" data-name="Grupo 117312" transform="translate(-2516.217 -4450.133)">
      <g id="Elipse_17556" data-name="Elipse 17556" transform="translate(-5033.117 4681.907)" fill="#fff" stroke="#6677d6" stroke-width="4">
        <circle cx="66.5" cy="66.5" r="66.5" stroke="none"/>
        <circle cx="66.5" cy="66.5" r="64.5" fill="none"/>
      </g>
      <g id="ambicion" transform="translate(-5006.772 4698.318)">
        <g id="Grupo_117070" data-name="Grupo 117070" transform="translate(0 0)">
          <g id="Grupo_117068" data-name="Grupo 117068" transform="translate(1.469 1.467)">
            <path id="Trazado_178574" data-name="Trazado 178574" d="M76.066,21.559a3.137,3.137,0,0,0-4.427-.277L52.121,38.394a6.274,6.274,0,0,1-4.151,1.57H41.041a6.138,6.138,0,0,0-3.405,1.031L26.548,48.386a12.553,12.553,0,0,0-4.508,5.347l-4.82,10.789a3.24,3.24,0,0,0,.952,3.939A3.135,3.135,0,0,0,22.893,67.2l4.881-10.926a6.271,6.271,0,0,1,2.252-2.671l8.537-5.692V63.49H54.247V50.548a12.548,12.548,0,0,1,4.246-9.409l17.3-15.152a3.137,3.137,0,0,0,.277-4.428Z" transform="translate(-16.923 -8.596)" fill="#f4aa73"/>
            <ellipse id="Elipse_16031" data-name="Elipse 16031" cx="4.705" cy="4.705" rx="4.705" ry="4.705" transform="translate(24.777 15.685)" fill="#f4aa73"/>
            <path id="Trazado_178575" data-name="Trazado 178575" d="M122.092,13.684l-3.767,1.98a.549.549,0,0,1-.8-.579l.719-4.194L115.2,7.921a.549.549,0,0,1,.3-.937l4.211-.612L121.6,2.556a.549.549,0,0,1,.985,0l1.883,3.816,4.211.612a.549.549,0,0,1,.3.937l-3.047,2.971.719,4.194a.549.549,0,0,1-.8.579Z" transform="translate(-51.046 -2.25)" fill="#fff56f"/>
            <path id="Trazado_178576" data-name="Trazado 178576" d="M59.5,45.775a6.274,6.274,0,0,1-4.151,1.57H48.415a6.138,6.138,0,0,0-3.405,1.031l-6.884,4.589,3.7,5.073L45.938,55.3V70.871H61.622V57.929a12.548,12.548,0,0,1,4.246-9.409l2.379-2.084L64.12,41.72Z" transform="translate(-24.297 -15.978)" fill="#a3ade6"/>
            <path id="Trazado_178577" data-name="Trazado 178577" d="M49.79,78.054V67.471a5.037,5.037,0,0,0-4.152-5.056,3.876,3.876,0,0,0-.553-.044V78.114L35.675,114.13,40.38,115.7l1.568-1.568,10.995-29.8v29.8l6.258,3.137,1.584-39.212H49.79Z" transform="translate(-23.445 -23.16)" fill="#6677d6"/>
            <g id="Grupo_117067" data-name="Grupo 117067" transform="translate(9.093 90.969)">
              <path id="Trazado_178578" data-name="Trazado 178578" d="M62.128,141.73h4.705a3.137,3.137,0,0,1,3.137,3.137v1.568A1.568,1.568,0,0,1,68.4,148H63.7a1.568,1.568,0,0,1-1.568-1.568Z" transform="translate(-41.738 -141.73)" fill="#412c01"/>
              <path id="Trazado_178579" data-name="Trazado 178579" d="M40.275,141.73H34a3.137,3.137,0,0,0-3.137,3.137v1.568A1.568,1.568,0,0,0,32.433,148h6.274a1.568,1.568,0,0,0,1.568-1.568Z" transform="translate(-30.865 -141.73)" fill="#412c01"/>
            </g>
          </g>
          <g id="Grupo_117069" data-name="Grupo 117069">
            <path id="Trazado_178580" data-name="Trazado 178580" d="M58.836,36.394a6.173,6.173,0,1,0-6.173-6.173A6.18,6.18,0,0,0,58.836,36.394Zm0-9.411A3.238,3.238,0,1,1,55.6,30.221,3.241,3.241,0,0,1,58.836,26.983Z" transform="translate(-27.885 -8.364)"/>
            <path id="Trazado_178581" data-name="Trazado 178581" d="M76.383,19.806a4.6,4.6,0,0,0-6.5-.41L62.1,26.22a1.467,1.467,0,1,0,1.935,2.207L71.825,21.6a1.67,1.67,0,0,1,2.214,2.5L60.227,36.2l-2.194-2.508,1.188-1.041a1.467,1.467,0,1,0-1.935-2.207l-6.918,6.066a4.8,4.8,0,0,1-3.18,1.2H40.257a7.605,7.605,0,0,0-4.219,1.277L24.951,46.383a14,14,0,0,0-5.034,5.969L15.1,63.144a4.7,4.7,0,0,0,1.435,5.725,4.6,4.6,0,0,0,6.919-1.848l4.882-10.928a4.8,4.8,0,0,1,1.725-2.046l6.256-4.171v12.7L27.2,97.468a4.612,4.612,0,0,0-3.431,4.452v3.137a1.467,1.467,0,0,0,1.467,1.467h9.411a1.467,1.467,0,0,0,1.467-1.467V98.783a1.467,1.467,0,0,0-1.467-1.467H30.269l8.66-33.141H51.947L50.506,97.32c-.059,0-.119,0-.179,0H47.105V68.983a1.467,1.467,0,0,0-2.844-.508L35.581,92a1.467,1.467,0,1,0,2.753,1.016L44.17,77.2l-.015,27.857a1.467,1.467,0,0,0,1.467,1.467h7.842a1.467,1.467,0,0,0,1.467-1.467V101.92a4.593,4.593,0,0,0-1.538-3.431l1.538-35.781V49.765a11.082,11.082,0,0,1,3.745-8.3L75.977,26.3a4.61,4.61,0,0,0,.406-6.5ZM33.176,100.251v3.339H26.7V101.92a1.671,1.671,0,0,1,1.667-1.669h4.809ZM28.429,51.6A7.726,7.726,0,0,0,25.651,54.9L20.769,65.826a1.668,1.668,0,0,1-2.522.662,1.782,1.782,0,0,1-.471-2.15L22.6,53.547a11.072,11.072,0,0,1,3.981-4.722L29.611,46.8l1.969,2.7ZM52,103.589H47.105v-3.339h3.222A1.671,1.671,0,0,1,52,101.92Zm4.742-64.333A14.021,14.021,0,0,0,52,49.765V61.24H39.247V47.134a1.467,1.467,0,0,0-2.282-1.221l-2.942,1.961-1.969-2.7,5.611-3.741a4.674,4.674,0,0,1,2.592-.785h6.929a7.733,7.733,0,0,0,5.118-1.934l3.52-3.087,2.194,2.507Z" transform="translate(-14.671 -6.346)"/>
            <path id="Trazado_178582" data-name="Trazado 178582" d="M129.735,6.122a2,2,0,0,0-1.628-1.372l-3.448-.5-1.542-3.124a2.017,2.017,0,0,0-3.617,0l-1.542,3.124-3.448.5a2.017,2.017,0,0,0-1.118,3.44l2.495,2.432-.589,3.434a2.017,2.017,0,0,0,2.926,2.126l3.084-1.621,3.084,1.621a2.017,2.017,0,0,0,2.926-2.126l-.589-3.434,2.495-2.432a2,2,0,0,0,.51-2.067Zm-5.606,2.936a1.467,1.467,0,0,0-.422,1.3l.4,2.36-2.12-1.114a1.468,1.468,0,0,0-1.366,0l-2.12,1.114.4-2.36a1.468,1.468,0,0,0-.422-1.3l-1.715-1.672,2.37-.344a1.467,1.467,0,0,0,1.1-.8l1.06-2.148,1.06,2.148a1.468,1.468,0,0,0,1.1.8l2.37.344Z" transform="translate(-48.794 0)"/>
          </g>
        </g>
      </g>
    </g>
  </g>
</svg>
