<svg xmlns="http://www.w3.org/2000/svg" width="135.093" height="138.879" viewBox="0 0 135.093 138.879">
  <g id="Grupo_117522" data-name="Grupo 117522" transform="translate(2800.868 1236.56)">
    <g id="Grupo_117521" data-name="Grupo 117521">
      <g id="_018-bombilla" data-name="018-bombilla" transform="translate(-2807.831 -1236.56)">
        <g id="Grupo_116390" data-name="Grupo 116390" transform="translate(6.963 0)">
          <path id="Trazado_178237" data-name="Trazado 178237" d="M232.735,460.583v3.466a8.3,8.3,0,0,1-.049.905,8.16,8.16,0,0,1-8.107,7.251H212.073a8.16,8.16,0,0,1-8.107-7.251,8.3,8.3,0,0,1-.049-.905v-3.466a8.658,8.658,0,0,0,3.534.748H229.2A8.658,8.658,0,0,0,232.735,460.583Z" transform="translate(-150.372 -335.366)" fill="#6677d6"/>
          <g id="Grupo_116389" data-name="Grupo 116389" transform="translate(0 0)">
            <path id="Trazado_178238" data-name="Trazado 178238" d="M249.956,17.824a2.039,2.039,0,0,1-2.039-2.039V2.039a2.039,2.039,0,1,1,4.078,0V15.785a2.039,2.039,0,0,1-2.039,2.039Z" transform="translate(-182.41 0)" fill="#ffe7c9"/>
            <path id="Trazado_178239" data-name="Trazado 178239" d="M89.3,84.372a2.033,2.033,0,0,1-1.442-.6l-9.72-9.721a2.039,2.039,0,0,1,2.884-2.884l9.72,9.721A2.039,2.039,0,0,1,89.3,84.372Z" transform="translate(-58.35 -51.387)" fill="#ffe7c9"/>
            <path id="Trazado_178240" data-name="Trazado 178240" d="M22.749,245.031H9a2.039,2.039,0,0,1,0-4.078H22.748a2.039,2.039,0,0,1,0,4.078Z" transform="translate(-6.963 -175.446)" fill="#ffe7c9"/>
            <path id="Trazado_178241" data-name="Trazado 178241" d="M79.575,389.378a2.039,2.039,0,0,1-1.442-3.481l9.72-9.72a2.039,2.039,0,0,1,2.884,2.884l-9.72,9.72A2.033,2.033,0,0,1,79.575,389.378Z" transform="translate(-58.35 -273.472)" fill="#ffe7c9"/>
            <path id="Trazado_178242" data-name="Trazado 178242" d="M394.3,389.378a2.034,2.034,0,0,1-1.442-.6l-9.72-9.72a2.039,2.039,0,0,1,2.884-2.884l9.72,9.72a2.039,2.039,0,0,1-1.442,3.481Z" transform="translate(-280.434 -273.472)" fill="#ffe7c9"/>
            <path id="Trazado_178243" data-name="Trazado 178243" d="M454.092,245.031H440.346a2.039,2.039,0,1,1,0-4.078h13.746a2.039,2.039,0,0,1,0,4.078Z" transform="translate(-321.039 -175.446)" fill="#ffe7c9"/>
            <path id="Trazado_178244" data-name="Trazado 178244" d="M384.58,84.372a2.039,2.039,0,0,1-1.442-3.481l9.72-9.721a2.039,2.039,0,0,1,2.884,2.884l-9.72,9.721A2.033,2.033,0,0,1,384.58,84.372Z" transform="translate(-280.434 -51.387)" fill="#ffe7c9"/>
          </g>
          <path id="Trazado_178245" data-name="Trazado 178245" d="M218.326,453.333S205,455.785,203.917,455.3v3.466a8.306,8.306,0,0,0,.049.905,8.16,8.16,0,0,0,8.107,7.251h3.534a8.161,8.161,0,0,1-7.688-5.427.819.819,0,0,1,.767-1.1H229.2a8.656,8.656,0,0,0,3.485-.726,8.3,8.3,0,0,0,.049-.905V455.3C231.656,455.785,218.326,453.333,218.326,453.333Z" transform="translate(-150.372 -330.087)" fill="#6677d6"/>
          <path id="Trazado_178246" data-name="Trazado 178246" d="M223.658,389.1a8.692,8.692,0,0,1-8.7,8.7H193.209a8.692,8.692,0,0,1-8.7-8.7s-.128-12.707-.152-13.039v-.011l19.727-2.719,19.5,2.719Z" transform="translate(-136.129 -271.836)" fill="#6677d6"/>
          <path id="Trazado_178247" data-name="Trazado 178247" d="M200.006,405.082h-6.8a8.692,8.692,0,0,1-8.7-8.7s-.128-12.707-.152-13.039v-.011h6.8v.011c.024.332.152,13.039.152,13.039a8.692,8.692,0,0,0,8.7,8.7Z" transform="translate(-136.129 -279.117)" fill="#6677d6"/>
          <path id="Trazado_178248" data-name="Trazado 178248" d="M304.889,419.911h-6.933a2.039,2.039,0,0,1,0-4.078h6.911l.011,2.039Z" transform="translate(-217.36 -302.782)" fill="#838cfc"/>
          <path id="Trazado_178249" data-name="Trazado 178249" d="M209.526,417.872a2.04,2.04,0,0,1-2.039,2.039h-22.7l-.046-4.078h22.75A2.04,2.04,0,0,1,209.526,417.872Z" transform="translate(-136.406 -302.782)" fill="#838cfc"/>
          <path id="Trazado_178250" data-name="Trazado 178250" d="M153.017,90.49h0c-21-.323-38.654,17.977-38.276,38.821a39,39,0,0,0,11.035,27.282c4.021,4.135,7.5,7.958,7.887,13.509l39.228.065c.22-5.715,3.469-9.575,7.517-13.8a38.993,38.993,0,0,0,10.815-27.053c0-21.429-17.1-38.8-38.205-38.82Z" transform="translate(-85.435 -65.885)" fill="#ffef0f"/>
          <path id="Trazado_178251" data-name="Trazado 178251" d="M172.89,170.157v.011l-39.228-.065c-.386-5.552-3.866-9.374-7.887-13.509a39,39,0,0,1-11.035-27.282c-.378-20.844,17.28-39.143,38.276-38.82,1.06,0,2.11.046,3.148.131-19.351,1.7-34.984,19.066-34.628,38.689a39,39,0,0,0,11.035,27.282c4.021,4.135,7.5,7.958,7.887,13.509Z" transform="translate(-85.435 -65.887)" fill="#ffef0f"/>
          <path id="Trazado_178252" data-name="Trazado 178252" d="M203.223,223.49a4.484,4.484,0,0,1-3.376,1.732q-.084,0-.168,0a4.486,4.486,0,0,1-3.328-1.478l-12.778-14.137a4.486,4.486,0,0,1,6.656-6.016l9.189,10.166,14.661-18.881a4.486,4.486,0,1,1,7.086,5.5Z" transform="translate(-134.716 -140.634)" fill="#ffef0f"/>
        </g>
        <g id="Grupo_116391" data-name="Grupo 116391" transform="translate(6.963 0)">
          <path id="Trazado_178253" data-name="Trazado 178253" d="M249.956,17.824a2.039,2.039,0,0,0,2.039-2.039V2.039a2.039,2.039,0,1,0-4.078,0V15.785A2.039,2.039,0,0,0,249.956,17.824Z" transform="translate(-182.41 0)"/>
          <path id="Trazado_178254" data-name="Trazado 178254" d="M87.854,83.775a2.039,2.039,0,0,0,2.884-2.884l-9.72-9.721a2.039,2.039,0,0,0-2.884,2.884Z" transform="translate(-58.35 -51.387)"/>
          <path id="Trazado_178255" data-name="Trazado 178255" d="M22.749,240.953H9a2.039,2.039,0,0,0,0,4.078H22.748a2.039,2.039,0,0,0,0-4.078Z" transform="translate(-6.963 -175.446)"/>
          <path id="Trazado_178256" data-name="Trazado 178256" d="M87.854,376.177l-9.72,9.72a2.039,2.039,0,1,0,2.884,2.884l9.72-9.72a2.039,2.039,0,0,0-2.884-2.884Z" transform="translate(-58.35 -273.472)"/>
          <path id="Trazado_178257" data-name="Trazado 178257" d="M386.023,376.176a2.039,2.039,0,1,0-2.884,2.884l9.72,9.72a2.039,2.039,0,1,0,2.884-2.884Z" transform="translate(-280.435 -273.471)"/>
          <path id="Trazado_178258" data-name="Trazado 178258" d="M454.092,240.953H440.346a2.039,2.039,0,1,0,0,4.078h13.746a2.039,2.039,0,0,0,0-4.078Z" transform="translate(-321.039 -175.446)"/>
          <path id="Trazado_178259" data-name="Trazado 178259" d="M392.86,71.171l-9.72,9.721a2.039,2.039,0,0,0,2.884,2.884l9.72-9.721a2.039,2.039,0,1,0-2.884-2.884Z" transform="translate(-280.435 -51.387)"/>
          <path id="Trazado_178260" data-name="Trazado 178260" d="M187.816,123.86c0-22.53-18.07-40.86-40.28-40.86A39.725,39.725,0,0,0,125.7,89.52,40.772,40.772,0,0,0,111.106,106.4a2.039,2.039,0,1,0,3.7,1.724,36.349,36.349,0,0,1,32.734-21.05c19.962,0,36.2,16.5,36.2,36.782a36.894,36.894,0,0,1-10.25,25.644c-3.81,3.979-7.053,7.781-7.887,13.108H130c-1.051-5.53-4.823-9.41-8.213-12.893a36.863,36.863,0,0,1-10.457-25.859,37.673,37.673,0,0,1,.684-7.153,2.039,2.039,0,1,0-4-.776,41.736,41.736,0,0,0-.759,7.93,40.919,40.919,0,0,0,11.612,28.7c4.3,4.419,7.345,7.947,7.345,13.118,0,.018,0,.036,0,.054l.117,11.966a10.743,10.743,0,0,0,5.165,9.176v2.242a10.206,10.206,0,0,0,10.2,10.2H154.2a10.206,10.206,0,0,0,10.2-10.2v-2.242a10.743,10.743,0,0,0,5.165-9.176s-.014-13.329-.042-13.461c.387-4.726,3.251-8.085,6.918-11.915a40.956,40.956,0,0,0,11.382-28.464Zm-27.5,65.259a6.124,6.124,0,0,1-6.117,6.117H141.69a6.124,6.124,0,0,1-6.117-6.117v-.786a10.767,10.767,0,0,0,1.5.106h21.749a10.809,10.809,0,0,0,1.5-.106Zm-1.5-4.758H137.068a6.668,6.668,0,0,1-6.661-6.661v-.136H151.07a2.039,2.039,0,0,0,0-4.078H130.408v-6.8h35.008l.063,6.8h-4.894a2.039,2.039,0,0,0,0,4.078h4.894v.136A6.668,6.668,0,0,1,158.818,184.361Z" transform="translate(-79.989 -60.435)"/>
          <path id="Trazado_178261" data-name="Trazado 178261" d="M210.057,198.863a2.039,2.039,0,0,0,3.221,2.5l4.037-5.2a6.525,6.525,0,0,0-10.307-8l-13.169,16.96-7.558-8.362a6.525,6.525,0,0,0-9.681,8.751l12.778,14.137a6.566,6.566,0,0,0,9.994-.374l8.07-10.393a2.039,2.039,0,0,0-3.221-2.5l-8.07,10.393a2.462,2.462,0,0,1-3.748.14l-12.778-14.137a2.447,2.447,0,0,1,3.631-3.281l9.189,10.167a2.054,2.054,0,0,0,3.123-.117l14.661-18.881a2.447,2.447,0,1,1,3.865,3Z" transform="translate(-129.254 -135.168)"/>
        </g>
      </g>
    </g>
  </g>
</svg>
