<svg xmlns="http://www.w3.org/2000/svg" width="133" height="133" viewBox="0 0 133 133">
  <g id="Grupo_117552" data-name="Grupo 117552" transform="translate(8222.834 -231.773)">
    <g id="Grupo_117309" data-name="Grupo 117309" transform="translate(-3189.717 -3841)">
      <g id="Elipse_17553" data-name="Elipse 17553" transform="translate(-5033.117 4072.773)" fill="#fff" stroke="#6677d6" stroke-width="4">
        <circle cx="66.5" cy="66.5" r="66.5" stroke="none"/>
        <circle cx="66.5" cy="66.5" r="64.5" fill="none"/>
      </g>
      <g id="gestion-del-tiempo" transform="translate(-5016.341 4089.185)">
        <g id="Grupo_117094" data-name="Grupo 117094" transform="translate(0 0)">
          <path id="Trazado_178669" data-name="Trazado 178669" d="M97.853,45.845l-6.607-1.139a1.967,1.967,0,0,1-1.6-1.549,39.251,39.251,0,0,0-1.335-5,1.967,1.967,0,0,1,.611-2.14l5.149-4.288a1.976,1.976,0,0,0,.447-2.507L91.44,23.894a1.976,1.976,0,0,0-2.395-.866l-6.3,2.319a1.968,1.968,0,0,1-2.159-.54,39.754,39.754,0,0,0-3.654-3.654,1.967,1.967,0,0,1-.54-2.159l2.319-6.3a1.976,1.976,0,0,0-.866-2.395L72.516,7.225a1.977,1.977,0,0,0-2.507.447l-4.288,5.149a1.968,1.968,0,0,1-2.14.611,39.219,39.219,0,0,0-5-1.335,1.967,1.967,0,0,1-1.549-1.6L55.9,3.89A1.976,1.976,0,0,0,53.95,2.25H47.793A1.977,1.977,0,0,0,45.845,3.89L44.706,10.5a1.967,1.967,0,0,1-1.549,1.6,39.251,39.251,0,0,0-5,1.335,1.967,1.967,0,0,1-2.14-.611L31.734,7.672a1.976,1.976,0,0,0-2.507-.447L23.895,10.3a1.976,1.976,0,0,0-.866,2.395l2.319,6.3a1.968,1.968,0,0,1-.54,2.159,39.755,39.755,0,0,0-3.654,3.654,1.967,1.967,0,0,1-2.159.54l-6.3-2.319a1.976,1.976,0,0,0-2.395.866L7.225,29.227a1.977,1.977,0,0,0,.447,2.507l5.149,4.288a1.968,1.968,0,0,1,.611,2.14,39.219,39.219,0,0,0-1.335,5,1.967,1.967,0,0,1-1.6,1.549L3.891,45.845A1.976,1.976,0,0,0,2.25,47.793V53.95A1.977,1.977,0,0,0,3.891,55.9L10.5,57.037a1.967,1.967,0,0,1,1.6,1.549,39.251,39.251,0,0,0,1.335,5,1.967,1.967,0,0,1-.611,2.14l-5.15,4.288a1.977,1.977,0,0,0-.447,2.507L10.3,77.849a1.976,1.976,0,0,0,2.395.866l6.3-2.319a1.968,1.968,0,0,1,2.159.54,39.755,39.755,0,0,0,3.654,3.654,1.967,1.967,0,0,1,.54,2.159l-2.319,6.3a1.976,1.976,0,0,0,.866,2.395l5.333,3.079a1.977,1.977,0,0,0,2.507-.447l4.288-5.149a1.968,1.968,0,0,1,2.14-.611,39.22,39.22,0,0,0,5,1.335,1.967,1.967,0,0,1,1.549,1.6l1.139,6.607a1.976,1.976,0,0,0,1.948,1.641H53.95A1.977,1.977,0,0,0,55.9,97.852l1.139-6.607a1.967,1.967,0,0,1,1.549-1.6,39.252,39.252,0,0,0,5-1.335,1.967,1.967,0,0,1,2.14.611l4.288,5.149a1.977,1.977,0,0,0,2.507.447l5.333-3.079a1.976,1.976,0,0,0,.866-2.395l-2.319-6.3a1.968,1.968,0,0,1,.54-2.159,39.756,39.756,0,0,0,3.654-3.654,1.967,1.967,0,0,1,2.159-.54l6.3,2.319a1.976,1.976,0,0,0,2.395-.866l3.079-5.333a1.977,1.977,0,0,0-.447-2.507l-5.149-4.288a1.968,1.968,0,0,1-.611-2.14,39.215,39.215,0,0,0,1.335-5,1.967,1.967,0,0,1,1.6-1.549L97.853,55.9a1.976,1.976,0,0,0,1.641-1.948V47.793a1.977,1.977,0,0,0-1.641-1.948ZM50.872,82.5A31.624,31.624,0,1,1,82.5,50.871,31.624,31.624,0,0,1,50.872,82.5Z" transform="translate(-0.783 -0.782)" fill="#4e2e8e"/>
          <path id="Trazado_178670" data-name="Trazado 178670" d="M108.868,56.86l-6.607-1.139a1.967,1.967,0,0,1-1.6-1.549,39.251,39.251,0,0,0-1.335-5,1.967,1.967,0,0,1,.611-2.14l5.149-4.288a1.976,1.976,0,0,0,.447-2.507l-3.079-5.333a1.976,1.976,0,0,0-2.395-.866l-5.425,2a50.476,50.476,0,0,1-1.21,23.517q.084,1.154.086,2.329A31.624,31.624,0,0,1,61.887,93.51q-1.175,0-2.329-.086a50.476,50.476,0,0,1-23.517,1.21l-2,5.425a1.976,1.976,0,0,0,.866,2.395l5.333,3.079a1.977,1.977,0,0,0,2.507-.447l4.288-5.149a1.968,1.968,0,0,1,2.14-.611,39.219,39.219,0,0,0,5,1.335,1.967,1.967,0,0,1,1.549,1.6l1.139,6.607a1.976,1.976,0,0,0,1.948,1.641h6.157a1.977,1.977,0,0,0,1.948-1.641l1.139-6.607a1.967,1.967,0,0,1,1.549-1.6,39.252,39.252,0,0,0,5-1.335,1.967,1.967,0,0,1,2.14.611l4.288,5.149a1.977,1.977,0,0,0,2.507.447l5.333-3.079a1.976,1.976,0,0,0,.866-2.395l-2.319-6.3a1.968,1.968,0,0,1,.54-2.159,39.754,39.754,0,0,0,3.654-3.654,1.967,1.967,0,0,1,2.159-.54l6.3,2.319a1.976,1.976,0,0,0,2.395-.866l3.079-5.333a1.977,1.977,0,0,0-.447-2.507l-5.149-4.288a1.968,1.968,0,0,1-.611-2.14,39.219,39.219,0,0,0,1.335-5,1.967,1.967,0,0,1,1.6-1.549l6.607-1.139a1.976,1.976,0,0,0,1.641-1.948V58.808a1.977,1.977,0,0,0-1.641-1.948Z" transform="translate(-11.798 -11.798)" fill="#4e2e8e"/>
          <ellipse id="Elipse_16039" data-name="Elipse 16039" cx="25.299" cy="25.299" rx="25.299" ry="25.299" transform="translate(24.79 24.79)" fill="#c6412a"/>
          <path id="Trazado_178671" data-name="Trazado 178671" d="M79.206,44.222A25.3,25.3,0,0,1,44.222,79.206,25.3,25.3,0,1,0,79.206,44.222Z" transform="translate(-15.381 -15.381)" fill="#c6412a"/>
          <ellipse id="Elipse_16040" data-name="Elipse 16040" cx="19.37" cy="19.37" rx="19.37" ry="19.37" transform="translate(30.719 30.719)" fill="#a3ade6"/>
          <path id="Trazado_178672" data-name="Trazado 178672" d="M79.14,52.232A19.371,19.371,0,0,1,52.232,79.14,19.37,19.37,0,1,0,79.14,52.232Z" transform="translate(-18.166 -18.166)" fill="#a3ade6"/>
          <ellipse id="Elipse_16041" data-name="Elipse 16041" cx="2.965" cy="2.965" rx="2.965" ry="2.965" transform="translate(47.124 47.124)" fill="#3c87d0"/>
          <g id="Grupo_117093" data-name="Grupo 117093">
            <path id="Trazado_178673" data-name="Trazado 178673" d="M59.153,26.061a32.771,32.771,0,0,0-20.174,6.86,1.467,1.467,0,0,0,1.791,2.325A29.861,29.861,0,0,1,59.153,29,30.157,30.157,0,1,1,36.061,39.757a1.467,1.467,0,1,0-2.246-1.889A33.092,33.092,0,1,0,59.153,26.061Z" transform="translate(-9.064 -9.064)"/>
            <path id="Trazado_178674" data-name="Trazado 178674" d="M97.319,43.616l-6.607-1.139a.5.5,0,0,1-.41-.387,40.863,40.863,0,0,0-1.385-5.182.5.5,0,0,1,.16-.541l5.15-4.288a3.436,3.436,0,0,0,.779-4.369l-3.079-5.333a3.437,3.437,0,0,0-4.173-1.51l-6.3,2.319a.5.5,0,0,1-.548-.131,41.412,41.412,0,0,0-3.789-3.789.5.5,0,0,1-.131-.548l2.319-6.3A3.437,3.437,0,0,0,77.8,8.25L72.467,5.171A3.436,3.436,0,0,0,68.1,5.95L63.811,11.1a.5.5,0,0,1-.541.161,40.864,40.864,0,0,0-5.182-1.385.5.5,0,0,1-.387-.41L56.561,2.859A3.436,3.436,0,0,0,53.168,0H47.01a3.436,3.436,0,0,0-3.394,2.859L42.477,9.465a.5.5,0,0,1-.387.41,40.855,40.855,0,0,0-5.182,1.385.5.5,0,0,1-.541-.16L32.079,5.95a3.436,3.436,0,0,0-4.369-.779L22.378,8.25a3.437,3.437,0,0,0-1.51,4.173l2.319,6.3a.5.5,0,0,1-.131.548,41.413,41.413,0,0,0-3.789,3.789.5.5,0,0,1-.548.131l-6.3-2.319a3.436,3.436,0,0,0-4.173,1.51L5.171,27.711a3.436,3.436,0,0,0,.779,4.369L11.1,36.367a.5.5,0,0,1,.161.541A40.854,40.854,0,0,0,9.875,42.09a.5.5,0,0,1-.41.387L2.859,43.617A3.436,3.436,0,0,0,0,47.01v6.157a3.436,3.436,0,0,0,2.859,3.394L9.465,57.7a.5.5,0,0,1,.41.387A40.842,40.842,0,0,0,11.26,63.27a.5.5,0,0,1-.16.541L5.95,68.1a3.436,3.436,0,0,0-.779,4.368L8.25,77.8a3.437,3.437,0,0,0,4.173,1.51l6.3-2.319a.5.5,0,0,1,.548.131,41.413,41.413,0,0,0,3.789,3.789.5.5,0,0,1,.131.548l-2.319,6.3a3.437,3.437,0,0,0,1.51,4.173l5.332,3.079a3.437,3.437,0,0,0,4.369-.779l4.288-5.149a.5.5,0,0,1,.541-.161A40.847,40.847,0,0,0,42.09,90.3a.5.5,0,0,1,.387.41l1.139,6.606a3.436,3.436,0,0,0,3.394,2.859h6.157a3.436,3.436,0,0,0,3.394-2.859L57.7,90.712a.5.5,0,0,1,.387-.41,40.86,40.86,0,0,0,5.182-1.385.5.5,0,0,1,.541.16L68.1,94.227a3.436,3.436,0,0,0,4.368.779L77.8,91.928a3.437,3.437,0,0,0,1.51-4.173l-2.319-6.3a.5.5,0,0,1,.131-.548,41.415,41.415,0,0,0,3.789-3.789.5.5,0,0,1,.548-.131l6.3,2.319a3.436,3.436,0,0,0,4.173-1.51l3.079-5.332a3.437,3.437,0,0,0-.779-4.369L89.079,63.81a.5.5,0,0,1-.161-.541A40.846,40.846,0,0,0,90.3,58.087a.5.5,0,0,1,.41-.387l6.606-1.139a3.436,3.436,0,0,0,2.859-3.394V47.009a3.437,3.437,0,0,0-2.859-3.393Zm-.076,9.551a.508.508,0,0,1-.423.5l-6.607,1.139a3.453,3.453,0,0,0-2.79,2.71,37.94,37.94,0,0,1-1.285,4.808,3.454,3.454,0,0,0,1.062,3.74l5.15,4.288a.508.508,0,0,1,.115.646l-3.079,5.332a.507.507,0,0,1-.617.223l-6.3-2.319a3.454,3.454,0,0,0-3.769.949A38.441,38.441,0,0,1,75.185,78.7a3.454,3.454,0,0,0-.949,3.768l2.319,6.3a.508.508,0,0,1-.223.617L71,92.465a.508.508,0,0,1-.645-.115L66.066,87.2a3.454,3.454,0,0,0-3.739-1.062,37.868,37.868,0,0,1-4.809,1.285,3.453,3.453,0,0,0-2.71,2.79l-1.139,6.607a.508.508,0,0,1-.5.422H47.01a.508.508,0,0,1-.5-.423L45.37,90.214a3.453,3.453,0,0,0-2.71-2.79,37.932,37.932,0,0,1-4.808-1.285,3.369,3.369,0,0,0-1.084-.178,3.466,3.466,0,0,0-2.655,1.24l-4.288,5.15a.507.507,0,0,1-.645.115l-5.332-3.079a.508.508,0,0,1-.223-.617l2.319-6.3a3.454,3.454,0,0,0-.949-3.769,38.441,38.441,0,0,1-3.519-3.519,3.454,3.454,0,0,0-3.768-.949l-6.3,2.319a.508.508,0,0,1-.617-.223L7.713,71a.508.508,0,0,1,.115-.645l5.15-4.288a3.454,3.454,0,0,0,1.062-3.739,37.861,37.861,0,0,1-1.285-4.809,3.453,3.453,0,0,0-2.79-2.71L3.357,53.669a.508.508,0,0,1-.422-.5V47.01a.508.508,0,0,1,.423-.5L9.964,45.37a3.453,3.453,0,0,0,2.79-2.71,37.941,37.941,0,0,1,1.285-4.808,3.454,3.454,0,0,0-1.062-3.74l-5.15-4.288a.508.508,0,0,1-.115-.645l3.079-5.332a.508.508,0,0,1,.617-.223l6.3,2.319a3.454,3.454,0,0,0,3.769-.949,38.441,38.441,0,0,1,3.519-3.519,3.454,3.454,0,0,0,.949-3.768l-2.319-6.3a.508.508,0,0,1,.223-.617l5.333-3.079a.507.507,0,0,1,.645.115l4.288,5.15a3.453,3.453,0,0,0,3.739,1.062,37.942,37.942,0,0,1,4.809-1.285,3.453,3.453,0,0,0,2.71-2.79l1.139-6.607a.508.508,0,0,1,.5-.422h6.157a.508.508,0,0,1,.5.423l1.139,6.607a3.453,3.453,0,0,0,2.71,2.79,37.916,37.916,0,0,1,4.808,1.285,3.453,3.453,0,0,0,3.74-1.062l4.288-5.15A.508.508,0,0,1,71,7.713l5.332,3.079a.508.508,0,0,1,.223.617l-2.319,6.3a3.454,3.454,0,0,0,.949,3.769A38.44,38.44,0,0,1,78.7,24.993a3.455,3.455,0,0,0,3.768.949l6.3-2.319a.508.508,0,0,1,.617.223l3.079,5.333a.508.508,0,0,1-.115.645L87.2,34.112a3.453,3.453,0,0,0-1.062,3.739,37.919,37.919,0,0,1,1.285,4.809,3.453,3.453,0,0,0,2.79,2.71l6.607,1.139h0a.508.508,0,0,1,.422.5Z" transform="translate(0 0)"/>
            <path id="Trazado_178675" data-name="Trazado 178675" d="M78.726,41.218a26.521,26.521,0,0,0-16.2-5.458A26.766,26.766,0,1,0,89.293,62.526a26.521,26.521,0,0,0-5.458-16.2A1.467,1.467,0,0,0,81.5,48.1a23.61,23.61,0,0,1,4.858,14.421A23.831,23.831,0,1,1,62.526,38.695a23.61,23.61,0,0,1,14.421,4.858,1.467,1.467,0,0,0,1.778-2.335Z" transform="translate(-12.437 -12.437)"/>
            <path id="Trazado_178676" data-name="Trazado 178676" d="M53.414,80.743a1.467,1.467,0,0,0,.363,2.043A20.836,20.836,0,1,0,48.589,77.6,1.467,1.467,0,0,0,51,75.918a17.9,17.9,0,1,1,4.462,4.462A1.467,1.467,0,0,0,53.414,80.743Z" transform="translate(-15.599 -15.599)"/>
            <path id="Trazado_178677" data-name="Trazado 178677" d="M70.958,53.943a1.467,1.467,0,0,0-1.467,1.467v9.259a4.453,4.453,0,0,0-2.714,2.714H61.471a1.467,1.467,0,0,0,0,2.935h5.306a4.432,4.432,0,1,0,5.649-5.649V55.41a1.467,1.467,0,0,0-1.467-1.467Zm0,16.4a1.5,1.5,0,1,1,1.5-1.5A1.5,1.5,0,0,1,70.958,70.347Z" transform="translate(-20.869 -18.761)"/>
          </g>
        </g>
      </g>
    </g>
  </g>
</svg>
