<svg xmlns="http://www.w3.org/2000/svg" width="80.745" height="80.682" viewBox="0 0 80.745 80.682">
  <g id="Grupo_117508" data-name="Grupo 117508" transform="translate(2401.548 3658.234)">
    <g id="investigacion-de-mercado" transform="translate(-2401.548 -3658.234)">
      <g id="Grupo_116363" data-name="Grupo 116363" transform="translate(0 0)">
        <g id="Grupo_116361" data-name="Grupo 116361" transform="translate(1.183 1.182)">
          <path id="Trazado_178150" data-name="Trazado 178150" d="M76.466,146.984H2.95a.7.7,0,0,1-.7-.7v-3.369a.7.7,0,0,1,.7-.7H76.466a.7.7,0,0,1,.7.7v3.369A.7.7,0,0,1,76.466,146.984Z" transform="translate(-2.25 -68.667)"/>
          <path id="Trazado_178151" data-name="Trazado 178151" d="M141.262,142.914v3.37a.7.7,0,0,1-.7.7h-3.175a.7.7,0,0,0,.7-.7v-3.37a.7.7,0,0,0-.7-.7h3.175A.7.7,0,0,1,141.262,142.914Z" transform="translate(-66.346 -68.667)"/>
          <path id="Trazado_178152" data-name="Trazado 178152" d="M23.548,115.854H16.331V87.763A1.062,1.062,0,0,1,17.393,86.7h5.093a1.062,1.062,0,0,1,1.062,1.062Z" transform="translate(-8.929 -42.337)" fill="#ffef0f"/>
          <path id="Trazado_178153" data-name="Trazado 178153" d="M48.781,75.827H41.563V3.372A1.062,1.062,0,0,1,42.625,2.31h5.093a1.062,1.062,0,0,1,1.062,1.062Z" transform="translate(-20.897 -2.31)" fill="#4e2e8e"/>
          <path id="Trazado_178154" data-name="Trazado 178154" d="M74.013,117.466H66.8v-26.3A1.062,1.062,0,0,1,67.857,90.1H72.95a1.062,1.062,0,0,1,1.062,1.062Z" transform="translate(-32.864 -43.949)" fill="#a3ade6"/>
          <path id="Trazado_178155" data-name="Trazado 178155" d="M99.245,101.174H92.028V56.812A1.062,1.062,0,0,1,93.09,55.75h5.093a1.062,1.062,0,0,1,1.062,1.062Z" transform="translate(-44.832 -27.657)" fill="#c6412a"/>
          <path id="Trazado_178156" data-name="Trazado 178156" d="M124.477,129.812H117.26V117.191a1.062,1.062,0,0,1,1.062-1.062h5.093a1.062,1.062,0,0,1,1.062,1.062Z" transform="translate(-56.8 -56.295)" fill="#fff56f"/>
          <path id="Trazado_178157" data-name="Trazado 178157" d="M26.251,87.762v28.091H23.092V87.762A1.062,1.062,0,0,0,22.031,86.7H25.19A1.062,1.062,0,0,1,26.251,87.762Z" transform="translate(-11.632 -42.336)" fill="#ffef0f"/>
          <path id="Trazado_178158" data-name="Trazado 178158" d="M51.484,3.372V75.826H48.325V3.372a1.062,1.062,0,0,0-1.061-1.063h3.159a1.062,1.062,0,0,1,1.061,1.063Z" transform="translate(-23.6 -2.309)" fill="#4e2e8e"/>
          <path id="Trazado_178159" data-name="Trazado 178159" d="M76.716,91.162v26.3H73.557v-26.3A1.062,1.062,0,0,0,72.494,90.1h3.159a1.062,1.062,0,0,1,1.063,1.061Z" transform="translate(-35.567 -43.95)" fill="#a3ade6"/>
          <path id="Trazado_178160" data-name="Trazado 178160" d="M101.949,56.812v44.362H98.79V56.812a1.062,1.062,0,0,0-1.063-1.061h3.159a1.062,1.062,0,0,1,1.063,1.061Z" transform="translate(-47.535 -27.657)" fill="#c6412a"/>
          <path id="Trazado_178161" data-name="Trazado 178161" d="M127.18,117.19v12.621h-3.159V117.19a1.061,1.061,0,0,0-1.061-1.061h3.159A1.061,1.061,0,0,1,127.18,117.19Z" transform="translate(-59.504 -56.295)" fill="#fff56f"/>
          <path id="Trazado_178162" data-name="Trazado 178162" d="M134.057,94.243a3.425,3.425,0,0,1-4.847,0L117.252,82.272a.848.848,0,0,1,0-1.2l3.651-3.655a.846.846,0,0,1,1.2,0L134.057,89.39A3.434,3.434,0,0,1,134.057,94.243Z" transform="translate(-56.679 -37.817)" fill="#e19974"/>
          <path id="Trazado_178163" data-name="Trazado 178163" d="M135.514,94.242a3.4,3.4,0,0,1-1.46.867,3.436,3.436,0,0,0-.867-3.392L121.228,79.746a.847.847,0,0,0-1.151-.043l2.284-2.285a.843.843,0,0,1,1.2,0L135.514,89.39A3.433,3.433,0,0,1,135.514,94.242Z" transform="translate(-58.136 -37.816)" fill="#dc8758"/>
          <ellipse id="Elipse_15997" data-name="Elipse 15997" cx="15.245" cy="15.263" rx="15.245" ry="15.263" transform="translate(32.409 11.406)" fill="#b6c4cf"/>
          <path id="Trazado_178164" data-name="Trazado 178164" d="M104.564,39.288A15.253,15.253,0,0,1,85.349,54.027c.268.014.538.022.811.022a15.266,15.266,0,0,0,3.968-30A15.254,15.254,0,0,1,104.564,39.288Z" transform="translate(-41.664 -12.62)" fill="#9facba"/>
          <ellipse id="Elipse_15998" data-name="Elipse 15998" cx="9.972" cy="9.983" rx="9.972" ry="9.983" transform="translate(37.683 16.686)" fill="#fff"/>
          <path id="Trazado_178165" data-name="Trazado 178165" d="M99.238,44.062a9.974,9.974,0,0,1-14,9.134c.27.022.541.033.815.033A9.986,9.986,0,0,0,90.08,34.112,9.979,9.979,0,0,1,99.238,44.062Z" transform="translate(-41.612 -17.394)" fill="#c4e2ff"/>
        </g>
        <g id="Grupo_116362" data-name="Grupo 116362">
          <path id="Trazado_178166" data-name="Trazado 178166" d="M82.836,31.8A11.166,11.166,0,1,0,93.991,42.965,11.173,11.173,0,0,0,82.836,31.8Zm0,19.966a8.8,8.8,0,1,1,8.789-8.8A8.8,8.8,0,0,1,82.836,51.765Z" transform="translate(-33.999 -15.114)"/>
          <path id="Trazado_178167" data-name="Trazado 178167" d="M60.919,46.533,72.877,58.5A4.612,4.612,0,0,0,79.4,51.98L67.44,40.009a2.028,2.028,0,0,0-2.87,0l-.989.99-2.328-2.331A16.459,16.459,0,0,0,64.109,21.84a1.183,1.183,0,0,0-2.2.873,14.083,14.083,0,1,1-2.676-4.282,1.183,1.183,0,1,0,1.75-1.592A16.437,16.437,0,1,0,47.2,44.275V73.607H43.514V48.456a2.247,2.247,0,0,0-2.245-2.245H36.176a2.247,2.247,0,0,0-2.245,2.245V73.607H30.25V2.305A2.247,2.247,0,0,0,28,.06H22.912a2.248,2.248,0,0,0-2.245,2.245v71.3H16.985V59.369a1.183,1.183,0,0,0-2.366,0V73.577H9.768V46.789H14.62v7.195a1.183,1.183,0,0,0,2.366,0V46.668a2.247,2.247,0,0,0-2.245-2.245H9.647A2.247,2.247,0,0,0,7.4,46.668V73.607H1.883A1.885,1.885,0,0,0,0,75.49v3.369a1.885,1.885,0,0,0,1.883,1.883H75.4a1.885,1.885,0,0,0,1.883-1.883V75.49A1.885,1.885,0,0,0,75.4,73.607H70.043V62.139A2.247,2.247,0,0,0,67.8,59.894H62.705a2.247,2.247,0,0,0-2.245,2.245V73.607H56.779V42.3a16.5,16.5,0,0,0,2.8-1.963l2.328,2.331-.991.992a2.033,2.033,0,0,0,0,2.869ZM49.561,44.34a16.314,16.314,0,0,0,4.852-.959v30.2H49.561ZM36.3,48.576h4.852v25H36.3ZM23.032,2.426h4.852V73.577H23.032ZM62.825,62.259h4.852V73.577H62.825ZM74.916,75.973v2.4H2.366v-2.4ZM66.005,41.919,77.724,53.652a2.254,2.254,0,0,1,0,3.181h0a2.242,2.242,0,0,1-3.174,0L62.83,45.1Z" transform="translate(0 -0.06)"/>
        </g>
      </g>
    </g>
  </g>
</svg>
