<svg xmlns="http://www.w3.org/2000/svg" width="133" height="133" viewBox="0 0 133 133">
  <g id="Grupo_117556" data-name="Grupo 117556" transform="translate(7290.253 -249.164)">
    <g id="Grupo_117313" data-name="Grupo 117313" transform="translate(-2257.136 -4635.547)">
      <g id="Elipse_17557" data-name="Elipse 17557" transform="translate(-5033.117 4884.711)" fill="#fff" stroke="#6677d6" stroke-width="4">
        <circle cx="66.5" cy="66.5" r="66.5" stroke="none"/>
        <circle cx="66.5" cy="66.5" r="64.5" fill="none"/>
      </g>
      <g id="senal-de-electricidad" transform="translate(-5016.7 4902.646)">
        <g id="Grupo_117102" data-name="Grupo 117102" transform="translate(0 0)">
          <path id="Trazado_178711" data-name="Trazado 178711" d="M95.154,94.234H6.572a4.332,4.332,0,0,1-3.589-6.747L47.274,21.408a4.318,4.318,0,0,1,7.177,0L98.743,87.487A4.332,4.332,0,0,1,95.154,94.234Z" transform="translate(-0.78 -18.024)" fill="#4e2e8e"/>
          <path id="Trazado_178712" data-name="Trazado 178712" d="M123.106,87.487,78.815,21.409a4.32,4.32,0,0,0-6.524-.766,4.384,4.384,0,0,1,.654.766l44.291,66.079a4.332,4.332,0,0,1-3.589,6.747h5.87A4.332,4.332,0,0,0,123.106,87.487Z" transform="translate(-25.143 -18.025)" fill="#a3ade6"/>
          <path id="Trazado_178713" data-name="Trazado 178713" d="M14.187,91.5,54.5,31.351a.58.58,0,0,1,.964,0L95.779,91.5a.58.58,0,0,1-.482.9H14.67a.58.58,0,0,1-.482-.9Z" transform="translate(-4.9 -22.059)" fill="#ffef0f"/>
          <path id="Trazado_178714" data-name="Trazado 178714" d="M78.812,63.343,63.655,77.251a.2.2,0,0,0,.022.307l5.647,3.818a.2.2,0,0,1,.076.223L65.277,94.34a.193.193,0,0,0,.312.205L80.746,80.638a.2.2,0,0,0-.022-.307l-5.647-3.819A.2.2,0,0,1,75,76.29l4.123-12.742a.193.193,0,0,0-.312-.205Z" transform="translate(-22.117 -33.258)" fill="#c6412a"/>
          <g id="Grupo_117101" data-name="Grupo 117101">
            <path id="Trazado_178715" data-name="Trazado 178715" d="M81.362,91.984H5.792a2.865,2.865,0,0,1-2.37-4.462L47.714,21.443a2.85,2.85,0,0,1,4.739,0l4.16,6.207a1.468,1.468,0,0,0,2.438-1.634l-4.16-6.207a5.785,5.785,0,0,0-9.615,0L.984,85.887a5.8,5.8,0,0,0,4.808,9.031h75.57a1.467,1.467,0,0,0,0-2.935Z" transform="translate(0 -17.242)"/>
            <path id="Trazado_178716" data-name="Trazado 178716" d="M131.1,92.992,94.453,38.319a1.467,1.467,0,0,0-2.438,1.634l36.646,54.673a2.864,2.864,0,0,1-2.37,4.462h-6.533a1.467,1.467,0,0,0,0,2.935h6.533a5.8,5.8,0,0,0,4.808-9.031Z" transform="translate(-31.916 -24.346)"/>
            <path id="Trazado_178717" data-name="Trazado 178717" d="M17.149,85.128a1.468,1.468,0,0,0-2.036.4L12.187,89.9a2.048,2.048,0,0,0,1.7,3.188H94.515a2.048,2.048,0,0,0,1.7-3.188L55.9,29.751a2.048,2.048,0,0,0-3.4,0L18.6,80.329a1.467,1.467,0,0,0,2.438,1.634L54.2,32.485,92.852,90.149H15.55l2-2.985a1.468,1.468,0,0,0-.4-2.036Z" transform="translate(-4.118 -21.277)"/>
            <path id="Trazado_178718" data-name="Trazado 178718" d="M61.346,76.736a1.654,1.654,0,0,0,.726,1.255l4.855,3.283L63.1,93.106a1.66,1.66,0,0,0,2.7,1.739L80.956,80.937a1.664,1.664,0,0,0-.193-2.6l-4.855-3.283,3.828-11.833a1.66,1.66,0,0,0-2.7-1.739h0L61.88,75.388a1.654,1.654,0,0,0-.534,1.348Zm14.111-9.823-2.635,8.143a1.671,1.671,0,0,0,.65,1.891l4.313,2.917L67.379,89.412l2.635-8.143a1.671,1.671,0,0,0-.65-1.891L65.05,76.462Z" transform="translate(-21.335 -32.476)"/>
          </g>
        </g>
      </g>
    </g>
  </g>
</svg>
