<svg xmlns="http://www.w3.org/2000/svg" width="80.055" height="78.497" viewBox="0 0 80.055 78.497">
  <g id="Grupo_117506" data-name="Grupo 117506" transform="translate(2689.04 3658.234)">
    <g id="educacion" transform="translate(-2689.04 -3658.234)">
      <g id="Grupo_116296" data-name="Grupo 116296" transform="translate(0 0)">
        <g id="Grupo_116295" data-name="Grupo 116295" transform="translate(1.371 0.984)">
          <path id="Trazado_177983" data-name="Trazado 177983" d="M86.855,118.781a15.753,15.753,0,0,0-.094,11.666l1.285,2.517H32.581s-10.326-5.8,0-16.128L87.567,115.7Z" transform="translate(-20.609 -81.283)" fill="#f1f2f2"/>
          <path id="Trazado_177984" data-name="Trazado 177984" d="M88.047,132.965H32.583s-10.326-5.8,0-16.129L87.569,115.7l-.713,3.079a15.1,15.1,0,0,0-.783,2.5H35.743a3.535,3.535,0,1,0,0,7.069H86.091a13.578,13.578,0,0,0,.671,2.1Z" transform="translate(-20.61 -81.283)" fill="#dee1e1"/>
          <path id="Trazado_177985" data-name="Trazado 177985" d="M80.973,131.181l-50.7-.08c-6.074,0-11.29-3.875-11.29-9.948,0-1.342-.234-3.1.206-4.289a11,11,0,0,1,10.318-7.182H81.52a2.481,2.481,0,1,1,0,4.961H42.157l-3.844.9-3.343-.9h-5.46a6.036,6.036,0,1,0,0,12.073H81.52a2.482,2.482,0,0,1,2.464,2.773C83.84,130.72,82.244,131.181,80.973,131.181Z" transform="translate(-14.376 -77.145)" fill="#6677d6"/>
          <path id="Trazado_177986" data-name="Trazado 177986" d="M83.077,143.877a2.48,2.48,0,0,1-2.463,2.189l-25.7,1.54L28.6,146.066a11,11,0,0,1-10.06-15.448v2.261a11,11,0,0,0,11,11Z" transform="translate(-13.47 -91.534)" fill="#a3ade6"/>
          <path id="Trazado_177987" data-name="Trazado 177987" d="M77.867,132.778v-7.232H72.713l-1.83.184.11,6.735a.313.313,0,0,0,.427.291l1.293-.316,1.447-.566a.312.312,0,0,1,.228,0l3.053,1.2A.313.313,0,0,0,77.867,132.778Z" transform="translate(-50.087 -88.048)" fill="#c6412a"/>
          <path id="Trazado_177988" data-name="Trazado 177988" d="M72.268,125.548v6.894l-1.606.629a.313.313,0,0,1-.427-.291v-7.232Z" transform="translate(-49.642 -88.049)" fill="#d83724"/>
          <path id="Trazado_177989" data-name="Trazado 177989" d="M96,87.241v3.526l-.156,1.564a1.1,1.1,0,0,1-1.095,1.095l-41.672-.156a1.094,1.094,0,0,1-1.095-1.095l-.313-4.933L73.06,86.219Z" transform="translate(-36.881 -61.019)" fill="#ffef0f"/>
          <path id="Trazado_177990" data-name="Trazado 177990" d="M220.948,98.9c-.979,2.413-1.964,4.793-2.943,7.206a2.19,2.19,0,0,0,2.01,3.023l1.81.156h4.4a2.19,2.19,0,0,0,2.01-3.023L226.2,101.23,224.914,98.9h-3.966Z" transform="translate(-151.089 -69.734)" fill="#ffef0f"/>
          <path id="Trazado_177991" data-name="Trazado 177991" d="M222.182,101.213a5.944,5.944,0,0,0,3.673-.889l-1.1-2.743-1.814.542h0l-2.365-.316c-.3.736-.733,1.782-1.031,2.519h0l-2.041,5.03a2.19,2.19,0,0,0,2.009,3.022h2.5a2.19,2.19,0,0,1-2.009-3.022l1.524-3.756a.632.632,0,0,1,.649-.386Z" transform="translate(-150.747 -68.828)" fill="#fff56f"/>
          <path id="Trazado_177992" data-name="Trazado 177992" d="M230.7,82.454a3.643,3.643,0,0,0-2.437-3.447c-.368-.127-.9.1-1.312.1a3.071,3.071,0,0,0-3.22,3.348,3.181,3.181,0,0,0,3.485,3.219c.41,0,.68.355,1.048.227a3.643,3.643,0,0,0,2.437-3.447Z" transform="translate(-155.139 -56.036)" fill="#ffef0f"/>
          <path id="Trazado_177993" data-name="Trazado 177993" d="M227.72,85.553a3.557,3.557,0,0,1-1.173.2,3.644,3.644,0,0,1,0-7.288,3.557,3.557,0,0,1,1.173.2,3.657,3.657,0,0,0,0,6.894Z" transform="translate(-154.592 -55.689)" fill="#fff56f"/>
          <path id="Trazado_177994" data-name="Trazado 177994" d="M78.332,20.024l-10.313,3.57L65.2,23.306,45.186,31.5a6.561,6.561,0,0,1-4.293,0L20.874,23.625l-2.814-.031L7.746,20.024a1.312,1.312,0,0,1,0-2.48L41.284,5.934a5.365,5.365,0,0,1,3.511,0l33.538,11.61A1.312,1.312,0,0,1,78.332,20.024Z" transform="translate(-6.088 -5.638)" fill="#868491"/>
          <path id="Trazado_177995" data-name="Trazado 177995" d="M92.627,45.573v1.059l-22.833,7.9a6.561,6.561,0,0,1-4.294,0l-22.832-7.9V45.573a4.6,4.6,0,0,1,3.79-4.531,120.09,120.09,0,0,1,42.378,0,4.6,4.6,0,0,1,3.79,4.531Z" transform="translate(-30.696 -28.675)" fill="#77777f"/>
          <path id="Trazado_177996" data-name="Trazado 177996" d="M96.685,51.758v9.324H52.824l-.156-9.011a1.789,1.789,0,0,1,1.473-1.761c.447-.08.581-.47,1.029-.545A117.24,117.24,0,0,1,95.212,50a1.791,1.791,0,0,1,1.473,1.761Z" transform="translate(-37.569 -34.861)" fill="#868491"/>
          <path id="Trazado_177997" data-name="Trazado 177997" d="M96,90.767v1.72A1.1,1.1,0,0,1,94.9,93.581H52.763a1.1,1.1,0,0,1-1.095-1.095V87.241l1.407-1.022,1.407,1.022v2.744a.782.782,0,0,0,.782.782Z" transform="translate(-36.881 -61.019)" fill="#fff56f"/>
          <path id="Trazado_177998" data-name="Trazado 177998" d="M54.482,53.3V64.618H51.668V55.295a1.789,1.789,0,0,1,1.473-1.761C53.588,53.454,54.035,53.376,54.482,53.3Z" transform="translate(-36.881 -38.397)" fill="#77777f"/>
          <path id="Trazado_177999" data-name="Trazado 177999" d="M83.224,203.679a14.712,14.712,0,0,1,0-11.26l.476-2.114H19.762s-7.2,7.825.468,15.49l63.886.479Z" transform="translate(-12.846 -132.556)" fill="#f1f2f2"/>
          <path id="Trazado_178000" data-name="Trazado 178000" d="M84.116,206.275,20.23,205.8c-7.666-7.665-.468-15.489-.468-15.489l64.244.119-.782,1.994a14.653,14.653,0,0,0-.7,2.133H23.845a3.535,3.535,0,1,0,0,7.069h58.7a14.831,14.831,0,0,0,.68,2.059Z" transform="translate(-12.846 -132.558)" fill="#dee1e1"/>
          <path id="Trazado_178001" data-name="Trazado 178001" d="M76.424,201.464l-57.807-.106c-6.074,0-11.418-3.428-11.418-9.5,0-1.928-.471-4.582.4-6.157a11,11,0,0,1,9.63-5.683H77.51a2.481,2.481,0,1,1,0,4.961H62.574l-3.9.864-3.285-.864H17.229a6.036,6.036,0,0,0,0,12.073H77.51a2.483,2.483,0,0,1,2.44,2.929c-.211,1.156-2.31,1.485-3.527,1.485Z" transform="translate(-6.231 -125.485)" fill="#c6412a"/>
          <path id="Trazado_178002" data-name="Trazado 178002" d="M78.1,211.165a2.483,2.483,0,0,1-2.441,2.033H15.382A11,11,0,0,1,6.1,196.293v3.875a11,11,0,0,0,11,11Z" transform="translate(-4.384 -136.671)" fill="#d83724"/>
          <path id="Trazado_178003" data-name="Trazado 178003" d="M169.192,203.165v-7.29H164.35l-2.148.131.115,6.847a.313.313,0,0,0,.427.291l1.606-.439,1.135-.444a.312.312,0,0,1,.228,0l3.053,1.2A.313.313,0,0,0,169.192,203.165Z" transform="translate(-112.849 -136.384)" fill="#ffef0f"/>
          <path id="Trazado_178004" data-name="Trazado 178004" d="M163.915,195.872V202.7l-1.919.751a.313.313,0,0,1-.427-.291v-7.291Z" transform="translate(-112.415 -136.382)" fill="#fff56f"/>
        </g>
        <path id="Trazado_178005" data-name="Trazado 178005" d="M79.809,39.052l-2.6-6.416a4.764,4.764,0,0,0-2.418-7.687c0-.308,0-8.036,0-8.364a2.433,2.433,0,0,0-1.657-2.327L40.162,2.844a6.474,6.474,0,0,0-4.219,0L27.734,5.686A1.173,1.173,0,1,0,28.5,7.9L36.71,5.06a4.118,4.118,0,0,1,2.684,0l32.97,11.413a.118.118,0,0,1,0,.222l-11.35,3.929v-.351A2.928,2.928,0,0,0,58.6,17.389a116.022,116.022,0,0,0-41.1,0,2.928,2.928,0,0,0-2.414,2.885v.351L3.74,16.7a.118.118,0,0,1,0-.222L23.235,9.725a1.173,1.173,0,1,0-.767-2.216L2.973,14.258a2.463,2.463,0,0,0,0,4.655L15.09,23.107V34.713A12.166,12.166,0,0,0,9.543,56.936,12.169,12.169,0,0,0,12.17,80.988H72.451a3.653,3.653,0,0,0,.074-7.3,13.435,13.435,0,0,1-.028-9.73,3.653,3.653,0,0,0-.046-7.306h-.724a3.652,3.652,0,0,0-3.41-4.961h-.032a13.426,13.426,0,0,1-.221-9.111,3.294,3.294,0,0,0,2.421,1.062h6.261a3.3,3.3,0,0,0,2.739-1.461,3.338,3.338,0,0,0,.324-3.124Zm-3.818-9.5a2.376,2.376,0,1,1-2.376-2.409A2.4,2.4,0,0,1,75.991,29.555Zm-3.548-10.4v5.8a4.764,4.764,0,0,0-2.418,7.687l-.818,2.016H61.014V23.107ZM17.918,19.7a113.706,113.706,0,0,1,40.269,0,.585.585,0,0,1,.482.577v7.993H51.443a1.173,1.173,0,1,0,0,2.345h7.226v4.04H17.436v-4.04H45.97a1.173,1.173,0,1,0,0-2.345H17.436V20.274a.585.585,0,0,1,.482-.577ZM73.759,60.3a1.309,1.309,0,0,1-1.308,1.308H12.17a7.209,7.209,0,1,0,0,14.418H58.479a1.173,1.173,0,0,0,0-2.345H12.17a4.864,4.864,0,1,1,0-9.727H49.155v6.574a1.173,1.173,0,0,0,1.6,1.092l3.166-1.24,3.166,1.24a1.173,1.173,0,0,0,1.6-1.092V63.954h11.32a15.739,15.739,0,0,0,.023,9.727h-6.08a1.173,1.173,0,1,0,0,2.345h8.5a1.308,1.308,0,1,1,0,2.616H12.17a9.825,9.825,0,1,1,0-19.65H72.451A1.31,1.31,0,0,1,73.759,60.3ZM51.5,63.954h4.842v4.855l-1.993-.781a1.172,1.172,0,0,0-.855,0l-1.993.781ZM31.428,54.031H68.317a1.308,1.308,0,1,1,0,2.616H16.3A9.825,9.825,0,0,1,16.3,37H68.256c-.29.778-.825,1.88-1.005,2.616H16.3a7.209,7.209,0,1,0,0,14.418h9.651a1.173,1.173,0,1,0,0-2.345H16.3a4.864,4.864,0,1,1,0-9.727h4.288v6.517a1.173,1.173,0,0,0,1.6,1.092l3.166-1.24,3.166,1.24a1.173,1.173,0,0,0,1.6-1.092V41.959H65.794a15.741,15.741,0,0,0,0,9.727H31.428a1.173,1.173,0,0,0,0,2.346ZM22.938,41.959H27.78v4.8l-1.993-.781a1.172,1.172,0,0,0-.855,0l-1.993.781Zm54.6-1.092a.951.951,0,0,1-.793.426H70.485a.951.951,0,0,1-.793-.426.983.983,0,0,1-.1-.932l2.4-5.914a4.694,4.694,0,0,0,3.242,0l2.4,5.914A.983.983,0,0,1,77.54,40.866Z" transform="translate(0 -2.491)"/>
      </g>
    </g>
  </g>
</svg>
