<svg xmlns="http://www.w3.org/2000/svg" width="157" height="157" viewBox="0 0 157 157">
  <g id="Grupo_117516" data-name="Grupo 117516" transform="translate(2423.475 2652.481)">
    <g id="Grupo_117451" data-name="Grupo 117451" transform="translate(103.525 -1964.481)">
      <rect id="Rectángulo_42560" data-name="Rectángulo 42560" width="157" height="157" rx="78.5" transform="translate(-2527 -688)" fill="#fff"/>
      <g id="reporte" transform="translate(-2500.48 -661.752)">
        <g id="Grupo_116384" data-name="Grupo 116384" transform="translate(0 2.34)">
          <g id="Grupo_116382" data-name="Grupo 116382" transform="translate(1.508 1.508)">
            <path id="Trazado_178189" data-name="Trazado 178189" d="M98.336,45.278V97l-42.378,3.344L13.58,97V45.278a7.944,7.944,0,0,1,7.945-7.945H90.39A7.944,7.944,0,0,1,98.336,45.278Z" transform="translate(-5.985 -15.385)" fill="#dbdbdb"/>
            <path id="Trazado_178190" data-name="Trazado 178190" d="M98.335,121.262v3.411l-42.378,3.344L13.58,124.673v-3.411Z" transform="translate(-5.985 -43.056)" fill="#dbdbdb"/>
            <path id="Trazado_178191" data-name="Trazado 178191" d="M57.964,100.189l-2.007.159L13.581,97V45.279a7.942,7.942,0,0,1,7.943-7.945h4.014a7.944,7.944,0,0,0-7.945,7.945V97Z" transform="translate(-5.986 -15.386)" fill="#dbdbdb"/>
            <path id="Trazado_178192" data-name="Trazado 178192" d="M94.6,126.352H9.846a7.594,7.594,0,0,0,0,15.188H94.6a7.594,7.594,0,1,0,0-15.188Z" transform="translate(-2.25 -44.734)" fill="#dbdbdb"/>
            <path id="Trazado_178193" data-name="Trazado 178193" d="M100.979,138.062a7.586,7.586,0,0,1-6.381,3.477H9.845a7.594,7.594,0,1,1,0-15.188H12.29a7.594,7.594,0,0,0,6.381,11.712h82.308Z" transform="translate(-2.25 -44.733)" fill="#dbdbdb"/>
            <path id="Trazado_178194" data-name="Trazado 178194" d="M24.98,89.388V52.767a4.035,4.035,0,0,1,4.035-4.035h61.4a4.034,4.034,0,0,1,4.034,4.034V89.388a3.731,3.731,0,0,1-3.731,3.731H28.711A3.73,3.73,0,0,1,24.98,89.388Z" transform="translate(-9.744 -19.144)" fill="#fff"/>
            <g id="Grupo_116379" data-name="Grupo 116379" transform="translate(38.847 41.734)">
              <path id="Trazado_178195" data-name="Trazado 178195" d="M67.546,84.073H63.162A2.959,2.959,0,0,0,60.2,87.032v8.816a2.959,2.959,0,0,0,2.959,2.959h4.384a2.959,2.959,0,0,0,2.959-2.959V87.032A2.959,2.959,0,0,0,67.546,84.073Z" transform="translate(-60.203 -72.529)" fill="#ffef0f"/>
              <path id="Trazado_178196" data-name="Trazado 178196" d="M90.335,66.852H85.951a2.959,2.959,0,0,0-2.959,2.959V90.17a2.959,2.959,0,0,0,2.959,2.959h4.384a2.959,2.959,0,0,0,2.959-2.959V69.811A2.96,2.96,0,0,0,90.335,66.852Z" transform="translate(-67.716 -66.852)" fill="#c6412a"/>
              <path id="Trazado_178197" data-name="Trazado 178197" d="M113.124,76.521H108.74a2.959,2.959,0,0,0-2.959,2.959V93.358a2.959,2.959,0,0,0,2.959,2.959h4.384a2.959,2.959,0,0,0,2.959-2.959V79.481A2.959,2.959,0,0,0,113.124,76.521Z" transform="translate(-75.229 -70.04)" fill="#a3ade6"/>
            </g>
            <path id="Trazado_178198" data-name="Trazado 178198" d="M78.048,133.038H60.2a6.687,6.687,0,0,1-6.687-6.687H84.735A6.687,6.687,0,0,1,78.048,133.038Z" transform="translate(-19.149 -44.734)" fill="#dbdbdb"/>
            <circle id="Elipse_15999" data-name="Elipse 15999" cx="21.273" cy="21.273" r="21.273" transform="translate(3.727 4.223)" fill="#a3ade6"/>
            <path id="Trazado_178199" data-name="Trazado 178199" d="M52.433,29.683A25.091,25.091,0,1,1,27.342,4.59v7.567A17.524,17.524,0,1,0,44.866,29.683Z" transform="translate(-2.25 -4.59)" fill="#ffef0f"/>
            <g id="Grupo_116380" data-name="Grupo 116380" transform="translate(0)">
              <path id="Trazado_178200" data-name="Trazado 178200" d="M44.4,59.548A17.525,17.525,0,0,0,61.921,42.024H58.138A17.527,17.527,0,0,1,42.506,59.446,17.708,17.708,0,0,0,44.4,59.548Z" transform="translate(-15.522 -16.932)" fill="#ffef0f"/>
              <path id="Trazado_178201" data-name="Trazado 178201" d="M6.034,29.683A25.1,25.1,0,0,1,27.342,4.874V4.59a25.091,25.091,0,1,0,0,50.183q.955,0,1.892-.071a25.092,25.092,0,0,1-23.2-25.02Z" transform="translate(-2.25 -4.59)" fill="#ffef0f"/>
            </g>
            <path id="Trazado_178202" data-name="Trazado 178202" d="M64.774,29.683H39.684V4.59A25.09,25.09,0,0,1,64.774,29.683Z" transform="translate(-14.591 -4.59)" fill="#c6412a"/>
            <path id="Trazado_178203" data-name="Trazado 178203" d="M100.064,7.706h25.218a6.888,6.888,0,0,1,6.888,6.888V29.729a6.888,6.888,0,0,1-6.888,6.888H115.3l-7.2,7.2a3.072,3.072,0,0,1-5.244-2.172V36.617h-2.789a6.888,6.888,0,0,1-6.888-6.888V14.594a6.888,6.888,0,0,1,6.888-6.888Z" transform="translate(-32.227 -5.617)" fill="#a3ade6"/>
            <g id="Grupo_116381" data-name="Grupo 116381" transform="translate(60.949 2.09)">
              <path id="Trazado_178204" data-name="Trazado 178204" d="M95.72,14.6V29.73a6.888,6.888,0,0,0,6.887,6.889h-2.544a6.888,6.888,0,0,1-6.887-6.889V14.6a6.886,6.886,0,0,1,6.887-6.887h2.544A6.886,6.886,0,0,0,95.72,14.6Z" transform="translate(-93.176 -7.708)" fill="#6677d6"/>
              <path id="Trazado_178205" data-name="Trazado 178205" d="M111.966,58.663a3.079,3.079,0,0,1-4.354-2.8V50.839h2.544v5.025A3.019,3.019,0,0,0,111.966,58.663Z" transform="translate(-97.935 -21.928)" fill="#6677d6"/>
            </g>
          </g>
          <g id="Grupo_116383" data-name="Grupo 116383">
            <path id="Trazado_178206" data-name="Trazado 178206" d="M66.8,81.823H62.42a4.473,4.473,0,0,0-4.468,4.468v8.816a4.473,4.473,0,0,0,4.468,4.468H66.8a4.473,4.473,0,0,0,4.468-4.468V86.29A4.473,4.473,0,0,0,66.8,81.823Zm1.451,13.284A1.453,1.453,0,0,1,66.8,96.558H62.421a1.453,1.453,0,0,1-1.451-1.451V86.29a1.453,1.453,0,0,1,1.451-1.451H66.8a1.453,1.453,0,0,1,1.451,1.451Z" transform="translate(-19.106 -28.545)"/>
            <path id="Trazado_178207" data-name="Trazado 178207" d="M89.593,64.6H85.209a4.473,4.473,0,0,0-4.468,4.468V89.428A4.473,4.473,0,0,0,85.209,93.9h4.384a4.473,4.473,0,0,0,4.468-4.468V69.07A4.473,4.473,0,0,0,89.593,64.6Zm1.451,24.827a1.453,1.453,0,0,1-1.451,1.451H85.209a1.453,1.453,0,0,1-1.451-1.451V69.07a1.453,1.453,0,0,1,1.451-1.451h4.384a1.453,1.453,0,0,1,1.451,1.451Z" transform="translate(-26.62 -22.867)"/>
            <path id="Trazado_178208" data-name="Trazado 178208" d="M108,97.085h4.384a4.473,4.473,0,0,0,4.468-4.468V78.739a4.473,4.473,0,0,0-4.468-4.468H108a4.473,4.473,0,0,0-4.468,4.468V92.617A4.473,4.473,0,0,0,108,97.085Zm-1.451-18.345A1.453,1.453,0,0,1,108,77.288h4.384a1.453,1.453,0,0,1,1.451,1.451V92.617a1.453,1.453,0,0,1-1.451,1.451H108a1.453,1.453,0,0,1-1.451-1.451Z" transform="translate(-34.133 -26.055)"/>
            <path id="Trazado_178209" data-name="Trazado 178209" d="M45.569,84.3a1.508,1.508,0,0,0-2.066.531l-5.678,9.609-1.634-2.673a1.508,1.508,0,1,0-2.574,1.573l2.942,4.815a1.508,1.508,0,0,0,1.287.722h.011a1.508,1.508,0,0,0,1.287-.741L46.1,86.362a1.508,1.508,0,0,0-.531-2.066Z" transform="translate(-11.011 -29.291)"/>
            <path id="Trazado_178210" data-name="Trazado 178210" d="M102.96,27.959V12.825a8.4,8.4,0,0,0-8.4-8.4h-.718a1.508,1.508,0,0,0,0,3.016h.718a5.385,5.385,0,0,1,5.379,5.379V27.959a5.386,5.386,0,0,1-5.379,5.381H84.576a1.509,1.509,0,0,0-1.067.442l-7.2,7.2a1.564,1.564,0,0,1-2.67-1.105V34.849a1.508,1.508,0,0,0-1.508-1.508H69.345a5.386,5.386,0,0,1-5.379-5.381V12.825a5.385,5.385,0,0,1,5.379-5.379H87.95a1.508,1.508,0,1,0,0-3.016H69.345a8.4,8.4,0,0,0-8.4,8.4V24.288H52.791A26.6,26.6,0,1,0,7.6,47.531V84.085A9.1,9.1,0,0,0,9.1,102.162H80.071a1.508,1.508,0,1,0,0-3.016H9.1A6.086,6.086,0,0,1,9.1,86.974H34.5a8.207,8.207,0,0,0,8.054,6.687H60.406a8.208,8.208,0,0,0,8.054-6.687h25.4a6.086,6.086,0,0,1-.005,12.172H86.076a1.508,1.508,0,0,0,0,3.016h7.782a9.1,9.1,0,0,0,1.508-18.079V36.318a8.408,8.408,0,0,0,7.593-8.358ZM60.407,90.645H42.555A5.189,5.189,0,0,1,37.6,86.975H65.362A5.189,5.189,0,0,1,60.407,90.645ZM10.612,83.958V50.184a26.631,26.631,0,0,0,4.625,2.8V74.092a5.245,5.245,0,0,0,5.238,5.24H82.486a5.245,5.245,0,0,0,5.238-5.24V37.471a5.542,5.542,0,0,0-.117-1.114H92.35v47.6Zm58.733-47.6h1.281v3.517A4.509,4.509,0,0,0,73.453,44.1a4.651,4.651,0,0,0,1.782.36,4.517,4.517,0,0,0,3.21-1.353l6.2-6.2a2.534,2.534,0,0,1,.065.558V74.092a2.226,2.226,0,0,1-2.222,2.224H20.475a2.226,2.226,0,0,1-2.222-2.224V54.2A26.6,26.6,0,0,0,52.515,34.945H64.693a8.345,8.345,0,0,0,4.652,1.411Zm-8.4-9.053v.655a8.346,8.346,0,0,0,1,3.97H53.03a26.762,26.762,0,0,0,.169-2.988c0-.55-.019-1.1-.052-1.637Zm-10.814.129H28.109V5.4A23.618,23.618,0,0,1,50.135,27.433ZM25.092,5.406V9.969A19.029,19.029,0,0,0,13.065,42.318,1.508,1.508,0,1,0,15.209,40.2,16.011,16.011,0,0,1,25.092,13V28.941A1.508,1.508,0,0,0,26.6,30.449H42.542A16.035,16.035,0,0,1,26.6,44.956a15.862,15.862,0,0,1-6.911-1.563,1.508,1.508,0,1,0-1.3,2.72,18.854,18.854,0,0,0,8.215,1.86A19.057,19.057,0,0,0,45.572,30.449h4.561A23.582,23.582,0,1,1,25.092,5.406Z" transform="translate(0 -2.34)"/>
            <path id="Trazado_178211" data-name="Trazado 178211" d="M119.6,16.95H103.155a1.508,1.508,0,0,0,0,3.016H119.6a1.508,1.508,0,0,0,0-3.016Z" transform="translate(-33.512 -7.157)"/>
            <path id="Trazado_178212" data-name="Trazado 178212" d="M136.888,19.966H138.9a1.508,1.508,0,0,0,0-3.016h-2.011a1.508,1.508,0,1,0,0,3.016Z" transform="translate(-44.633 -7.157)"/>
            <path id="Trazado_178213" data-name="Trazado 178213" d="M119.6,25.729H103.155a1.508,1.508,0,0,0,0,3.016H119.6a1.508,1.508,0,0,0,0-3.016Z" transform="translate(-33.512 -10.051)"/>
            <path id="Trazado_178214" data-name="Trazado 178214" d="M136.888,28.746H138.9a1.508,1.508,0,0,0,0-3.016h-2.011a1.508,1.508,0,1,0,0,3.016Z" transform="translate(-44.633 -10.051)"/>
            <path id="Trazado_178215" data-name="Trazado 178215" d="M119.6,34.508H103.155a1.508,1.508,0,0,0,0,3.016H119.6a1.508,1.508,0,0,0,0-3.016Z" transform="translate(-33.512 -12.946)"/>
            <path id="Trazado_178216" data-name="Trazado 178216" d="M136.888,37.524H138.9a1.508,1.508,0,0,0,0-3.016h-2.011a1.508,1.508,0,1,0,0,3.016Z" transform="translate(-44.633 -12.946)"/>
          </g>
        </g>
      </g>
    </g>
  </g>
</svg>
