<svg xmlns="http://www.w3.org/2000/svg" width="133" height="133" viewBox="0 0 133 133">
  <g id="Grupo_117548" data-name="Grupo 117548" transform="translate(8023.333 -34.002)">
    <g id="Grupo_117305" data-name="Grupo 117305" transform="translate(-2990.217 -2988)">
      <g id="Elipse_17549" data-name="Elipse 17549" transform="translate(-5033.117 3022.002)" fill="#fff" stroke="#6677d6" stroke-width="4">
        <circle cx="66.5" cy="66.5" r="66.5" stroke="none"/>
        <circle cx="66.5" cy="66.5" r="64.5" fill="none"/>
      </g>
      <g id="meta" transform="translate(-5011 3052.256)">
        <g id="Grupo_117098" data-name="Grupo 117098" transform="translate(0 0)">
          <g id="Grupo_117096" data-name="Grupo 117096" transform="translate(1.311 1.311)">
            <path id="Trazado_178678" data-name="Trazado 178678" d="M78.58,102.051H71.573v11.21a2.8,2.8,0,0,1-5.6,0v-11.21H58.962l-1.4,21.018H79.981Z" transform="translate(-25.333 -47.403)" fill="#b8b2b8"/>
            <g id="Grupo_117095" data-name="Grupo 117095" transform="translate(33.256 54.648)">
              <path id="Trazado_178679" data-name="Trazado 178679" d="M88.989,107.656l-.374-5.6H81.61v5.6Z" transform="translate(-68.625 -102.051)" fill="#9e959e"/>
              <path id="Trazado_178680" data-name="Trazado 178680" d="M59.325,107.656H66.7v-5.6H59.7Z" transform="translate(-59.325 -102.051)" fill="#9e959e"/>
            </g>
            <path id="Trazado_178681" data-name="Trazado 178681" d="M83.521,8.262H7.855a5.6,5.6,0,0,0-5.6,5.6V58.706a5.6,5.6,0,0,0,5.6,5.6H83.521a5.6,5.6,0,0,0,5.6-5.6V13.867a5.605,5.605,0,0,0-5.605-5.6Z" transform="translate(-2.25 -8.262)" fill="#c9c5c9"/>
            <path id="Trazado_178682" data-name="Trazado 178682" d="M6.56,14.195V8.6a5.688,5.688,0,0,0-4.31,5.407V58.848a5.6,5.6,0,0,0,5.6,5.6H83.521a5.681,5.681,0,0,0,5.407-4.3h-7.86Z" transform="translate(-2.25 -8.404)" fill="#b8b2b8"/>
            <path id="Trazado_178683" data-name="Trazado 178683" d="M11.87,17.882H87.535V62.72H11.87Z" transform="translate(-6.265 -12.277)" fill="#a3ade6"/>
            <path id="Trazado_178684" data-name="Trazado 178684" d="M80.737,61.528H24.689a5.6,5.6,0,0,1-5.6-5.6V30.7a5.6,5.6,0,0,1,5.6-5.6H80.737a5.6,5.6,0,0,1,5.6,5.6V55.923A5.6,5.6,0,0,1,80.737,61.528Z" transform="translate(-9.275 -15.287)" fill="#fff"/>
            <path id="Trazado_178685" data-name="Trazado 178685" d="M81.76,135.719H39.724a1.4,1.4,0,0,0-1.4,1.4v2.8a1.4,1.4,0,0,0,1.4,1.4H81.76a1.4,1.4,0,0,0,1.4-1.4v-2.8A1.4,1.4,0,0,0,81.76,135.719Z" transform="translate(-17.304 -61.454)" fill="#c9c5c9"/>
            <path id="Trazado_178686" data-name="Trazado 178686" d="M42.526,141.324h-2.8a1.4,1.4,0,0,1-1.4-1.4v-2.8a1.4,1.4,0,0,1,1.4-1.4h2.8Z" transform="translate(-17.304 -61.454)" fill="#b8b2b8"/>
          </g>
          <g id="Grupo_117097" data-name="Grupo 117097">
            <path id="Trazado_178687" data-name="Trazado 178687" d="M82.582,6.012H6.916A6.924,6.924,0,0,0,0,12.928V57.767a6.924,6.924,0,0,0,6.916,6.916H33.525l-1.2,15.594H23.731a2.715,2.715,0,0,0-2.712,2.712v2.8A2.715,2.715,0,0,0,23.731,88.5H65.767a2.715,2.715,0,0,0,2.712-2.712v-2.8a2.715,2.715,0,0,0-2.712-2.712H57.173l-1.2-15.594H82.582A6.924,6.924,0,0,0,89.5,57.767V12.928a6.924,6.924,0,0,0-6.916-6.916ZM65.857,82.989v2.8a.09.09,0,0,1-.09.09H23.73a.09.09,0,0,1-.09-.09v-2.8a.09.09,0,0,1,.09-.09H65.767A.09.09,0,0,1,65.857,82.989ZM54.543,80.277H34.955l1.2-15.594h4.481v8.5a4.113,4.113,0,1,0,8.227,0v-8.5h4.481Zm-8.3-15.594v8.5a1.491,1.491,0,1,1-2.983,0v-8.5Zm40.635-6.916a4.3,4.3,0,0,1-4.294,4.294H6.916a4.3,4.3,0,0,1-4.294-4.294V12.928A4.3,4.3,0,0,1,6.916,8.634H82.582a4.3,4.3,0,0,1,4.294,4.294Z" transform="translate(0 -6.012)"/>
            <path id="Trazado_178688" data-name="Trazado 178688" d="M75.386,60.47H12.241V18.253h4.294a1.311,1.311,0,0,0,0-2.622h-5.6a1.311,1.311,0,0,0-1.311,1.311V61.782a1.311,1.311,0,0,0,1.311,1.311H75.386a1.311,1.311,0,0,0,0-2.622Z" transform="translate(-4.014 -10.027)"/>
            <path id="Trazado_178689" data-name="Trazado 178689" d="M94.625,15.632H30.169a1.311,1.311,0,1,0,0,2.622H93.314V60.471H89.02a1.311,1.311,0,0,0,0,2.622h5.6a1.311,1.311,0,0,0,1.311-1.311V16.943a1.311,1.311,0,0,0-1.311-1.311Z" transform="translate(-12.043 -10.027)"/>
            <path id="Trazado_178690" data-name="Trazado 178690" d="M95.7,58.115a1.311,1.311,0,0,0,1.692-.759l.636-1.671h4.371l.629,1.668a1.311,1.311,0,0,0,2.453-.926l-3.812-10.1-.014-.036a1.538,1.538,0,0,0-1.427-.956h0a1.538,1.538,0,0,0-1.427.959l-.012.03-3.847,10.1a1.312,1.312,0,0,0,.759,1.692Zm4.524-8.195,1.186,3.143H99.022Z" transform="translate(-39.584 -22.422)"/>
            <path id="Trazado_178691" data-name="Trazado 178691" d="M41.585,57.043l.991-5.492L44.214,57.1l.015.047A1.54,1.54,0,0,0,45.691,58.2H45.7a1.54,1.54,0,0,0,1.459-1.066c0-.015.009-.03.014-.045l1.581-5.547,1.054,5.514a1.311,1.311,0,1,0,2.575-.492l-1.91-10a1.542,1.542,0,0,0-2.978-.169l-.014.046-1.806,6.337L43.8,46.432c0-.016-.009-.031-.015-.046a1.543,1.543,0,0,0-2.98.214L39,56.577a1.311,1.311,0,0,0,2.58.466Z" transform="translate(-16.269 -22.422)"/>
            <path id="Trazado_178692" data-name="Trazado 178692" d="M71.379,48.036a1.311,1.311,0,0,0,0-2.622H67.1a1.311,1.311,0,0,0-1.311,1.311V56.877A1.311,1.311,0,0,0,67.1,58.188h4.278a1.311,1.311,0,0,0,0-2.622H68.412V53.112h2.651a1.311,1.311,0,1,0,0-2.622H68.412V48.036Z" transform="translate(-27.456 -22.456)"/>
            <path id="Trazado_178693" data-name="Trazado 178693" d="M87.79,45.334H82.133a1.311,1.311,0,1,0,0,2.622h1.507V56.89a1.311,1.311,0,0,0,2.622,0V47.956h1.529a1.311,1.311,0,1,0,0-2.622Z" transform="translate(-33.73 -22.422)"/>
            <path id="Trazado_178694" data-name="Trazado 178694" d="M23.25,52.3l3.006,5.19a1.311,1.311,0,1,0,2.269-1.314l-2.618-4.519,2.606-4.323a1.311,1.311,0,0,0-2.245-1.354l-3.006,4.986A1.311,1.311,0,0,0,23.25,52.3Z" transform="translate(-9.629 -22.427)"/>
            <path id="Trazado_178695" data-name="Trazado 178695" d="M126.127,51.188,123.121,46a1.311,1.311,0,0,0-2.269,1.314l2.618,4.519-2.606,4.323a1.311,1.311,0,1,0,2.245,1.354l3.006-4.986a1.31,1.31,0,0,0,.012-1.334Z" transform="translate(-50.362 -22.427)"/>
          </g>
        </g>
      </g>
    </g>
  </g>
</svg>
