<svg xmlns="http://www.w3.org/2000/svg" width="133" height="133" viewBox="0 0 133 133">
  <g id="Grupo_117501" data-name="Grupo 117501" transform="translate(2803.844 3995.479)">
    <g id="Grupo_117445" data-name="Grupo 117445" transform="translate(-28.844 -585.481)">
      <g id="Elipse_17844" data-name="Elipse 17844" transform="translate(-2775 -3409.998)" fill="#fff" stroke="#6677d6" stroke-width="4">
        <circle cx="66.5" cy="66.5" r="66.5" stroke="none"/>
        <circle cx="66.5" cy="66.5" r="64.5" fill="none"/>
      </g>
      <g id="beneficios" transform="translate(-2755.047 -3392.636)">
        <path id="Trazado_177972" data-name="Trazado 177972" d="M174.351,25,152.233,4.281,130.115,25H140.2V93.944h24.069V25Z" transform="translate(-82.966 -2.901)" fill="#c6412a"/>
        <path id="Trazado_177973" data-name="Trazado 177973" d="M60.663,124.762a33.275,33.275,0,0,1-45.152,1.8q-1-.853-1.947-1.8a33.3,33.3,0,0,1,47.1-47.1q.946.946,1.8,1.947a33.275,33.275,0,0,1-1.8,45.152Z" transform="translate(-2.43 -43.473)" fill="#ffef0f"/>
        <path id="Trazado_177974" data-name="Trazado 177974" d="M88.155,108.3,44.2,152.254a33.083,33.083,0,0,1-8.1-5.105L83.05,100.2A33.064,33.064,0,0,1,88.155,108.3Z" transform="translate(-23.018 -64.061)" fill="#fff56f"/>
        <path id="Trazado_177975" data-name="Trazado 177975" d="M75.378,112.706A26.773,26.773,0,1,1,65.575,92,26.771,26.771,0,0,1,75.378,112.706Z" transform="translate(-13.923 -54.966)" fill="#ffef0f"/>
        <path id="Trazado_177976" data-name="Trazado 177976" d="M65.575,92,27.9,129.675l0,0A26.77,26.77,0,0,1,65.575,92Z" transform="translate(-13.922 -54.966)" fill="#fff56f"/>
        <path id="Trazado_177977" data-name="Trazado 177977" d="M62.848,90.718l-36.232,36.23a26.515,26.515,0,0,1-2.225-5.605L57.243,88.491A26.513,26.513,0,0,1,62.848,90.718Z" transform="translate(-15.553 -56.596)" fill="#ffef0f"/>
        <path id="Trazado_177978" data-name="Trazado 177978" d="M172.865,21.561,150.748.844a1.381,1.381,0,0,0-1.887,0L126.742,21.561a1.381,1.381,0,0,0,.944,2.388h8.7v3.721a1.38,1.38,0,0,0,2.761,0v-5.1a1.38,1.38,0,0,0-1.38-1.38h-6.59L149.8,3.743l18.625,17.444h-6.59a1.38,1.38,0,0,0-1.38,1.38v47.25a1.38,1.38,0,0,0,2.761,0V23.949h8.7a1.38,1.38,0,0,0,.944-2.388Z" transform="translate(-80.537 -0.471)"/>
        <path id="Trazado_177979" data-name="Trazado 177979" d="M179.581,203.271a1.38,1.38,0,0,0-1.38,1.38v14.794H156.892v-1.174a1.38,1.38,0,1,0-2.761,0v2.555a1.38,1.38,0,0,0,1.38,1.38h24.07a1.38,1.38,0,0,0,1.38-1.38V204.652A1.381,1.381,0,0,0,179.581,203.271Z" transform="translate(-98.28 -129.784)"/>
        <path id="Trazado_177980" data-name="Trazado 177980" d="M69.367,98.783A34.723,34.723,0,0,0,34.683,64.1a1.38,1.38,0,0,0,0,2.761,31.886,31.886,0,1,1-6.259.613,1.38,1.38,0,1,0-.538-2.708,34.686,34.686,0,1,0,41.48,34.017Z" transform="translate(0 -41.043)"/>
        <path id="Trazado_177981" data-name="Trazado 177981" d="M26.293,130.206a28.152,28.152,0,1,0,0-39.813A28.064,28.064,0,0,0,26.293,130.206ZM46.2,84.92a25.379,25.379,0,1,1-17.954,7.425A25.312,25.312,0,0,1,46.2,84.92Z" transform="translate(-11.516 -52.559)"/>
        <path id="Trazado_177982" data-name="Trazado 177982" d="M73.207,136.5a1.38,1.38,0,1,0-2.761,0c0,3.931,3.38,7.2,7.776,7.771v1.3a1.38,1.38,0,0,0,2.761,0v-1.3c4.4-.573,7.776-3.839,7.776-7.771s-3.38-7.2-7.776-7.771V118.562c2.865.5,5.015,2.545,5.015,4.979a1.38,1.38,0,0,0,2.761,0c0-3.931-3.38-7.2-7.776-7.771v-1.3a1.38,1.38,0,0,0-2.761,0v1.3c-4.4.573-7.776,3.839-7.776,7.771s3.38,7.2,7.776,7.771v10.167C75.357,140.973,73.207,138.934,73.207,136.5ZM86,136.5c0,2.434-2.15,4.474-5.015,4.979v-9.957C83.848,132.026,86,134.066,86,136.5ZM73.207,123.54c0-2.434,2.15-4.474,5.015-4.979v9.957C75.357,128.014,73.207,125.974,73.207,123.54Z" transform="translate(-44.919 -72.28)"/>
      </g>
    </g>
  </g>
</svg>
