<svg xmlns="http://www.w3.org/2000/svg" width="80.411" height="80.601" viewBox="0 0 80.411 80.601">
  <g id="Grupo_117513" data-name="Grupo 117513" transform="translate(2367.032 3491.093)">
    <g id="casa" transform="translate(-2367.032 -3491.093)">
      <g id="Grupo_116345" data-name="Grupo 116345" transform="translate(0 0)">
        <g id="Grupo_116343" data-name="Grupo 116343" transform="translate(1.182 1.183)">
          <path id="Trazado_178073" data-name="Trazado 178073" d="M47.367,6.731,48.6,8.467V28.213l-1.232,4.195,11.777-7.263V6.731Z" transform="translate(-23.744 -4.375)" fill="#a3ade6"/>
          <path id="Trazado_178074" data-name="Trazado 178074" d="M93.5,76.485H48.926V38.06L71.214,23.119,93.5,38.693Z" transform="translate(-24.483 -12.148)" fill="#c6412a"/>
          <path id="Trazado_178075" data-name="Trazado 178075" d="M60.692,37.889,71.052,30.9a.973.973,0,0,1,1.089,0L93.5,45.308V38.693L74.206,25.21l-2.992-2.091L48.926,38.06V76.485H93.5V65.44L86.4,69.1a.886.886,0,0,1-1.121-.267,8.835,8.835,0,0,0-1.09-1.231,8.928,8.928,0,0,0-6.119-2.365H67.619a.876.876,0,0,1-.7-.337,13.442,13.442,0,0,0-7.707-4.91,1.555,1.555,0,0,1-1.2-1.522V42.923a6.073,6.073,0,0,1,2.677-5.035Z" transform="translate(-24.483 -12.148)" fill="#c6412a"/>
          <path id="Trazado_178076" data-name="Trazado 178076" d="M92.815,89.758a7.821,7.821,0,0,0-15.642,0v12.176H92.815Z" transform="translate(-37.881 -40.046)" fill="#f9f7f8"/>
          <path id="Trazado_178077" data-name="Trazado 178077" d="M92.815,100.369a9.338,9.338,0,0,0-1.344-.1H81.017a.877.877,0,0,1-.7-.337,13.476,13.476,0,0,0-3.149-2.949v12.087H92.815Z" transform="translate(-37.881 -47.183)" fill="#e5e1e5"/>
          <path id="Trazado_178078" data-name="Trazado 178078" d="M12.518,116.249c5.832.127,19.235.514,19.235.514l13.493,6.647,8.887,1.173,7.664-3.754L77.343,110.1l6.369-5.669a3.447,3.447,0,0,0-4.743-1.683l-13.55,6.981a.1.1,0,0,1-.147-.089,5.594,5.594,0,0,0-5.593-5.432H46.894a10.306,10.306,0,0,0-9.158-5.577h-3.25a10.3,10.3,0,0,0-6.886,2.637l-1.76,1.579H9.861V112.3h2.657Z" transform="translate(-5.955 -47.963)" fill="#fed2a4"/>
          <path id="Trazado_178079" data-name="Trazado 178079" d="M9.861,116.251h2.657v4.407H9.861Z" transform="translate(-5.955 -56.322)" fill="#ffbd86"/>
          <path id="Trazado_178080" data-name="Trazado 178080" d="M83.507,107.833a3.457,3.457,0,0,0-.3-.421,3.471,3.471,0,0,1-.687.63l-20.633,14.34a17.967,17.967,0,0,1-18.248,1.334l-10.933-5.434a2.089,2.089,0,0,0-.93-.218H27.991a2.706,2.706,0,0,1-2.706-2.706v-8.711H9.861V116.1h2.657v6.368h19.75l11.372,5.652a17.967,17.967,0,0,0,18.248-1.334l20.633-14.34a3.449,3.449,0,0,0,.986-4.616Z" transform="translate(-5.954 -51.766)" fill="#ffbd86"/>
          <g id="XMLID_143_" transform="translate(0 50.701)">
            <g id="Grupo_116341" data-name="Grupo 116341">
              <path id="Trazado_178081" data-name="Trazado 178081" d="M15.1,98.7H3.716A1.286,1.286,0,0,0,2.43,99.982V105.5l4.665,3.055h9.445l2.067-3.055V102.2A3.506,3.506,0,0,0,15.1,98.7Z" transform="translate(-2.43 -98.697)" fill="#6677d6"/>
              <path id="Trazado_178082" data-name="Trazado 178082" d="M5.456,127.99l10.848-.305,1.708-2.271.593-6.808v-6.977H2.43v9.2l.938,6.372s2.1.793,2.088.793Z" transform="translate(-2.43 -104.831)" fill="#6677d6"/>
              <path id="Trazado_178083" data-name="Trazado 178083" d="M15.1,128.406H3.716A1.286,1.286,0,0,1,2.43,127.12v6.687a1.286,1.286,0,0,0,1.286,1.286H15.1a3.5,3.5,0,0,0,3.5-3.5V124.9A3.5,3.5,0,0,1,15.1,128.406Z" transform="translate(-2.43 -111.126)" fill="#6677d6"/>
            </g>
          </g>
          <ellipse id="Elipse_15987" data-name="Elipse 15987" cx="2.668" cy="2.668" rx="2.668" ry="2.668" transform="translate(3.193 64.083)" fill="#d7d0d6"/>
          <g id="Grupo_116342" data-name="Grupo 116342" transform="translate(18.207 2.356)">
            <path id="Trazado_178084" data-name="Trazado 178084" d="M53.993,13.7h5.151V6.731H47.366V32.408l3.751-2.313,8.026-4.95V16.2l-6.431,4.337a.527.527,0,0,1-.822-.437V15.8a2.1,2.1,0,0,1,2.1-2.1Z" transform="translate(-41.951 -6.731)" fill="#6677d6"/>
            <path id="Trazado_178085" data-name="Trazado 178085" d="M91.4,41.488,66.352,24.594a.683.683,0,0,0-.764,0L40.54,41.488a.683.683,0,0,1-.948-.184l-2.41-3.574a.683.683,0,0,1,.184-.948L64.383,18.559a2.838,2.838,0,0,1,3.174,0L94.575,36.781a.683.683,0,0,1,.184.948L92.349,41.3A.683.683,0,0,1,91.4,41.488Z" transform="translate(-37.064 -12.111)" fill="#a3ade6"/>
          </g>
          <path id="Trazado_178086" data-name="Trazado 178086" d="M75.317,63.2H70.873a1.506,1.506,0,0,1-1.506-1.506V57.25a1.506,1.506,0,0,1,1.506-1.506h4.444a1.506,1.506,0,0,1,1.506,1.506v4.444A1.506,1.506,0,0,1,75.317,63.2Z" transform="translate(-34.179 -27.623)" fill="#a3ade6"/>
          <path id="Trazado_178087" data-name="Trazado 178087" d="M102.057,63.2H106.5a1.506,1.506,0,0,0,1.506-1.506V57.25a1.506,1.506,0,0,0-1.506-1.506h-4.444a1.506,1.506,0,0,0-1.506,1.506v4.444A1.506,1.506,0,0,0,102.057,63.2Z" transform="translate(-48.97 -27.623)" fill="#a3ade6"/>
          <path id="Trazado_178088" data-name="Trazado 178088" d="M47.347,2.572l-2.077.473s-.263,4.022-.263,4.206,1,.394,1,.394l12.958-.237L59.9,6.052V4.122A1.872,1.872,0,0,0,58.025,2.25h-9.9Z" transform="translate(-22.625 -2.25)" fill="#a3ade6"/>
          <path id="Trazado_178089" data-name="Trazado 178089" d="M49.424,6.052A1.872,1.872,0,0,1,47.553,4.18V2.25H45.678a1.872,1.872,0,0,0-1.872,1.872V6.544a1.872,1.872,0,0,0,1.872,1.872H57.455a1.872,1.872,0,0,0,1.872-1.872V6.052h-9.9Z" transform="translate(-22.055 -2.25)" fill="#6677d6"/>
        </g>
        <g id="Grupo_116344" data-name="Grupo 116344">
          <path id="Trazado_178090" data-name="Trazado 178090" d="M79.929,56.639a4.647,4.647,0,0,0-6.091-1.726l-2.273,1.171v-8.8a1.183,1.183,0,0,0-2.366,0V57.3l-7.581,3.905a6.807,6.807,0,0,0-4.139-4.529V50.895a9,9,0,0,0-18.008,0v1.661a11.471,11.471,0,0,0-6.328-1.892h-3.25a11.5,11.5,0,0,0-2.905.375V31.683L48.476,17.191,69.2,31.167V42.246a1.183,1.183,0,0,0,2.366,0V32.763l1.68,1.133a1.866,1.866,0,0,0,2.591-.5l2.411-3.574a1.868,1.868,0,0,0-.5-2.59L50.725,9.006a4,4,0,0,0-4.5,0l-8.281,5.585v-6.3a3.059,3.059,0,0,0,1.872-2.816V3.054A3.058,3.058,0,0,0,36.763,0H24.986a3.058,3.058,0,0,0-3.054,3.054V5.477A3.059,3.059,0,0,0,23.8,8.293v3.625a1.183,1.183,0,0,0,2.366,0V8.531H35.58v7.655l-9.411,6.347V16.958a1.183,1.183,0,0,0-2.366,0v7.171l-4.594,3.1a1.868,1.868,0,0,0-.5,2.591l2.41,3.574a1.853,1.853,0,0,0,1.191.789,1.884,1.884,0,0,0,.36.035,1.852,1.852,0,0,0,1.039-.32l.916-.618V51.947a11.5,11.5,0,0,0-2.4,1.657L20.8,54.881h-2.1a4.694,4.694,0,0,0-4.66-4.179H1.364a1.183,1.183,0,1,0,0,2.366H14.035a2.325,2.325,0,0,1,2.323,2.323V57.5H1.364a1.183,1.183,0,1,0,0,2.366H16.357v12.48a2.325,2.325,0,0,1-2.323,2.323H1.364a1.183,1.183,0,1,0,0,2.366H14.035a4.7,4.7,0,0,0,4.632-3.964H27.4l2.811,1.4a1.183,1.183,0,0,0,1.053-2.118L28.2,70.828a1.182,1.182,0,0,0-.526-.124H18.723V57.247h2.526a1.182,1.182,0,0,0,.79-.3l1.76-1.579a9.128,9.128,0,0,1,2.45-1.575l.029-.012a9.119,9.119,0,0,1,3.617-.747h3.25a9.093,9.093,0,0,1,8.107,4.936,1.183,1.183,0,0,0,1.051.64H55.088A4.418,4.418,0,0,1,59.5,63.019v.622a.7.7,0,0,1-.7.7H39.112a1.183,1.183,0,1,0,0,2.366H58.8a3.063,3.063,0,0,0,3.056-2.959l13.06-6.728a2.269,2.269,0,0,1,2.334,3.88L56.623,75.233A16.779,16.779,0,0,1,39.576,76.48L35.786,74.6a1.183,1.183,0,0,0-1.053,2.118l3.79,1.884a19.145,19.145,0,0,0,19.449-1.423L78.6,62.837a4.644,4.644,0,0,0,1.324-6.2ZM24.3,3.054a.69.69,0,0,1,.689-.689H36.763a.69.69,0,0,1,.689.689V5.477a.69.69,0,0,1-.689.689H24.986a.69.69,0,0,1-.689-.689Zm-1.5,28.6-1.852-2.746,26.6-17.942a1.649,1.649,0,0,1,1.852,0l26.6,17.942-1.852,2.746L49.519,15.041a1.857,1.857,0,0,0-2.086,0L25.148,30.071l-.006,0ZM43,56.241a11.53,11.53,0,0,0-1.159-1.6V50.895a6.638,6.638,0,0,1,13.276,0v5.347H43Z" transform="translate(-0.181 0)"/>
          <path id="Trazado_178091" data-name="Trazado 178091" d="M13.956,125.752a3.851,3.851,0,1,0-3.851,3.851A3.855,3.855,0,0,0,13.956,125.752Zm-5.337,0a1.486,1.486,0,1,1,1.486,1.485,1.487,1.487,0,0,1-1.486-1.485Z" transform="translate(-3.061 -57.819)"/>
          <path id="Trazado_178092" data-name="Trazado 178092" d="M69.805,54.694a2.692,2.692,0,0,0-2.688,2.688v4.444a2.691,2.691,0,0,0,2.688,2.688H74.25a2.692,2.692,0,0,0,2.688-2.688V57.383a2.691,2.691,0,0,0-2.688-2.688Zm4.767,2.689v4.444a.323.323,0,0,1-.323.323H69.805a.323.323,0,0,1-.323-.323V57.383a.323.323,0,0,1,.323-.323H74.25A.323.323,0,0,1,74.572,57.383Z" transform="translate(-31.929 -25.942)"/>
          <path id="Trazado_178093" data-name="Trazado 178093" d="M100.99,54.694A2.692,2.692,0,0,0,98.3,57.383v4.444a2.691,2.691,0,0,0,2.688,2.688h4.444a2.692,2.692,0,0,0,2.688-2.688V57.383a2.691,2.691,0,0,0-2.688-2.688Zm4.767,2.689v4.444a.323.323,0,0,1-.323.323H100.99a.323.323,0,0,1-.323-.323V57.383a.323.323,0,0,1,.323-.323h4.444A.323.323,0,0,1,105.757,57.383Z" transform="translate(-46.72 -25.942)"/>
        </g>
      </g>
    </g>
  </g>
</svg>
