<svg xmlns="http://www.w3.org/2000/svg" width="133" height="133" viewBox="0 0 133 133">
  <g id="Grupo_117523" data-name="Grupo 117523" transform="translate(3156.54 729.435)">
    <g id="Grupo_117454" data-name="Grupo 117454" transform="translate(-31.54 -2706.435)">
      <g id="Elipse_17843" data-name="Elipse 17843" transform="translate(-3125 1977)" fill="#fff" stroke="#6677d6" stroke-width="4">
        <circle cx="66.5" cy="66.5" r="66.5" stroke="none"/>
        <circle cx="66.5" cy="66.5" r="64.5" fill="none"/>
      </g>
      <g id="archivo" transform="translate(-3089.784 2004.68)">
        <g id="Grupo_116399" data-name="Grupo 116399" transform="translate(0 0)">
          <g id="Grupo_116396" data-name="Grupo 116396" transform="translate(1.063 1.063)">
            <g id="Grupo_116395" data-name="Grupo 116395">
              <g id="Grupo_116394" data-name="Grupo 116394">
                <g id="Grupo_116392" data-name="Grupo 116392">
                  <path id="Trazado_178262" data-name="Trazado 178262" d="M58.035,2.25H17.317A4.455,4.455,0,0,0,12.862,6.7V68.269a4.455,4.455,0,0,0,4.455,4.455H68.849A4.455,4.455,0,0,0,73.3,68.269V17.519a4.455,4.455,0,0,0-1.3-3.15L61.185,3.555a4.455,4.455,0,0,0-3.15-1.3Z" transform="translate(-12.862 -2.25)" fill="#dee4f0"/>
                </g>
                <g id="Grupo_116393" data-name="Grupo 116393" transform="translate(0.071 5.688)">
                  <path id="Trazado_178263" data-name="Trazado 178263" d="M72.078,20.715l-6.43-6.43V70.946A4.455,4.455,0,0,1,61.193,75.4H13.012A4.455,4.455,0,0,0,17.4,79.07H68.928a4.455,4.455,0,0,0,4.455-4.455V23.865a4.455,4.455,0,0,0-1.3-3.15Z" transform="translate(-13.012 -14.285)" fill="#d2e1f1"/>
                </g>
                <path id="Trazado_178264" data-name="Trazado 178264" d="M124.456,14.817,113.642,4a4.449,4.449,0,0,0-1.3-.9V14.425a1.7,1.7,0,0,0,1.7,1.7H125.36A4.453,4.453,0,0,0,124.456,14.817Z" transform="translate(-65.319 -2.698)" fill="#6677d6"/>
              </g>
            </g>
          </g>
          <g id="Grupo_116398" data-name="Grupo 116398">
            <g id="Grupo_116397" data-name="Grupo 116397">
              <path id="Trazado_178265" data-name="Trazado 178265" d="M28.175,53.4H73.02a1.063,1.063,0,1,0,0-2.127H28.175a1.063,1.063,0,1,0,0,2.127Z" transform="translate(-19.313 -27.036)"/>
              <path id="Trazado_178266" data-name="Trazado 178266" d="M28.175,73.8H73.02a1.063,1.063,0,1,0,0-2.127H28.175a1.063,1.063,0,1,0,0,2.127Z" transform="translate(-19.313 -37.794)"/>
              <path id="Trazado_178267" data-name="Trazado 178267" d="M28.175,94.195H73.02a1.063,1.063,0,0,0,0-2.127H28.175a1.063,1.063,0,1,0,0,2.127Z" transform="translate(-19.313 -48.551)"/>
              <path id="Trazado_178268" data-name="Trazado 178268" d="M28.175,114.594H62.194a1.063,1.063,0,1,0,0-2.127H28.175a1.063,1.063,0,1,0,0,2.127Z" transform="translate(-19.313 -59.309)"/>
              <path id="Trazado_178269" data-name="Trazado 178269" d="M71.565,12.43,60.751,1.616A5.482,5.482,0,0,0,56.849,0H16.131a5.525,5.525,0,0,0-5.518,5.518v6.495a1.063,1.063,0,0,0,2.127,0V5.518a3.4,3.4,0,0,1,3.391-3.391H56.849a3.412,3.412,0,0,1,.782.091V12.791a2.763,2.763,0,0,0,2.76,2.76H70.963a3.412,3.412,0,0,1,.091.782V51.748a1.063,1.063,0,1,0,2.127,0V16.332a5.482,5.482,0,0,0-1.616-3.9Zm-11.174.993a.634.634,0,0,1-.633-.633V3.631l9.793,9.793Z" transform="translate(-10.612 0)"/>
              <path id="Trazado_178270" data-name="Trazado 178270" d="M72.117,73.388a1.064,1.064,0,0,0-1.063,1.063V84.819a3.4,3.4,0,0,1-3.391,3.391H16.131a3.4,3.4,0,0,1-3.391-3.391V34.7a1.063,1.063,0,0,0-2.127,0V84.819a5.525,5.525,0,0,0,5.518,5.518H67.662a5.525,5.525,0,0,0,5.518-5.518V74.452A1.064,1.064,0,0,0,72.117,73.388Z" transform="translate(-10.612 -17.737)"/>
            </g>
          </g>
        </g>
      </g>
    </g>
  </g>
</svg>
