<svg xmlns="http://www.w3.org/2000/svg" width="76.933" height="80.763" viewBox="0 0 76.933 80.763">
  <g id="Grupo_117510" data-name="Grupo 117510" transform="translate(2833.281 3508.89)">
    <g id="administracion-del-dinero" transform="translate(-2833.281 -3508.89)">
      <g id="Grupo_116337" data-name="Grupo 116337" transform="translate(0 0)">
        <g id="Grupo_116336" data-name="Grupo 116336" transform="translate(1.179 1.183)">
          <path id="Trazado_178059" data-name="Trazado 178059" d="M78.027,41.44a34.856,34.856,0,0,0-1.37-9.7,1.1,1.1,0,0,1,.507-1.262l2.746-1.585a1.1,1.1,0,0,0,.4-1.508L73.927,16.318a1.1,1.1,0,0,0-1.508-.4L69.669,17.5a1.1,1.1,0,0,1-1.347-.192A34.815,34.815,0,0,0,51.5,7.592a1.1,1.1,0,0,1-.84-1.071V3.354a1.1,1.1,0,0,0-1.1-1.1H36.787a1.1,1.1,0,0,0-1.1,1.1V6.521a1.1,1.1,0,0,1-.84,1.071A34.815,34.815,0,0,0,18.026,17.31a1.1,1.1,0,0,1-1.347.192l-2.75-1.588a1.1,1.1,0,0,0-1.508.4L6.033,27.381a1.1,1.1,0,0,0,.4,1.508l2.746,1.585a1.1,1.1,0,0,1,.508,1.262,35.04,35.04,0,0,0,0,19.422,1.1,1.1,0,0,1-.507,1.263l-2.75,1.588a1.1,1.1,0,0,0-.4,1.508l6.387,11.063a1.1,1.1,0,0,0,1.508.4l2.761-1.594a1.1,1.1,0,0,1,1.347.192,34.815,34.815,0,0,0,16.807,9.708,1.1,1.1,0,0,1,.84,1.071v3.183a1.1,1.1,0,0,0,1.1,1.1H49.561a1.1,1.1,0,0,0,1.1-1.1V76.36a1.1,1.1,0,0,1,.84-1.071,34.815,34.815,0,0,0,16.807-9.708,1.1,1.1,0,0,1,1.347-.192l2.761,1.594a1.1,1.1,0,0,0,1.508-.4l6.387-11.063a1.1,1.1,0,0,0-.4-1.508l-2.75-1.588a1.1,1.1,0,0,1-.507-1.263,34.872,34.872,0,0,0,1.374-9.717Z" transform="translate(-5.885 -2.25)" fill="#6677d6"/>
          <ellipse id="Elipse_15983" data-name="Elipse 15983" cx="25.44" cy="25.128" rx="25.44" ry="25.128" transform="translate(11.849 14.062)" fill="#fff"/>
          <path id="Trazado_178060" data-name="Trazado 178060" d="M106.8,54.008l-2.75-1.588a1.1,1.1,0,0,1-.507-1.262,35.038,35.038,0,0,0,0-19.422,1.1,1.1,0,0,1,.508-1.262l2.746-1.585a1.1,1.1,0,0,0,.4-1.508l-6.387-11.063a1.1,1.1,0,0,0-1.508-.4L96.554,17.5a1.1,1.1,0,0,1-1.347-.192A34.816,34.816,0,0,0,78.39,7.592a1.1,1.1,0,0,1-.84-1.071V3.354a1.1,1.1,0,0,0-1.1-1.1H63.672a1.1,1.1,0,0,0-1.1,1.1V4.42a37.274,37.274,0,0,1,0,74.041v1.082a1.1,1.1,0,0,0,1.1,1.1H76.446a1.1,1.1,0,0,0,1.1-1.1V76.359a1.1,1.1,0,0,1,.84-1.071A34.815,34.815,0,0,0,95.2,65.581a1.1,1.1,0,0,1,1.347-.192L99.3,66.983a1.1,1.1,0,0,0,1.508-.4L107.2,55.516l-.4-1.508Z" transform="translate(-32.77 -2.25)" fill="#6677d6"/>
          <ellipse id="Elipse_15984" data-name="Elipse 15984" cx="17.609" cy="17.393" rx="17.609" ry="17.393" transform="translate(19.68 21.798)" fill="#ffef0f"/>
          <path id="Trazado_178061" data-name="Trazado 178061" d="M74.683,43.714a17.978,17.978,0,0,0-2.366.157,17.366,17.366,0,0,1,0,34.472,17.978,17.978,0,0,0,2.366.157,17.394,17.394,0,1,0,0-34.786Z" transform="translate(-37.395 -21.917)" fill="#fff56f"/>
        </g>
        <path id="Trazado_178062" data-name="Trazado 178062" d="M21.759,55.5a1.183,1.183,0,0,0-.145,1.666A26.689,26.689,0,0,0,68.733,40.373a26.624,26.624,0,0,0-53.245,0,25.785,25.785,0,0,0,2.882,11.918,1.183,1.183,0,0,0,2.1-1.083,23.442,23.442,0,0,1-2.619-10.835A24.259,24.259,0,1,1,42.11,64.318a24.327,24.327,0,0,1-18.684-8.674,1.183,1.183,0,0,0-1.666-.145Zm57.679-3.582-2.7-1.556a36.223,36.223,0,0,0,0-19.96l2.691-1.554a2.311,2.311,0,0,0,.837-3.124L73.888,14.659a2.289,2.289,0,0,0-3.124-.837l-2.7,1.556a36.317,36.317,0,0,0-4.8-4.18,1.183,1.183,0,0,0-1.39,1.914A33.94,33.94,0,0,1,66.4,17.061a2.28,2.28,0,0,0,2.792.4l2.682-1.549,6.308,10.926-2.678,1.546A2.282,2.282,0,0,0,74.457,31a33.855,33.855,0,0,1,0,18.763A2.281,2.281,0,0,0,75.5,52.377l2.682,1.548L71.878,64.852,69.186,63.3a2.281,2.281,0,0,0-2.791.4,33.583,33.583,0,0,1-16.236,9.379,2.28,2.28,0,0,0-1.741,2.219v3.1H35.8v-3.1a2.28,2.28,0,0,0-1.741-2.219,33.584,33.584,0,0,1-16.236-9.379,2.281,2.281,0,0,0-2.791-.4l-2.692,1.554L6.034,53.926l2.682-1.548a2.281,2.281,0,0,0,1.052-2.616A33.856,33.856,0,0,1,9.764,31a2.282,2.282,0,0,0-1.052-2.615L6.034,26.836,12.342,15.91l2.682,1.549a2.28,2.28,0,0,0,2.792-.4A33.584,33.584,0,0,1,34.061,7.673,2.28,2.28,0,0,0,35.8,5.454V2.366H48.419V5.454A2.28,2.28,0,0,0,50.16,7.673a33.5,33.5,0,0,1,7.1,2.625,1.183,1.183,0,1,0,1.066-2.112,35.859,35.859,0,0,0-7.544-2.8v-3.1A2.289,2.289,0,0,0,48.5,0H35.723a2.289,2.289,0,0,0-2.287,2.287v3.1a35.946,35.946,0,0,0-17.284,9.988l-2.7-1.557a2.29,2.29,0,0,0-3.124.837L3.945,25.722a2.3,2.3,0,0,0,.837,3.124L7.474,30.4a36.223,36.223,0,0,0,0,19.96l-2.7,1.556a2.3,2.3,0,0,0-.837,3.124L10.333,66.1a2.29,2.29,0,0,0,3.124.837l2.706-1.562a35.941,35.941,0,0,0,17.274,9.978v3.12a2.289,2.289,0,0,0,2.287,2.287H48.5a2.289,2.289,0,0,0,2.287-2.287v-3.12a35.95,35.95,0,0,0,17.274-9.978l2.706,1.562a2.29,2.29,0,0,0,3.124-.837l6.387-11.063a2.308,2.308,0,0,0-.837-3.124ZM42.11,58.949A18.577,18.577,0,1,0,23.319,40.373,18.706,18.706,0,0,0,42.11,58.949Zm0-34.786a16.212,16.212,0,1,1-16.426,16.21A16.337,16.337,0,0,1,42.11,24.163ZM40.063,48.287a2.082,2.082,0,0,1-1.887-2.229,1.183,1.183,0,0,0-2.366,0,4.438,4.438,0,0,0,4.253,4.594h.864v1.4a1.183,1.183,0,0,0,2.366,0v-1.4h.864a4.438,4.438,0,0,0,4.253-4.594V43.784a4.439,4.439,0,0,0-4.253-4.594h-.864V32.459h.864a2.082,2.082,0,0,1,1.887,2.229,1.183,1.183,0,0,0,2.366,0,4.438,4.438,0,0,0-4.253-4.594h-.864v-1.4a1.183,1.183,0,0,0-2.366,0v1.4h-.864a4.438,4.438,0,0,0-4.253,4.594v2.274a4.439,4.439,0,0,0,4.253,4.594h.864v6.731Zm3.229-6.732h.864a2.082,2.082,0,0,1,1.887,2.229v2.274a2.082,2.082,0,0,1-1.887,2.229h-.864ZM40.064,39.19a2.082,2.082,0,0,1-1.887-2.229V34.687a2.082,2.082,0,0,1,1.887-2.229h.864V39.19Z" transform="translate(-3.642 0)"/>
      </g>
    </g>
  </g>
</svg>
