<svg xmlns="http://www.w3.org/2000/svg" width="133" height="133" viewBox="0 0 133 133">
  <g id="Grupo_117502" data-name="Grupo 117502" transform="translate(2591.475 3995.479)">
    <g id="Grupo_117446" data-name="Grupo 117446" transform="translate(-167.475 -585.481)">
      <g id="Elipse_17846" data-name="Elipse 17846" transform="translate(-2424 -3409.998)" fill="#fff" stroke="#6677d6" stroke-width="4">
        <circle cx="66.5" cy="66.5" r="66.5" stroke="none"/>
        <circle cx="66.5" cy="66.5" r="64.5" fill="none"/>
      </g>
      <g id="educacion" transform="translate(-2401.659 -3386.398)">
        <g id="Grupo_116296" data-name="Grupo 116296" transform="translate(0 0)">
          <g id="Grupo_116295" data-name="Grupo 116295" transform="translate(1.499 1.076)">
            <path id="Trazado_177983" data-name="Trazado 177983" d="M92.332,119.068a17.218,17.218,0,0,0-.1,12.752l1.4,2.751H33.009s-11.287-6.342,0-17.629l60.1-1.239Z" transform="translate(-19.922 -78.081)" fill="#f1f2f2"/>
            <path id="Trazado_177984" data-name="Trazado 177984" d="M93.635,134.571H33.01s-11.287-6.342,0-17.629l60.1-1.239-.779,3.365a16.51,16.51,0,0,0-.856,2.735H36.464a3.863,3.863,0,1,0,0,7.727H91.5a14.84,14.84,0,0,0,.733,2.29Z" transform="translate(-19.923 -78.08)" fill="#dee1e1"/>
            <path id="Trazado_177985" data-name="Trazado 177985" d="M86.747,133.181l-55.416-.087c-6.639,0-12.341-4.235-12.341-10.874,0-1.466-.255-3.389.225-4.688a12.026,12.026,0,0,1,11.278-7.85H87.345a2.711,2.711,0,0,1,0,5.423H44.319l-4.2.986-3.654-.986H30.494a6.6,6.6,0,1,0,0,13.2H87.345a2.713,2.713,0,0,1,2.693,3.031C89.88,132.678,88.137,133.181,86.747,133.181Z" transform="translate(-13.953 -74.117)" fill="#6677d6"/>
            <path id="Trazado_177986" data-name="Trazado 177986" d="M89.169,145.111a2.71,2.71,0,0,1-2.692,2.393l-28.087,1.683L29.626,147.5a12.027,12.027,0,0,1-11-16.886v2.471a12.021,12.021,0,0,0,12.022,12.022Z" transform="translate(-13.085 -87.897)" fill="#a3ade6"/>
            <path id="Trazado_177987" data-name="Trazado 177987" d="M78.517,133.451v-7.9H72.883l-2,.2.12,7.362a.342.342,0,0,0,.466.318l1.414-.346,1.582-.619a.341.341,0,0,1,.249,0l3.337,1.307A.342.342,0,0,0,78.517,133.451Z" transform="translate(-48.152 -84.559)" fill="#c6412a"/>
            <path id="Trazado_177988" data-name="Trazado 177988" d="M72.457,125.548v7.535l-1.755.687a.342.342,0,0,1-.467-.318v-7.9Z" transform="translate(-47.726 -84.56)" fill="#d83724"/>
            <path id="Trazado_177989" data-name="Trazado 177989" d="M100.123,87.336V91.19L99.952,92.9a1.2,1.2,0,0,1-1.2,1.2l-45.549-.171a1.2,1.2,0,0,1-1.2-1.2l-.342-5.392,23.383-1.117Z" transform="translate(-35.505 -58.675)" fill="#ffef0f"/>
            <path id="Trazado_177990" data-name="Trazado 177990" d="M221.238,98.9c-1.07,2.637-2.146,5.239-3.217,7.877a2.394,2.394,0,0,0,2.2,3.3l1.978.171h4.813a2.394,2.394,0,0,0,2.2-3.3l-2.231-5.5-1.4-2.548h-4.335Z" transform="translate(-144.877 -67.021)" fill="#ffef0f"/>
            <path id="Trazado_177991" data-name="Trazado 177991" d="M222.632,101.551a6.5,6.5,0,0,0,4.015-.972l-1.2-3-1.983.593h0l-2.585-.345c-.326.8-.8,1.948-1.127,2.753h0l-2.231,5.5a2.394,2.394,0,0,0,2.2,3.3h2.735a2.394,2.394,0,0,1-2.2-3.3l1.666-4.106a.691.691,0,0,1,.709-.422Z" transform="translate(-144.55 -66.153)" fill="#fff56f"/>
            <path id="Trazado_177992" data-name="Trazado 177992" d="M231.352,82.778a3.981,3.981,0,0,0-2.664-3.768c-.4-.139-.986.109-1.434.109a3.357,3.357,0,0,0-3.52,3.659c0,2.2,1.63,3.519,3.809,3.519.449,0,.743.388,1.145.249a3.981,3.981,0,0,0,2.664-3.768Z" transform="translate(-148.756 -53.903)" fill="#ffef0f"/>
            <path id="Trazado_177993" data-name="Trazado 177993" d="M228.164,86.213a3.888,3.888,0,0,1-1.282.215,3.983,3.983,0,0,1,0-7.966,3.888,3.888,0,0,1,1.282.215,4,4,0,0,0,0,7.535Z" transform="translate(-148.232 -53.57)" fill="#fff56f"/>
            <path id="Trazado_177994" data-name="Trazado 177994" d="M84.982,21.362l-11.273,3.9-3.076-.316L48.752,33.9a7.171,7.171,0,0,1-4.693,0L22.178,25.3,19.1,25.265l-11.274-3.9a1.434,1.434,0,0,1,0-2.711L44.486,5.961a5.864,5.864,0,0,1,3.837,0l36.659,12.69A1.434,1.434,0,0,1,84.982,21.362Z" transform="translate(-6.015 -5.638)" fill="#868491"/>
            <path id="Trazado_177995" data-name="Trazado 177995" d="M97.276,46.17v1.157l-24.958,8.64a7.171,7.171,0,0,1-4.693,0l-24.956-8.64V46.17a5.028,5.028,0,0,1,4.143-4.953,131.264,131.264,0,0,1,46.322,0,5.032,5.032,0,0,1,4.143,4.953Z" transform="translate(-29.582 -27.7)" fill="#77777f"/>
            <path id="Trazado_177996" data-name="Trazado 177996" d="M100.781,52.094V62.285H52.839l-.171-9.85a1.956,1.956,0,0,1,1.61-1.924c.488-.088.635-.514,1.124-.6a128.149,128.149,0,0,1,43.769.254,1.957,1.957,0,0,1,1.61,1.924Z" transform="translate(-36.164 -33.624)" fill="#868491"/>
            <path id="Trazado_177997" data-name="Trazado 177997" d="M100.123,91.19v1.88a1.2,1.2,0,0,1-1.2,1.2H52.864a1.2,1.2,0,0,1-1.2-1.2V87.336l1.538-1.117,1.538,1.117v3a.855.855,0,0,0,.855.855Z" transform="translate(-35.505 -58.675)" fill="#fff56f"/>
            <path id="Trazado_177998" data-name="Trazado 177998" d="M54.744,53.3V65.671H51.668V55.48a1.956,1.956,0,0,1,1.61-1.924C53.767,53.468,54.256,53.383,54.744,53.3Z" transform="translate(-35.505 -37.01)" fill="#77777f"/>
            <path id="Trazado_177999" data-name="Trazado 177999" d="M89.414,204.924a16.081,16.081,0,0,1,0-12.308l.52-2.31H20.047s-7.867,8.553.511,16.931l69.831.524Z" transform="translate(-12.488 -127.182)" fill="#f1f2f2"/>
            <path id="Trazado_178000" data-name="Trazado 178000" d="M90.389,207.761l-69.83-.523c-8.38-8.378-.511-16.93-.511-16.93l70.223.13-.855,2.179a16.016,16.016,0,0,0-.764,2.331H24.51a3.863,3.863,0,1,0,0,7.727H88.671a16.211,16.211,0,0,0,.743,2.251Z" transform="translate(-12.488 -127.184)" fill="#dee1e1"/>
            <path id="Trazado_178001" data-name="Trazado 178001" d="M82.877,203.46l-63.186-.116c-6.639,0-12.48-3.747-12.48-10.386,0-2.107-.515-5.008.437-6.73a12.018,12.018,0,0,1,10.527-6.212h65.89a2.711,2.711,0,1,1,0,5.423H67.739l-4.266.944-3.59-.944H18.175a6.6,6.6,0,1,0,0,13.2h65.89a2.714,2.714,0,0,1,2.667,3.2c-.231,1.264-2.525,1.623-3.855,1.623Z" transform="translate(-6.153 -120.41)" fill="#c6412a"/>
            <path id="Trazado_178002" data-name="Trazado 178002" d="M84.963,212.549a2.714,2.714,0,0,1-2.668,2.222H16.406A12.023,12.023,0,0,1,6.264,196.292v4.235a12.021,12.021,0,0,0,12.022,12.022Z" transform="translate(-4.384 -131.123)" fill="#d83724"/>
            <path id="Trazado_178003" data-name="Trazado 178003" d="M169.842,203.843v-7.969H164.55l-2.348.143.126,7.484a.342.342,0,0,0,.466.318l1.755-.479,1.24-.486a.341.341,0,0,1,.249,0l3.337,1.307a.342.342,0,0,0,.466-.318Z" transform="translate(-108.257 -130.848)" fill="#ffef0f"/>
            <path id="Trazado_178004" data-name="Trazado 178004" d="M164.134,195.872v7.467l-2.1.82a.342.342,0,0,1-.467-.318v-7.97Z" transform="translate(-107.841 -130.847)" fill="#fff56f"/>
          </g>
          <path id="Trazado_178005" data-name="Trazado 178005" d="M87.235,42.454,84.39,35.441a5.208,5.208,0,0,0-2.643-8.4c0-.337,0-8.784,0-9.142a2.66,2.66,0,0,0-1.811-2.544L43.9,2.877a7.076,7.076,0,0,0-4.611,0L30.315,5.983a1.282,1.282,0,1,0,.839,2.422L40.126,5.3a4.5,4.5,0,0,1,2.934,0L79.1,17.775a.128.128,0,0,1,0,.243L66.692,22.312v-.384a3.2,3.2,0,0,0-2.638-3.153,126.819,126.819,0,0,0-44.921,0,3.2,3.2,0,0,0-2.638,3.153v.384L4.089,18.018a.128.128,0,0,1,0-.243L25.4,10.4a1.282,1.282,0,1,0-.839-2.422L3.25,15.353a2.692,2.692,0,0,0,0,5.088l13.245,4.585V37.711A13.3,13.3,0,0,0,10.432,62,13.3,13.3,0,0,0,13.3,88.292h65.89a3.993,3.993,0,0,0,.081-7.985,14.685,14.685,0,0,1-.031-10.636,3.993,3.993,0,0,0-.05-7.985H78.4a3.991,3.991,0,0,0-3.728-5.423h-.035a14.676,14.676,0,0,1-.242-9.958,3.6,3.6,0,0,0,2.647,1.161h6.844a3.606,3.606,0,0,0,2.993-1.6,3.648,3.648,0,0,0,.354-3.415ZM83.062,32.073a2.6,2.6,0,1,1-2.6-2.633A2.618,2.618,0,0,1,83.062,32.073ZM79.184,20.7v6.338a5.208,5.208,0,0,0-2.643,8.4l-.894,2.2H66.692V25.025Zm-59.6.6a124.287,124.287,0,0,1,44.016,0,.64.64,0,0,1,.527.63v8.736h-7.9a1.282,1.282,0,1,0,0,2.564h7.9v4.416H19.058V33.229h31.19a1.282,1.282,0,1,0,0-2.564H19.058V21.929a.64.64,0,0,1,.527-.63ZM80.622,65.68a1.431,1.431,0,0,1-1.43,1.43H13.3a7.88,7.88,0,1,0,0,15.759H63.92a1.282,1.282,0,1,0,0-2.564H13.3a5.316,5.316,0,1,1,0-10.632H53.729v7.185a1.282,1.282,0,0,0,1.749,1.193L58.939,76.7,62.4,78.052a1.282,1.282,0,0,0,1.749-1.193V69.673H76.522a17.2,17.2,0,0,0,.025,10.632H69.9a1.282,1.282,0,1,0,0,2.564h9.29a1.43,1.43,0,0,1,0,2.859H13.3a10.739,10.739,0,1,1,0-21.478h65.89A1.431,1.431,0,0,1,80.622,65.68Zm-24.33,3.993h5.293V74.98l-2.179-.853a1.281,1.281,0,0,0-.935,0l-2.179.853ZM34.353,58.827H74.674a1.43,1.43,0,1,1,0,2.859H17.822a10.739,10.739,0,0,1,0-21.478H74.607c-.317.85-.9,2.055-1.1,2.859H17.822a7.88,7.88,0,1,0,0,15.759H28.371a1.282,1.282,0,0,0,0-2.564H17.822a5.316,5.316,0,1,1,0-10.632h4.687v7.124a1.282,1.282,0,0,0,1.749,1.193l3.461-1.355,3.461,1.355a1.282,1.282,0,0,0,1.749-1.193V45.631H71.916a17.2,17.2,0,0,0,0,10.632H34.353a1.282,1.282,0,0,0,0,2.564Zm-9.281-13.2h5.293v5.245l-2.179-.853a1.281,1.281,0,0,0-.935,0l-2.179.853Zm59.683-1.194a1.039,1.039,0,0,1-.867.466H77.044a1.039,1.039,0,0,1-.867-.466,1.075,1.075,0,0,1-.105-1.019l2.622-6.464a5.131,5.131,0,0,0,3.544,0l2.622,6.464A1.074,1.074,0,0,1,84.755,44.437Z" transform="translate(0 -2.491)"/>
        </g>
      </g>
    </g>
  </g>
</svg>
