<svg xmlns="http://www.w3.org/2000/svg" width="133" height="133" viewBox="0 0 133 133">
  <g id="Grupo_117527" data-name="Grupo 117527" transform="translate(2635.556 538.435)">
    <g id="Grupo_117460" data-name="Grupo 117460" transform="translate(-1247.042 -2683.435)">
      <g id="Elipse_17849" data-name="Elipse 17849" transform="translate(-1388.513 2145)" fill="#fff" stroke="#6677d6" stroke-width="4">
        <circle cx="66.5" cy="66.5" r="66.5" stroke="none"/>
        <circle cx="66.5" cy="66.5" r="64.5" fill="none"/>
      </g>
      <g id="evaluacion" transform="translate(-1351.763 2167.117)">
        <g id="Grupo_116418" data-name="Grupo 116418" transform="translate(0 0)">
          <g id="Grupo_116405" data-name="Grupo 116405" transform="translate(1.298 12.742)">
            <path id="Trazado_178284" data-name="Trazado 178284" d="M75.026,111.492H26.685a2.623,2.623,0,0,1-2.623-2.623V39.388a2.623,2.623,0,0,1,2.623-2.623H75.026a2.623,2.623,0,0,1,2.623,2.623v69.481A2.623,2.623,0,0,1,75.026,111.492Z" transform="translate(-24.062 -36.765)" fill="#dee4f0"/>
          </g>
          <g id="Grupo_116406" data-name="Grupo 116406" transform="translate(48.8 12.741)">
            <path id="Trazado_178285" data-name="Trazado 178285" d="M167.209,39.387v69.481a2.622,2.622,0,0,1-2.623,2.623h-3.462a2.622,2.622,0,0,0,2.623-2.623V39.387a2.623,2.623,0,0,0-2.623-2.623h3.462A2.623,2.623,0,0,1,167.209,39.387Z" transform="translate(-161.124 -36.764)" fill="#d2e1f1"/>
          </g>
          <g id="Grupo_116407" data-name="Grupo 116407" transform="translate(15.225 1.298)">
            <path id="Trazado_178286" data-name="Trazado 178286" d="M82.289,10.861V8.969a5.175,5.175,0,1,0-10.349,0v1.892H65.288a1.045,1.045,0,0,0-1.04,1.049v6.558a1.044,1.044,0,0,0,1.04,1.049H88.941a1.045,1.045,0,0,0,1.04-1.049V11.91a1.044,1.044,0,0,0-1.04-1.049Z" transform="translate(-64.248 -3.746)" fill="#a3ade6"/>
          </g>
          <g id="Grupo_116408" data-name="Grupo 116408" transform="translate(26.361 1.299)">
            <path id="Trazado_178287" data-name="Trazado 178287" d="M103.283,8.97v1.892h-1.57A1.892,1.892,0,0,1,99.821,8.97a5.218,5.218,0,0,0-3.443-4.922,5.075,5.075,0,0,1,1.731-.3A5.2,5.2,0,0,1,103.283,8.97Z" transform="translate(-96.378 -3.747)" fill="#a3ade6"/>
          </g>
          <g id="Grupo_116409" data-name="Grupo 116409" transform="translate(36.457 8.413)">
            <path id="Trazado_178288" data-name="Trazado 178288" d="M130.01,25.326v6.558a1.044,1.044,0,0,1-1.039,1.049H125.51a1.044,1.044,0,0,0,1.039-1.049V25.326a1.044,1.044,0,0,0-1.039-1.049h3.462A1.044,1.044,0,0,1,130.01,25.326Z" transform="translate(-125.51 -24.276)" fill="#a3ade6"/>
          </g>
          <g id="Grupo_116417" data-name="Grupo 116417">
            <g id="Grupo_116410" data-name="Grupo 116410" transform="translate(39.51 33.167)">
              <ellipse id="Elipse_16000" data-name="Elipse 16000" cx="16.938" cy="16.938" rx="16.938" ry="16.938" fill="#6677d6"/>
            </g>
            <g id="Grupo_116411" data-name="Grupo 116411" transform="translate(46.808 34.508)">
              <path id="Trazado_178289" data-name="Trazado 178289" d="M181.955,115.168a16.939,16.939,0,0,1-26.578,13.927A16.94,16.94,0,0,0,171.634,99.57,16.94,16.94,0,0,1,181.955,115.168Z" transform="translate(-155.376 -99.57)" fill="#6677d6"/>
            </g>
            <g id="Grupo_116413" data-name="Grupo 116413" transform="translate(46.736 42.301)">
              <g id="Grupo_116412" data-name="Grupo 116412">
                <path id="Trazado_178290" data-name="Trazado 178290" d="M162.519,137.664a2.757,2.757,0,0,1-1.916-.775l-4.592-4.438a2.757,2.757,0,1,1,3.833-3.965l2.563,2.478,7.4-8.019a2.757,2.757,0,1,1,4.052,3.741l-9.318,10.092a2.757,2.757,0,0,1-1.947.886Z" transform="translate(-155.169 -122.057)" fill="#fee45a"/>
              </g>
            </g>
            <g id="Grupo_116415" data-name="Grupo 116415" transform="translate(51.186 42.58)">
              <g id="Grupo_116414" data-name="Grupo 116414">
                <path id="Trazado_178291" data-name="Trazado 178291" d="M182.253,127.211,172.934,137.3a2.763,2.763,0,0,1-1.948.886h-.078a2.76,2.76,0,0,1-1.916-.774l-.983-.95a2.874,2.874,0,0,0,.559.055c.028,0,.057,0,.085,0a2.935,2.935,0,0,0,2.074-.944l9.93-10.754a2.935,2.935,0,0,0,.779-1.96,2.729,2.729,0,0,1,.661.452A2.759,2.759,0,0,1,182.253,127.211Z" transform="translate(-168.009 -122.862)" fill="#fed402"/>
              </g>
            </g>
            <g id="Grupo_116416" data-name="Grupo 116416">
              <path id="Trazado_178292" data-name="Trazado 178292" d="M106.891,73.445a1.3,1.3,0,1,0,0-2.6H82.252a1.3,1.3,0,0,0,0,2.6Z" transform="translate(-59.938 -46.294)"/>
              <path id="Trazado_178293" data-name="Trazado 178293" d="M43.2,93.9a1.3,1.3,0,0,0,1.3,1.3H74.783a1.3,1.3,0,1,0,0-2.6H44.5A1.3,1.3,0,0,0,43.2,93.9Z" transform="translate(-35.272 -60.507)"/>
              <path id="Trazado_178294" data-name="Trazado 178294" d="M44.5,116.946h25.4a1.3,1.3,0,1,0,0-2.6H44.5a1.3,1.3,0,0,0,0,2.6Z" transform="translate(-35.272 -74.719)"/>
              <path id="Trazado_178295" data-name="Trazado 178295" d="M44.5,138.7h23.3a1.3,1.3,0,0,0,0-2.6H44.5a1.3,1.3,0,1,0,0,2.6Z" transform="translate(-35.272 -88.932)"/>
              <path id="Trazado_178296" data-name="Trazado 178296" d="M44.5,160.447h23.3a1.3,1.3,0,1,0,0-2.6H44.5a1.3,1.3,0,1,0,0,2.6Z" transform="translate(-35.272 -103.144)"/>
              <path id="Trazado_178297" data-name="Trazado 178297" d="M44.5,182.2h25.4a1.3,1.3,0,0,0,0-2.6H44.5a1.3,1.3,0,1,0,0,2.6Z" transform="translate(-35.272 -117.357)"/>
              <path id="Trazado_178298" data-name="Trazado 178298" d="M44.5,203.948H82.225a1.3,1.3,0,1,0,0-2.6H44.5a1.3,1.3,0,1,0,0,2.6Z" transform="translate(-35.272 -131.569)"/>
              <path id="Trazado_178299" data-name="Trazado 178299" d="M44.5,225.7H82.225a1.3,1.3,0,1,0,0-2.6H44.5a1.3,1.3,0,1,0,0,2.6Z" transform="translate(-35.272 -145.782)"/>
              <path id="Trazado_178300" data-name="Trazado 178300" d="M76.764,31.868c-.089,0-.177,0-.265.005V15.365a3.926,3.926,0,0,0-3.921-3.921H62.572V9.463a2.345,2.345,0,0,0-2.338-2.348H54.881V6.521a6.473,6.473,0,1,0-12.946,0v.594H36.581a2.346,2.346,0,0,0-2.338,2.348v1.981H24.237a3.926,3.926,0,0,0-3.921,3.921v6.149a1.3,1.3,0,1,0,2.6,0V15.365a1.326,1.326,0,0,1,1.325-1.325H34.243v1.981a2.346,2.346,0,0,0,2.338,2.348H60.234a2.346,2.346,0,0,0,2.338-2.348V14.04H72.578A1.326,1.326,0,0,1,73.9,15.365V32.091a18.064,18.064,0,0,0-7.945,3.323A1.3,1.3,0,1,0,67.5,37.5a15.63,15.63,0,1,1-3.814,4.023,1.3,1.3,0,1,0-2.17-1.426A18.24,18.24,0,0,0,73.9,68.116V84.845a1.326,1.326,0,0,1-1.325,1.325H24.237a1.326,1.326,0,0,1-1.325-1.325V27.538a1.3,1.3,0,0,0-2.6,0V84.845a3.926,3.926,0,0,0,3.921,3.921H72.578A3.926,3.926,0,0,0,76.5,84.845V68.338c.088,0,.176,0,.265,0a18.236,18.236,0,1,0,0-36.473Zm-16.789-16.1H36.84V9.712h6.393a1.3,1.3,0,0,0,1.3-1.3V6.521a3.876,3.876,0,1,1,7.752,0V8.413a1.3,1.3,0,0,0,1.3,1.3h6.393v6.06Z" transform="translate(-20.316 0)"/>
              <path id="Trazado_178301" data-name="Trazado 178301" d="M160.075,136.515l.116,0a4.079,4.079,0,0,0,2.864-1.3l9.318-10.092a4.056,4.056,0,1,0-5.959-5.5l-6.5,7.043L158.3,125.1a4.056,4.056,0,0,0-5.637,5.833l4.592,4.438A4.034,4.034,0,0,0,160.075,136.515Zm-5.641-9.508a1.461,1.461,0,0,1,2.063-.035l2.564,2.478a1.3,1.3,0,0,0,1.856-.053l7.4-8.02a1.438,1.438,0,0,1,2.062-.082,1.467,1.467,0,0,1,.082,2.062l-9.318,10.092a1.465,1.465,0,0,1-1.027.469h-.045a1.451,1.451,0,0,1-1.014-.41l-4.592-4.438A1.461,1.461,0,0,1,154.434,127.007Z" transform="translate(-105.99 -77.308)"/>
            </g>
          </g>
        </g>
      </g>
    </g>
  </g>
</svg>
