<svg xmlns="http://www.w3.org/2000/svg" width="133" height="133" viewBox="0 0 133 133">
  <g id="Grupo_117550" data-name="Grupo 117550" transform="translate(7564.781 -34.002)">
    <g id="Grupo_117307" data-name="Grupo 117307" transform="translate(-2531.665 -3608.498)">
      <g id="Elipse_17551" data-name="Elipse 17551" transform="translate(-5033.117 3642.5)" fill="#fff" stroke="#6677d6" stroke-width="4">
        <circle cx="66.5" cy="66.5" r="66.5" stroke="none"/>
        <circle cx="66.5" cy="66.5" r="64.5" fill="none"/>
      </g>
      <g id="compromiso" transform="translate(-5008.354 3667.262)">
        <g id="Grupo_117086" data-name="Grupo 117086" transform="translate(0)">
          <g id="Grupo_117084" data-name="Grupo 117084" transform="translate(1.223 1.223)">
            <path id="Trazado_178600" data-name="Trazado 178600" d="M30.6,32.233l7.474,7.474L70.872,72.5l7.474,7.474,3.471-4.169-7.792-7.792-31.46-31.46-7.792-7.792Z" transform="translate(-15.195 -14.354)" fill="#fff56f"/>
            <path id="Trazado_178601" data-name="Trazado 178601" d="M79.467,32.74l-7.315,7.315-32.1,32.1L32.74,79.467l-3.978-3.661,7.792-7.792,31.46-31.46,7.792-7.792Z" transform="translate(-14.354 -14.354)" fill="#fff56f"/>
            <g id="Grupo_117074" data-name="Grupo 117074" transform="translate(18.907 18.907)">
              <ellipse id="Elipse_16032" data-name="Elipse 16032" cx="21.608" cy="21.608" rx="21.608" ry="21.608" fill="#f8f6f6"/>
              <path id="Trazado_178602" data-name="Trazado 178602" d="M52.382,75.264H73.99a16.206,16.206,0,1,0-21.608,0Z" transform="translate(-41.578 -41.578)" fill="#fff56f"/>
              <path id="Trazado_178603" data-name="Trazado 178603" d="M75.225,37.04c-.632,0-1.257.029-1.875.082a21.608,21.608,0,0,1,0,43.052c.618.053,1.243.082,1.875.082a21.608,21.608,0,1,0,0-43.216Z" transform="translate(-53.617 -37.04)" fill="#e2e2e2"/>
              <path id="Trazado_178604" data-name="Trazado 178604" d="M87.681,63.186a16.159,16.159,0,0,1-5.408,12.078h3.755a16.205,16.205,0,0,0-10.8-28.284,16.366,16.366,0,0,0-1.875.109A16.208,16.208,0,0,1,87.681,63.186Z" transform="translate(-53.617 -41.578)" fill="#ffef0f"/>
              <circle id="Elipse_16033" data-name="Elipse 16033" cx="6.752" cy="6.752" r="6.752" transform="translate(12.051 17.557) rotate(-45)" fill="#f8f6f6"/>
              <path id="Trazado_178605" data-name="Trazado 178605" d="M73.126,81.77h-10.8a5.4,5.4,0,0,0-5.4,5.4v3.975a16.2,16.2,0,0,0,21.608,0V87.172A5.4,5.4,0,0,0,73.126,81.77Z" transform="translate(-46.116 -57.461)" fill="#f8f6f6"/>
              <g id="Grupo_117073" data-name="Grupo 117073" transform="translate(19.733 10.804)">
                <path id="Trazado_178606" data-name="Trazado 178606" d="M75.225,56.92a6.752,6.752,0,0,0-1.875.266,6.752,6.752,0,0,1,0,12.973A6.752,6.752,0,1,0,75.225,56.92Z" transform="translate(-73.35 -56.92)" fill="#e2e2e2"/>
                <path id="Trazado_178607" data-name="Trazado 178607" d="M88.992,87.172a5.4,5.4,0,0,0-5.4-5.4H79.84a5.4,5.4,0,0,1,5.4,5.4v6.487a16.236,16.236,0,0,0,3.75-2.512Z" transform="translate(-76.313 -68.265)" fill="#e2e2e2"/>
              </g>
            </g>
            <g id="Grupo_117075" data-name="Grupo 117075" transform="translate(14.408 14.408)">
              <path id="Trazado_178608" data-name="Trazado 178608" d="M34.773,28.762,30.6,32.233,34.977,36.6a14.662,14.662,0,0,0,3.565-4.074Z" transform="translate(-29.603 -28.762)" fill="#ffef0f"/>
              <path id="Trazado_178609" data-name="Trazado 178609" d="M110.406,111.955l4.372,4.372,3.471-4.169-3.769-3.769A14.662,14.662,0,0,0,110.406,111.955Z" transform="translate(-66.036 -65.115)" fill="#ffef0f"/>
              <path id="Trazado_178610" data-name="Trazado 178610" d="M32.531,108.389l-3.769,3.769,3.979,3.661,3.865-3.865A14.671,14.671,0,0,0,32.531,108.389Z" transform="translate(-28.762 -65.115)" fill="#ffef0f"/>
              <path id="Trazado_178611" data-name="Trazado 178611" d="M108.389,32.531a14.666,14.666,0,0,0,3.565,4.074l3.865-3.865-3.661-3.978Z" transform="translate(-65.115 -28.762)" fill="#ffef0f"/>
            </g>
            <g id="Grupo_117077" data-name="Grupo 117077" transform="translate(59.422)">
              <path id="Trazado_178612" data-name="Trazado 178612" d="M122.394,2.25a10.8,10.8,0,0,0-6.753,19.235h13.5A10.8,10.8,0,0,0,122.394,2.25Z" transform="translate(-111.59 -2.25)" fill="#a3ade6"/>
              <path id="Trazado_178613" data-name="Trazado 178613" d="M129.895,2.25a10.863,10.863,0,0,0-1.875.165,10.8,10.8,0,0,1,4.874,19.07h3.753A10.8,10.8,0,0,0,129.895,2.25Z" transform="translate(-119.091 -2.25)" fill="#6677d6"/>
              <ellipse id="Elipse_16034" data-name="Elipse 16034" cx="4.054" cy="4.054" rx="4.054" ry="4.054" transform="translate(5.483 7.371) rotate(-24.003)" fill="#f8f6f6"/>
              <path id="Trazado_178614" data-name="Trazado 178614" d="M127.148,27.1h-2.7a5.4,5.4,0,0,0-5.4,5.4v.328a10.794,10.794,0,0,0,13.505,0V32.5A5.4,5.4,0,0,0,127.148,27.1Z" transform="translate(-114.993 -13.595)" fill="#f8f6f6"/>
              <g id="Grupo_117076" data-name="Grupo 117076" transform="translate(8.929 5.402)">
                <path id="Trazado_178615" data-name="Trazado 178615" d="M129.895,12.19a4.033,4.033,0,0,0-1.875.46,4.051,4.051,0,0,1,0,7.183,4.051,4.051,0,1,0,1.875-7.643Z" transform="translate(-128.02 -12.19)" fill="#e2e2e2"/>
                <path id="Trazado_178616" data-name="Trazado 178616" d="M136.647,32.5a5.4,5.4,0,0,0-5.4-5.4h-2.7c-.177,0-.352.009-.525.026A5.4,5.4,0,0,1,132.9,32.5v2.275a10.784,10.784,0,0,0,3.75-1.947Z" transform="translate(-128.02 -18.997)" fill="#e2e2e2"/>
              </g>
            </g>
            <g id="Grupo_117079" data-name="Grupo 117079">
              <path id="Trazado_178617" data-name="Trazado 178617" d="M13.054,2.25A10.8,10.8,0,0,0,6.3,21.485h13.5A10.8,10.8,0,0,0,13.054,2.25Z" transform="translate(-2.25 -2.25)" fill="#a3ade6"/>
              <path id="Trazado_178618" data-name="Trazado 178618" d="M20.555,2.25a10.863,10.863,0,0,0-1.875.165,10.8,10.8,0,0,1,4.874,19.07h3.753A10.8,10.8,0,0,0,20.555,2.25Z" transform="translate(-9.751 -2.25)" fill="#6677d6"/>
              <ellipse id="Elipse_16035" data-name="Elipse 16035" cx="4.052" cy="4.052" rx="4.052" ry="4.052" transform="matrix(0.924, -0.383, 0.383, 0.924, 5.514, 7.259)" fill="#f8f6f6"/>
              <path id="Trazado_178619" data-name="Trazado 178619" d="M17.808,27.1h-2.7a5.4,5.4,0,0,0-5.4,5.4v.328a10.794,10.794,0,0,0,13.505,0V32.5A5.4,5.4,0,0,0,17.808,27.1Z" transform="translate(-5.653 -13.595)" fill="#f8f6f6"/>
              <g id="Grupo_117078" data-name="Grupo 117078" transform="translate(8.929 5.402)">
                <path id="Trazado_178620" data-name="Trazado 178620" d="M20.555,12.19a4.033,4.033,0,0,0-1.875.46,4.051,4.051,0,0,1,0,7.183,4.051,4.051,0,1,0,1.875-7.643Z" transform="translate(-18.68 -12.19)" fill="#e2e2e2"/>
                <path id="Trazado_178621" data-name="Trazado 178621" d="M27.307,32.5a5.4,5.4,0,0,0-5.4-5.4H19.2c-.177,0-.352.009-.524.026A5.4,5.4,0,0,1,23.557,32.5v2.275a10.784,10.784,0,0,0,3.75-1.947Z" transform="translate(-18.68 -18.997)" fill="#e2e2e2"/>
              </g>
            </g>
            <g id="Grupo_117081" data-name="Grupo 117081" transform="translate(59.422 59.422)">
              <path id="Trazado_178622" data-name="Trazado 178622" d="M122.394,111.59a10.8,10.8,0,0,0-6.753,19.235h13.5a10.8,10.8,0,0,0-6.752-19.235Z" transform="translate(-111.59 -111.59)" fill="#a3ade6"/>
              <path id="Trazado_178623" data-name="Trazado 178623" d="M129.895,111.59a10.862,10.862,0,0,0-1.875.165,10.8,10.8,0,0,1,4.874,19.07h3.753a10.8,10.8,0,0,0-6.753-19.235Z" transform="translate(-119.091 -111.59)" fill="#6677d6"/>
              <ellipse id="Elipse_16036" data-name="Elipse 16036" cx="4.052" cy="4.052" rx="4.052" ry="4.052" transform="translate(6.753 5.402)" fill="#f8f6f6"/>
              <path id="Trazado_178624" data-name="Trazado 178624" d="M127.148,136.44h-2.7a5.4,5.4,0,0,0-5.4,5.4v.328a10.794,10.794,0,0,0,13.505,0v-.328A5.4,5.4,0,0,0,127.148,136.44Z" transform="translate(-114.993 -122.935)" fill="#f8f6f6"/>
              <g id="Grupo_117080" data-name="Grupo 117080" transform="translate(8.929 5.402)">
                <path id="Trazado_178625" data-name="Trazado 178625" d="M129.895,121.53a4.031,4.031,0,0,0-1.875.46,4.051,4.051,0,0,1,0,7.183,4.051,4.051,0,1,0,1.875-7.643Z" transform="translate(-128.02 -121.53)" fill="#e2e2e2"/>
                <path id="Trazado_178626" data-name="Trazado 178626" d="M136.647,141.842a5.4,5.4,0,0,0-5.4-5.4h-2.7c-.177,0-.352.009-.525.026a5.4,5.4,0,0,1,4.878,5.376v2.275a10.784,10.784,0,0,0,3.75-1.947Z" transform="translate(-128.02 -128.337)" fill="#e2e2e2"/>
              </g>
            </g>
            <g id="Grupo_117083" data-name="Grupo 117083" transform="translate(0 59.422)">
              <path id="Trazado_178627" data-name="Trazado 178627" d="M13.054,111.59A10.8,10.8,0,0,0,6.3,130.825h13.5a10.8,10.8,0,0,0-6.752-19.235Z" transform="translate(-2.25 -111.59)" fill="#a3ade6"/>
              <path id="Trazado_178628" data-name="Trazado 178628" d="M20.555,111.59a10.862,10.862,0,0,0-1.875.165,10.8,10.8,0,0,1,4.874,19.07h3.753a10.8,10.8,0,0,0-6.753-19.235Z" transform="translate(-9.751 -111.59)" fill="#6677d6"/>
              <ellipse id="Elipse_16037" data-name="Elipse 16037" cx="4.052" cy="4.052" rx="4.052" ry="4.052" transform="translate(6.753 5.402)" fill="#f8f6f6"/>
              <path id="Trazado_178629" data-name="Trazado 178629" d="M17.808,136.44h-2.7a5.4,5.4,0,0,0-5.4,5.4v.328a10.794,10.794,0,0,0,13.505,0v-.328A5.4,5.4,0,0,0,17.808,136.44Z" transform="translate(-5.653 -122.935)" fill="#f8f6f6"/>
              <g id="Grupo_117082" data-name="Grupo 117082" transform="translate(8.929 5.402)">
                <path id="Trazado_178630" data-name="Trazado 178630" d="M20.555,121.53a4.031,4.031,0,0,0-1.875.46,4.051,4.051,0,0,1,0,7.183,4.051,4.051,0,1,0,1.875-7.643Z" transform="translate(-18.68 -121.53)" fill="#e2e2e2"/>
                <path id="Trazado_178631" data-name="Trazado 178631" d="M27.307,141.842a5.4,5.4,0,0,0-5.4-5.4H19.2c-.177,0-.352.009-.524.026a5.4,5.4,0,0,1,4.878,5.376v2.275a10.784,10.784,0,0,0,3.75-1.947Z" transform="translate(-18.68 -128.337)" fill="#e2e2e2"/>
              </g>
            </g>
          </g>
          <g id="Grupo_117085" data-name="Grupo 117085">
            <path id="Trazado_178632" data-name="Trazado 178632" d="M62.159,79.588A17.429,17.429,0,1,0,44.73,62.159,17.449,17.449,0,0,0,62.159,79.588ZM57.98,76.548V72.963a1.223,1.223,0,1,0-2.446,0V75.6a15.025,15.025,0,0,1-2.956-1.926V70.262a4.184,4.184,0,0,1,4.179-4.179h10.8a4.184,4.184,0,0,1,4.179,4.179v3.407A15.031,15.031,0,0,1,68.784,75.6V72.963a1.223,1.223,0,1,0-2.446,0v3.585a15,15,0,0,1-8.358,0Zm4.179-12.911a5.53,5.53,0,1,1,5.53-5.53A5.536,5.536,0,0,1,62.159,63.637Zm0-16.462A14.976,14.976,0,0,1,74.186,71.085v-.823a6.633,6.633,0,0,0-6.3-6.616,7.975,7.975,0,1,0-11.462,0,6.633,6.633,0,0,0-6.3,6.616v.823A14.976,14.976,0,0,1,62.159,47.176Z" transform="translate(-20.421 -20.421)"/>
            <path id="Trazado_178633" data-name="Trazado 178633" d="M71.449,59.422a11.961,11.961,0,0,0-4.321.806l-6.174-6.174a22.785,22.785,0,0,0-1.117-26.216l5.474-5.474a12.032,12.032,0,1,0-5.083-6.016l-6.174,6.174a22.82,22.82,0,0,0-24.64-.007l-6.167-6.167A12.027,12.027,0,0,0,6.068,1.578,1.223,1.223,0,0,0,7.281,3.7,9.577,9.577,0,0,1,19.607,17.877a6.66,6.66,0,0,0-3.55-3.8,5.274,5.274,0,1,0-8.06,0,6.66,6.66,0,0,0-3.55,3.8A9.57,9.57,0,0,1,3.7,7.281,1.223,1.223,0,1,0,1.578,6.068a12.023,12.023,0,0,0,16.587,16.3l5.463,5.463A22.8,22.8,0,0,0,20.1,34.443a1.223,1.223,0,1,0,2.317.781,20.35,20.35,0,0,1,3.722-6.615h0a1.235,1.235,0,0,0,.128-.153A20.373,20.373,0,0,1,29.9,25.133a1.242,1.242,0,0,0,.1-.071,20.388,20.388,0,1,1-8.653,16.676c0-.376.01-.757.031-1.132a1.223,1.223,0,1,0-2.442-.133c-.023.419-.034.845-.034,1.265a22.7,22.7,0,0,0,3.615,12.316l-6.174,6.174a12.042,12.042,0,1,0,6.016,5.082l5.474-5.474a22.78,22.78,0,0,0,27.8,0l5.474,5.474a12.023,12.023,0,1,0,10.337-5.888ZM12.027,7.848A2.829,2.829,0,1,1,9.2,10.676,2.832,2.832,0,0,1,12.027,7.848Zm-5.52,12a4.184,4.184,0,0,1,4.169-3.9h2.7a4.184,4.184,0,0,1,4.169,3.9,9.549,9.549,0,0,1-11.039,0Zm13.641,1.037a12.117,12.117,0,0,0,1.923-2.258L27.4,23.963a22.851,22.851,0,0,0-2.18,2ZM65.93,19.851a4.184,4.184,0,0,1,4.169-3.9h2.7a4.184,4.184,0,0,1,4.169,3.9,9.548,9.548,0,0,1-11.039,0Zm5.519-6.346a2.829,2.829,0,1,1,2.829-2.829A2.832,2.832,0,0,1,71.449,13.505Zm0-11.06a9.574,9.574,0,0,1,7.58,15.431,6.66,6.66,0,0,0-3.55-3.8,5.274,5.274,0,1,0-8.061,0,6.66,6.66,0,0,0-3.55,3.8,9.574,9.574,0,0,1,7.58-15.431ZM56.061,23.973,61.4,18.63a12.121,12.121,0,0,0,1.923,2.258L58.24,25.976a23.026,23.026,0,0,0-2.178-2ZM6.507,79.273a4.184,4.184,0,0,1,4.169-3.9h2.7a4.184,4.184,0,0,1,4.169,3.9,9.549,9.549,0,0,1-11.039,0Zm5.52-6.346A2.829,2.829,0,1,1,14.856,70.1,2.832,2.832,0,0,1,12.027,72.927Zm7.58,4.372a6.659,6.659,0,0,0-3.55-3.8A5.274,5.274,0,1,0,8,73.5a6.66,6.66,0,0,0-3.55,3.8,9.581,9.581,0,1,1,15.161,0Zm1.281-13.971A12.117,12.117,0,0,0,18.63,61.4l5.343-5.343a23.029,23.029,0,0,0,2,2.179ZM57.5,58.24a23.024,23.024,0,0,0,2-2.178L64.846,61.4a12.123,12.123,0,0,0-2.258,1.923Zm8.43,21.034a4.184,4.184,0,0,1,4.169-3.9h2.7a4.184,4.184,0,0,1,4.169,3.9,9.549,9.549,0,0,1-11.039,0Zm5.519-6.346A2.829,2.829,0,1,1,74.278,70.1,2.832,2.832,0,0,1,71.449,72.927Zm7.58,4.372a6.66,6.66,0,0,0-3.55-3.8,5.274,5.274,0,1,0-8.061,0,6.66,6.66,0,0,0-3.55,3.8,9.581,9.581,0,1,1,15.161,0Z" transform="translate(0 0)"/>
          </g>
        </g>
      </g>
    </g>
  </g>
</svg>
