<svg xmlns="http://www.w3.org/2000/svg" width="133" height="133" viewBox="0 0 133 133">
  <g id="Grupo_117503" data-name="Grupo 117503" transform="translate(2379.475 3981.481)">
    <g id="Grupo_117447" data-name="Grupo 117447" transform="translate(-220.475 -571.481)">
      <g id="Grupo_117443" data-name="Grupo 117443" transform="translate(-469 -181)">
        <g id="Elipse_17848" data-name="Elipse 17848" transform="translate(-1690 -3229)" fill="#fff" stroke="#6677d6" stroke-width="4">
          <circle cx="66.5" cy="66.5" r="66.5" stroke="none"/>
          <circle cx="66.5" cy="66.5" r="64.5" fill="none"/>
        </g>
        <g id="normas" transform="translate(-1670.29 -3200.186)">
          <path id="Trazado_178043" data-name="Trazado 178043" d="M170.306,50.25a2.718,2.718,0,0,1,2.718,2.718V107.5a7.247,7.247,0,0,1-7.247,7.247H131.624A3.624,3.624,0,0,1,128,111.127V50.25Z" transform="translate(-81.617 -40.738)" fill="#a3ade6"/>
          <path id="Trazado_178044" data-name="Trazado 178044" d="M229.933,52.968V107.5a7.248,7.248,0,0,1-7.247,7.247H217.25A7.248,7.248,0,0,0,224.5,107.5V52.968a2.719,2.719,0,0,0-2.718-2.718h5.436A2.719,2.719,0,0,1,229.933,52.968Z" transform="translate(-138.526 -40.738)" fill="#6677d6"/>
          <path id="Trazado_178045" data-name="Trazado 178045" d="M6.468,50.25A2.718,2.718,0,0,0,3.75,52.968V107.5A7.247,7.247,0,0,0,11,114.751H45.15a3.624,3.624,0,0,0,3.624-3.624V50.25Z" transform="translate(-2.391 -40.738)" fill="#a3ade6"/>
          <path id="Trazado_178046" data-name="Trazado 178046" d="M55.621,99.764H21.468a2.718,2.718,0,0,1-2.718-2.718V37.968a2.718,2.718,0,0,1,2.718-2.718H55.621a2.718,2.718,0,0,1,2.718,2.718V97.046A2.718,2.718,0,0,1,55.621,99.764Z" transform="translate(-11.956 -31.173)" fill="#f2f2f2"/>
          <path id="Trazado_178047" data-name="Trazado 178047" d="M164.871,99.763H130.718A2.718,2.718,0,0,1,128,97.046V37.967a2.718,2.718,0,0,1,2.718-2.718h34.153a2.718,2.718,0,0,1,2.718,2.718V97.045A2.718,2.718,0,0,1,164.871,99.763Z" transform="translate(-81.617 -31.173)" fill="#fff"/>
          <path id="Trazado_178048" data-name="Trazado 178048" d="M214.75,99.763h5.435a2.718,2.718,0,0,0,2.718-2.718V37.967a2.719,2.719,0,0,0-2.718-2.718H214.75a2.719,2.719,0,0,1,2.718,2.718V97.045A2.718,2.718,0,0,1,214.75,99.763Z" transform="translate(-136.932 -31.173)" fill="#e8e8e8"/>
          <path id="Trazado_178049" data-name="Trazado 178049" d="M49.713,43.471l-2.885-2.518a.906.906,0,0,0-1.191,0l-2.885,2.518a.906.906,0,0,1-1.5-.683V28.656a.906.906,0,0,1,.906-.906h8.153a.906.906,0,0,1,.906.906V42.788a.906.906,0,0,1-1.5.683Z" transform="translate(-26.302 -26.391)" fill="#fff56f"/>
          <path id="Trazado_178050" data-name="Trazado 178050" d="M174.551,92.468l2.05-2.05a2.718,2.718,0,0,0-3.843-3.843l-2.05,2.05a1.812,1.812,0,0,1-2.562,0l-2.178-2.178a2.718,2.718,0,0,0-3.843,3.843l2.178,2.178a1.812,1.812,0,0,1,0,2.562l-2.178,2.178a2.718,2.718,0,1,0,3.843,3.843l2.178-2.178a1.812,1.812,0,0,1,2.562,0l2.05,2.05A2.718,2.718,0,0,0,176.6,97.08l-2.05-2.05A1.812,1.812,0,0,1,174.551,92.468Z" transform="translate(-102.868 -63.311)" fill="#c6412a"/>
          <path id="Trazado_178051" data-name="Trazado 178051" d="M48.012,91.651,50.958,94.6a.906.906,0,0,0,1.281,0l8.328-8.328a2.718,2.718,0,0,1,3.843,3.843L53.521,101a2.718,2.718,0,0,1-3.843,0l-5.509-5.509a2.718,2.718,0,1,1,3.844-3.843Z" transform="translate(-27.656 -63.198)" fill="#6677d6"/>
          <path id="Trazado_178052" data-name="Trazado 178052" d="M91.407,82.16A1.359,1.359,0,0,0,92.766,80.8V36.23a4.081,4.081,0,0,0-4.077-4.077H87.33V30.794a4.081,4.081,0,0,0-4.077-4.077H49.1a4.061,4.061,0,0,0-2.718,1.041,4.061,4.061,0,0,0-2.718-1.041H31.254a1.359,1.359,0,1,0,0,2.718H43.665a1.36,1.36,0,0,1,1.359,1.359v3.533H44.39a1.359,1.359,0,1,0,0,2.718h.634v7.066h-.815a1.359,1.359,0,0,0,0,2.718h.815v7.247h-.815a1.359,1.359,0,1,0,0,2.718h.815v7.247h-.815a1.359,1.359,0,0,0,0,2.718h.815v7.247h-.815a1.359,1.359,0,0,0,0,2.718h.815v7.247h-.815a1.359,1.359,0,0,0,0,2.718h.815v3.184a1.36,1.36,0,0,1-1.359,1.359H9.512a1.36,1.36,0,0,1-1.359-1.359V30.794a1.36,1.36,0,0,1,1.359-1.359h4.077V40.4a2.241,2.241,0,0,0,1.328,2.062,2.279,2.279,0,0,0,.945.207,2.247,2.247,0,0,0,1.482-.562l2.587-2.258L22.518,42.1A2.265,2.265,0,0,0,26.272,40.4V26.265A2.267,2.267,0,0,0,24.007,24H15.854a2.267,2.267,0,0,0-2.265,2.265v.453H9.512a4.081,4.081,0,0,0-4.077,4.077v1.359H4.077A4.081,4.081,0,0,0,0,36.23V90.766a8.616,8.616,0,0,0,8.606,8.606H42.759A4.968,4.968,0,0,0,46.383,97.8a4.968,4.968,0,0,0,3.624,1.568H84.159a8.616,8.616,0,0,0,8.606-8.606V87.142a1.359,1.359,0,0,0-2.718,0v3.624a5.9,5.9,0,0,1-5.888,5.888H50.006a2.267,2.267,0,0,1-2.265-2.265v-.674a4.055,4.055,0,0,0,1.359.234H83.254a4.081,4.081,0,0,0,4.077-4.077v-55h1.359a1.36,1.36,0,0,1,1.359,1.359V80.8a1.359,1.359,0,0,0,1.359,1.359Zm-75.1-55.442h7.247V39.4l-2.135-1.863a2.273,2.273,0,0,0-2.978,0L16.306,39.4ZM42.759,96.654H8.606a5.9,5.9,0,0,1-5.888-5.888V36.23a1.36,1.36,0,0,1,1.359-1.359H5.435v55A4.081,4.081,0,0,0,9.512,93.95H43.665a4.059,4.059,0,0,0,1.359-.234v.674a2.267,2.267,0,0,1-2.265,2.265Zm41.853-6.781a1.36,1.36,0,0,1-1.359,1.359H49.1a1.36,1.36,0,0,1-1.359-1.359V86.689h.634a1.359,1.359,0,0,0,0-2.718h-.634V76.724h.634a1.359,1.359,0,1,0,0-2.718h-.634V66.759h.634a1.359,1.359,0,1,0,0-2.718h-.634V56.794h.634a1.359,1.359,0,1,0,0-2.718h-.634V46.829h.634a1.359,1.359,0,0,0,0-2.718h-.634V37.045h.815a1.359,1.359,0,0,0,0-2.718h-.815V30.794A1.36,1.36,0,0,1,49.1,29.435H83.254a1.36,1.36,0,0,1,1.359,1.359Z" transform="translate(0 -24)"/>
          <path id="Trazado_178053" data-name="Trazado 178053" d="M158.775,93.86a4.077,4.077,0,0,0,5.765,5.765l2.178-2.178a.453.453,0,0,1,.641,0l2.05,2.05a4.077,4.077,0,0,0,5.765-5.765l-2.05-2.05a.453.453,0,0,1,0-.641l2.05-2.05a4.077,4.077,0,0,0-5.765-5.765l-2.05,2.05a.453.453,0,0,1-.641,0L164.54,83.1a4.077,4.077,0,1,0-5.765,5.765l2.178,2.178a.453.453,0,0,1,0,.641Zm4.1-4.74L160.7,86.942a1.359,1.359,0,0,1,1.922-1.922L164.8,87.2a3.174,3.174,0,0,0,4.484,0l2.05-2.05a1.359,1.359,0,0,1,1.922,1.922l-2.05,2.05a3.174,3.174,0,0,0,0,4.484l2.05,2.05a1.359,1.359,0,0,1-1.922,1.922l-2.05-2.05a3.174,3.174,0,0,0-4.484,0L162.618,97.7a1.359,1.359,0,0,1-1.922-1.922l2.178-2.178A3.174,3.174,0,0,0,162.875,89.12Z" transform="translate(-100.48 -60.923)"/>
          <path id="Trazado_178054" data-name="Trazado 178054" d="M62.984,82.921a4.081,4.081,0,0,0-5.765,0l-8.007,8.007L46.585,88.3a4.077,4.077,0,1,0-5.765,5.765l5.509,5.509a4.081,4.081,0,0,0,5.765,0l10.89-10.89A4.081,4.081,0,0,0,62.984,82.921Zm-1.922,3.843-10.89,10.89a1.359,1.359,0,0,1-1.922,0l-5.509-5.509a1.359,1.359,0,1,1,1.922-1.922l2.947,2.947a2.265,2.265,0,0,0,3.2,0l8.328-8.328a1.359,1.359,0,1,1,1.922,1.922Z" transform="translate(-25.268 -60.81)"/>
          <path id="Trazado_178055" data-name="Trazado 178055" d="M65.586,148.359A1.359,1.359,0,0,0,64.227,147H46.109a1.359,1.359,0,1,0,0,2.718H64.227A1.359,1.359,0,0,0,65.586,148.359Z" transform="translate(-28.534 -102.429)"/>
          <path id="Trazado_178056" data-name="Trazado 178056" d="M56.109,162a1.359,1.359,0,1,0,0,2.718H66.98a1.359,1.359,0,0,0,0-2.718Z" transform="translate(-34.91 -111.994)"/>
          <path id="Trazado_178057" data-name="Trazado 178057" d="M174.227,147H156.109a1.359,1.359,0,1,0,0,2.718h18.118a1.359,1.359,0,1,0,0-2.718Z" transform="translate(-98.674 -102.429)"/>
          <path id="Trazado_178058" data-name="Trazado 178058" d="M176.98,162H166.109a1.359,1.359,0,1,0,0,2.718H176.98a1.359,1.359,0,0,0,0-2.718Z" transform="translate(-105.05 -111.994)"/>
        </g>
      </g>
    </g>
  </g>
</svg>
