<svg xmlns="http://www.w3.org/2000/svg" width="133" height="133" viewBox="0 0 133 133">
  <g id="Grupo_117525" data-name="Grupo 117525" transform="translate(2458.54 729.435)">
    <g id="Grupo_117458" data-name="Grupo 117458" transform="translate(-31.54 -2706.435)">
      <g id="Elipse_17847" data-name="Elipse 17847" transform="translate(-2427 1977)" fill="#fff" stroke="#6677d6" stroke-width="4">
        <circle cx="66.5" cy="66.5" r="66.5" stroke="none"/>
        <circle cx="66.5" cy="66.5" r="64.5" fill="none"/>
      </g>
      <g id="resaltador" transform="translate(-2392.996 1999.035)">
        <path id="Trazado_178326" data-name="Trazado 178326" d="M85.353,25V5.724A3.474,3.474,0,0,0,81.879,2.25H26.124A3.474,3.474,0,0,0,22.65,5.724V25Z" transform="translate(-21.347 -0.947)" fill="#dee4f0"/>
        <path id="Trazado_178327" data-name="Trazado 178327" d="M124.635,5.724V25h-5.211V5.724A3.473,3.473,0,0,0,115.95,2.25h5.211A3.473,3.473,0,0,1,124.635,5.724Z" transform="translate(-60.629 -0.947)" fill="#dee4f0"/>
        <path id="Trazado_178328" data-name="Trazado 178328" d="M81.879,87.154H26.124A3.474,3.474,0,0,1,22.65,83.68V14.724a3.474,3.474,0,0,1,3.474-3.474H81.879a3.474,3.474,0,0,1,3.474,3.474V83.68A3.474,3.474,0,0,1,81.879,87.154Z" transform="translate(-21.347 -4.737)" fill="#dee4f0"/>
        <path id="Trazado_178329" data-name="Trazado 178329" d="M124.635,14.724V83.68a3.473,3.473,0,0,1-3.474,3.474H115.95a3.473,3.473,0,0,0,3.474-3.474V11.25h1.737A3.473,3.473,0,0,1,124.635,14.724Z" transform="translate(-60.629 -4.737)" fill="#dee4f0"/>
        <path id="Trazado_178330" data-name="Trazado 178330" d="M59.473,50.535H22.65V41.85H69.026Z" transform="translate(-21.347 -17.62)" fill="#ffef0f"/>
        <path id="Trazado_178331" data-name="Trazado 178331" d="M93.088,41.953,84.581,48.6a3.567,3.567,0,0,0-1.331,2.813v7.78H94.366V42.657a.8.8,0,0,0-1.278-.7Z" transform="translate(-46.861 -17.593)" fill="#ffef0f"/>
        <path id="Trazado_178332" data-name="Trazado 178332" d="M100.161,42.657V55.719H94.95V44.731l3.833-2.777A.868.868,0,0,1,100.161,42.657Z" transform="translate(-51.787 -17.593)" fill="#ffef0f"/>
        <path id="Trazado_178333" data-name="Trazado 178333" d="M94.209,65.85H80.487a1.737,1.737,0,0,0-1.737,1.737v6.948h17.2V67.587A1.737,1.737,0,0,0,94.209,65.85Z" transform="translate(-44.967 -27.725)" fill="#6677d6"/>
        <path id="Trazado_178334" data-name="Trazado 178334" d="M103.4,67.587v3.474H98.187V67.587A1.738,1.738,0,0,0,96.45,65.85h5.211A1.738,1.738,0,0,1,103.4,67.587Z" transform="translate(-52.419 -27.725)" fill="#6677d6"/>
        <path id="Trazado_178335" data-name="Trazado 178335" d="M93.025,119.142H74.092A4.342,4.342,0,0,1,69.75,114.8V79.192a4.342,4.342,0,0,1,4.342-4.342H93.025a4.342,4.342,0,0,1,4.342,4.342V114.8A4.342,4.342,0,0,1,93.025,119.142Z" transform="translate(-41.178 -31.514)" fill="#4e2e8e"/>
        <path id="Trazado_178336" data-name="Trazado 178336" d="M110.5,79.192V114.8a4.342,4.342,0,0,1-4.342,4.342H100.95a4.342,4.342,0,0,0,4.342-4.342V79.192a4.338,4.338,0,0,0-4.342-4.342h5.211A4.342,4.342,0,0,1,110.5,79.192Z" transform="translate(-54.314 -31.514)" fill="#6677d6"/>
        <path id="Trazado_178337" data-name="Trazado 178337" d="M89.5,112.54A5.645,5.645,0,1,1,95.14,106.9,5.645,5.645,0,0,1,89.5,112.54Z" transform="translate(-47.114 -42.629)" fill="#fff"/>
        <path id="Trazado_178338" data-name="Trazado 178338" d="M88.548,99a6.948,6.948,0,1,0,6.948,6.948A6.956,6.956,0,0,0,88.548,99Zm0,11.29a4.342,4.342,0,1,1,4.342-4.342A4.347,4.347,0,0,1,88.548,110.29Z" transform="translate(-46.167 -41.682)"/>
        <path id="Trazado_178339" data-name="Trazado 178339" d="M35.053,70.705h11.29a1.3,1.3,0,0,0,0-2.605H35.053a1.3,1.3,0,1,0,0,2.605Z" transform="translate(-26.021 -28.672)"/>
        <path id="Trazado_178340" data-name="Trazado 178340" d="M46.343,77.1H35.053a1.3,1.3,0,1,0,0,2.605h11.29a1.3,1.3,0,0,0,0-2.605Z" transform="translate(-26.021 -32.461)"/>
        <path id="Trazado_178341" data-name="Trazado 178341" d="M46.343,86.1H35.053a1.3,1.3,0,1,0,0,2.605h11.29a1.3,1.3,0,1,0,0-2.605Z" transform="translate(-26.021 -36.25)"/>
        <path id="Trazado_178342" data-name="Trazado 178342" d="M80.932,0H25.177A4.782,4.782,0,0,0,20.4,4.777V78.943a4.782,4.782,0,0,0,4.777,4.777H47.688a5.651,5.651,0,0,0,5.627,5.211H72.247a5.651,5.651,0,0,0,5.627-5.211h3.058a4.782,4.782,0,0,0,4.777-4.777V23.391a1.3,1.3,0,1,0-2.605,0V78.943a2.174,2.174,0,0,1-2.171,2.171h-3.04V47.679a5.651,5.651,0,0,0-5.211-5.627v-2.19a3.042,3.042,0,0,0-2.605-3V25.063a2.144,2.144,0,0,0-1.184-1.934,2.817,2.817,0,0,0-1.378-.2H23.005V9.987a2.174,2.174,0,0,1,2.171-2.171H80.932A2.174,2.174,0,0,1,83.1,9.987v7.324a1.3,1.3,0,1,0,2.605,0V4.777A4.782,4.782,0,0,0,80.932,0ZM23.005,78.943V34.217H55.486v2.64a3.042,3.042,0,0,0-2.605,3v2.19a5.651,5.651,0,0,0-5.211,5.627V81.114H25.177A2.174,2.174,0,0,1,23.005,78.943Zm44.465-42.12H58.091v-3a2.177,2.177,0,0,1,.9-1.758l8.482-6.147Zm7.816,10.856V83.286a3.043,3.043,0,0,1-3.04,3.04H53.315a3.043,3.043,0,0,1-3.04-3.04V47.679a3.043,3.043,0,0,1,3.04-3.04h.868a1.3,1.3,0,0,0,1.3-1.3V39.862a.435.435,0,0,1,.434-.434H69.642a.435.435,0,0,1,.434.434v2.171H60.262a1.3,1.3,0,1,0,0,2.605H72.247A3.043,3.043,0,0,1,75.287,47.679ZM63.557,25.533l-6.1,4.418a4.773,4.773,0,0,0-1.43,1.661H23.005V25.533ZM80.932,5.211H25.177a4.746,4.746,0,0,0-2.171.524V4.777a2.174,2.174,0,0,1,2.171-2.171H80.932A2.174,2.174,0,0,1,83.1,4.777v.958a4.746,4.746,0,0,0-2.171-.524Z" transform="translate(-20.4)"/>
        <path id="Trazado_178343" data-name="Trazado 178343" d="M46.343,126.6H35.053a1.3,1.3,0,1,0,0,2.605h11.29a1.3,1.3,0,1,0,0-2.605Z" transform="translate(-26.021 -53.302)"/>
      </g>
    </g>
  </g>
</svg>
