<svg xmlns="http://www.w3.org/2000/svg" width="133" height="133" viewBox="0 0 133 133">
  <g id="Grupo_117551" data-name="Grupo 117551" transform="translate(7313.833 -32.333)">
    <g id="Grupo_117308" data-name="Grupo 117308" transform="translate(-2280.717 -3837.636)">
      <g id="Elipse_17552" data-name="Elipse 17552" transform="translate(-5033.117 3869.969)" fill="#fff" stroke="#6677d6" stroke-width="4">
        <circle cx="66.5" cy="66.5" r="66.5" stroke="none"/>
        <circle cx="66.5" cy="66.5" r="64.5" fill="none"/>
      </g>
      <g id="estrella" transform="translate(-5011.696 3895.002)">
        <g id="Grupo_117092" data-name="Grupo 117092" transform="translate(0 0)">
          <path id="Trazado_178653" data-name="Trazado 178653" d="M120.652,48.79a5.282,5.282,0,0,1,5.283,5.283V75.2H115.37V54.072A5.282,5.282,0,0,1,120.652,48.79Z" transform="translate(-47.664 -20.152)" fill="#ff876c"/>
          <path id="Trazado_178654" data-name="Trazado 178654" d="M129.652,29.29a5.282,5.282,0,0,0-5.283,5.283V55.7h10.565V34.572A5.282,5.282,0,0,0,129.652,29.29Z" transform="translate(-51.381 -12.098)" fill="#ff9e90"/>
          <path id="Trazado_178655" data-name="Trazado 178655" d="M132.457,20.29a5.25,5.25,0,0,0-2.224.491l-2.316,44.186L118.37,87.556l17.941-25.249a9.862,9.862,0,0,0,1.429-4.863V25.572A5.282,5.282,0,0,0,132.457,20.29Z" transform="translate(-48.903 -8.38)" fill="#ff9e90"/>
          <path id="Trazado_178656" data-name="Trazado 178656" d="M117.165,25.918V60.431a14.081,14.081,0,0,1-1.018,4.881L103.078,87.9v9.685H81.347V92.3l5.707-20,24.829-19.974V25.918a5.278,5.278,0,0,1,3.059-4.791A5.66,5.66,0,0,1,117.165,25.918Z" transform="translate(-33.611 -8.726)" fill="#ffb4b3"/>
          <path id="Trazado_178657" data-name="Trazado 178657" d="M102.865,66.837a5.282,5.282,0,1,1,7.47,7.47L91.912,92.731v7.247a10.6,10.6,0,0,1-10.565,10.565v-17.8a10.546,10.546,0,0,1,3.087-7.477Z" transform="translate(-33.611 -26.967)" fill="#ffcad6"/>
          <path id="Trazado_178658" data-name="Trazado 178658" d="M25.552,48.79a5.282,5.282,0,0,0-5.283,5.283V75.2H30.835V54.072A5.282,5.282,0,0,0,25.552,48.79Z" transform="translate(-8.384 -20.152)" fill="#ff876c"/>
          <path id="Trazado_178659" data-name="Trazado 178659" d="M16.552,29.29a5.282,5.282,0,0,0-5.283,5.283V55.7H21.835V34.572A5.282,5.282,0,0,0,16.552,29.29Z" transform="translate(-4.666 -12.098)" fill="#ff9e90"/>
          <path id="Trazado_178660" data-name="Trazado 178660" d="M61.141,131.2v5.283H55.859L45.293,115.309Z" transform="translate(-18.719 -47.627)" fill="#ff9e90"/>
          <path id="Trazado_178661" data-name="Trazado 178661" d="M51.185,85.267,32.754,66.837A5.266,5.266,0,0,0,28.662,65.3L48.989,109.12a10.479,10.479,0,0,0,5.283,1.425v-17.8A10.545,10.545,0,0,0,51.185,85.267Z" transform="translate(-11.85 -26.967)" fill="#ffb4b3"/>
          <path id="Trazado_178662" data-name="Trazado 178662" d="M36.783,72.852,12.835,51.986V25.572a5.283,5.283,0,0,0-10.565,0V57.444A9.862,9.862,0,0,0,3.7,62.307L21.64,87.556v9.685H38.088V90.533Z" transform="translate(-0.949 -8.38)" fill="#ffb4b3"/>
          <path id="Trazado_178663" data-name="Trazado 178663" d="M45.523,92.752v16.376a10.589,10.589,0,0,1-5.283-9.141V92.74L21.817,74.315a5.283,5.283,0,0,1,3.377-9.005,4.057,4.057,0,0,1,2.791,1.535l14.988,18.43A11.754,11.754,0,0,1,45.523,92.752Z" transform="translate(-8.383 -26.975)" fill="#ffcad6"/>
          <path id="Trazado_178664" data-name="Trazado 178664" d="M85.921,16.61,88.384,2.25,82.578,5.3l-8.983,16.59,18.162,5.555,4.6-.668Z" transform="translate(-30.409 -0.929)" fill="#ffef0f"/>
          <path id="Trazado_178665" data-name="Trazado 178665" d="M69.226,5.3,62.136,9.03,49.24,2.25,51.7,16.61,41.27,26.78l14.419,2.1,6.448,13.065,6.448-13.065,9.821-1.427L67.287,16.61Z" transform="translate(-17.058 -0.929)" fill="#fff56f"/>
          <path id="Trazado_178666" data-name="Trazado 178666" d="M23.792,48.321v-6.95a6.614,6.614,0,0,0-5.283-6.47V29.926a6.613,6.613,0,0,0-5.4-6.491A6.6,6.6,0,0,0,.02,24.643V56.515a11.214,11.214,0,0,0,1.673,5.628l17.7,24.905v9.263a1.321,1.321,0,0,0,1.321,1.321H42.442a1.321,1.321,0,0,0,1.321-1.321V73.228a11.814,11.814,0,0,0-3.474-8.411Zm-2.641-6.95v4.4a6.561,6.561,0,0,0-2.641-1.185V37.637A3.968,3.968,0,0,1,21.151,41.371ZM15.868,29.926V44.589a6.558,6.558,0,0,0-2.641,1.184V26.191A3.968,3.968,0,0,1,15.868,29.926ZM41.121,94.991H22.031V86.626a1.32,1.32,0,0,0-.244-.765L3.846,60.613a8.558,8.558,0,0,1-1.185-4.1V24.643a3.962,3.962,0,0,1,7.924,0v26.5c0,.024,0,.048,0,.071a6.558,6.558,0,0,0,1.932,4.51L30.943,74.149a1.321,1.321,0,0,0,1.868-1.868L14.387,53.858a3.956,3.956,0,0,1,2.7-6.757c.033,0,.066.005.1.005s.067,0,.1-.005a3.944,3.944,0,0,1,2.7,1.154l18.43,18.43a9.189,9.189,0,0,1,2.7,6.543Z" transform="translate(-0.02 -7.451)"/>
          <path id="Trazado_178667" data-name="Trazado 178667" d="M116.236,18.04a6.613,6.613,0,0,0-6.491,5.4,6.613,6.613,0,0,0-5.4,6.491V34.9a6.614,6.614,0,0,0-5.283,6.47v6.95l-16.5,16.5a11.813,11.813,0,0,0-3.474,8.41V96.311a1.321,1.321,0,0,0,1.321,1.321h21.732a1.321,1.321,0,0,0,1.321-1.321V87.048l17.7-24.905a11.214,11.214,0,0,0,1.673-5.628V24.643A6.611,6.611,0,0,0,116.236,18.04Zm-9.245,11.886a3.968,3.968,0,0,1,2.641-3.735V45.773a6.563,6.563,0,0,0-2.641-1.184Zm-2.641,7.711v6.952a6.563,6.563,0,0,0-2.641,1.185v-4.4A3.969,3.969,0,0,1,104.35,37.637ZM120.2,56.515a8.557,8.557,0,0,1-1.185,4.1L101.072,85.862a1.32,1.32,0,0,0-.244.765v8.364H81.738V73.228a9.189,9.189,0,0,1,2.7-6.543l18.43-18.43a3.962,3.962,0,1,1,5.6,5.6L90.049,72.281a1.321,1.321,0,0,0,1.868,1.868l18.423-18.424a6.557,6.557,0,0,0,1.932-4.509c0-.024,0-.048,0-.071v-26.5a3.962,3.962,0,1,1,7.924,0V56.515Z" transform="translate(-32.681 -7.451)"/>
          <path id="Trazado_178668" data-name="Trazado 178668" d="M82.264,27.158A1.321,1.321,0,0,0,83,24.905L73.06,15.22,75.405,1.544A1.321,1.321,0,0,0,73.489.152L61.207,6.609,48.926.152A1.321,1.321,0,0,0,47.01,1.544l1.557,9.078a1.321,1.321,0,0,0,2.6-.446l-1.1-6.44L60.593,9.27a1.321,1.321,0,0,0,1.229,0L72.35,3.735,70.339,15.458a1.321,1.321,0,0,0,.38,1.169l8.517,8.3-11.77,1.71a1.32,1.32,0,0,0-.994.722L61.208,38.027,55.944,27.361a1.321,1.321,0,0,0-.994-.722l-11.77-1.71,8.517-8.3a1.321,1.321,0,1,0-1.843-1.892L39.42,24.905a1.321,1.321,0,0,0,.732,2.253l13.731,2L60.024,41.6a1.321,1.321,0,0,0,2.369,0l6.141-12.443Z" transform="translate(-16.129 0)"/>
        </g>
      </g>
    </g>
  </g>
</svg>
