<svg xmlns="http://www.w3.org/2000/svg" width="133" height="133" viewBox="0 0 133 133">
  <g id="Grupo_117500" data-name="Grupo 117500" transform="translate(3346.319 3995.479)">
    <g id="Grupo_117444" data-name="Grupo 117444" transform="translate(-224.319 -585.481)">
      <g id="Elipse_17842" data-name="Elipse 17842" transform="translate(-3122 -3409.998)" fill="#fff" stroke="#6677d6" stroke-width="4">
        <circle cx="66.5" cy="66.5" r="66.5" stroke="none"/>
        <circle cx="66.5" cy="66.5" r="64.5" fill="none"/>
      </g>
      <g id="gerente" transform="translate(-3101.517 -3386.272)">
        <g id="Grupo_116335" data-name="Grupo 116335" transform="translate(0 0)">
          <g id="Grupo_116333" data-name="Grupo 116333" transform="translate(1.359 1.359)">
            <g id="Grupo_116307" data-name="Grupo 116307">
              <g id="Grupo_116297" data-name="Grupo 116297" transform="translate(0 8.619)">
                <path id="Trazado_178006" data-name="Trazado 178006" d="M37.225,66.924V58.347A4.852,4.852,0,0,1,35.7,54.81v-.451a4.852,4.852,0,0,1,1.529-3.537V44.656a16.2,16.2,0,0,1,2.029-7.869H5.562A1.812,1.812,0,0,0,3.75,38.6V91.4a1.812,1.812,0,0,0,1.812,1.812H25.149V87.983a13.381,13.381,0,0,1,8.2-12.355l8.284-3.492L41.121,72a5.259,5.259,0,0,1-3.9-5.076Z" transform="translate(-3.75 -36.787)" fill="#fff"/>
              </g>
              <g id="Grupo_116306" data-name="Grupo 116306" transform="translate(33.294)">
                <g id="Grupo_116305" data-name="Grupo 116305" transform="translate(0)">
                  <g id="Grupo_116301" data-name="Grupo 116301" transform="translate(0 0)">
                    <g id="Grupo_116298" data-name="Grupo 116298" transform="translate(0 29.998)">
                      <path id="Trazado_178007" data-name="Trazado 178007" d="M102.411,108.713a2.97,2.97,0,0,1,1.481-2.565l3.323-1.919-.282-.155a10.864,10.864,0,0,1-5.241-6.643l-.036-.134H99.148a4.851,4.851,0,0,1-3.518-1.51v8.757a5.437,5.437,0,0,0,4.328,5.322l2.454-1.034Z" transform="translate(-95.63 -95.788)" fill="#412c01"/>
                    </g>
                    <g id="Grupo_116299" data-name="Grupo 116299" transform="translate(0)">
                      <path id="Trazado_178008" data-name="Trazado 178008" d="M99.148,34.327h2.164l0-.179a2.545,2.545,0,0,1,2.535-2.5h3.074a9.493,9.493,0,0,0,7.169-3.271,2.557,2.557,0,0,1,1.927-.889h4.366a2.539,2.539,0,0,1,2.537,2.537v4.3h2.164a4.852,4.852,0,0,1,3.518,1.51V29.491a16.488,16.488,0,0,0-32.975,0v6.346a4.851,4.851,0,0,1,3.518-1.51Z" transform="translate(-95.63 -13.003)" fill="#412c01"/>
                    </g>
                    <g id="Grupo_116300" data-name="Grupo 116300" transform="translate(21.39 29.999)">
                      <path id="Trazado_178009" data-name="Trazado 178009" d="M162.726,97.3h-2.507l-.036.134a10.864,10.864,0,0,1-5.241,6.643l-.282.155,3.323,1.918a2.97,2.97,0,0,1,1.481,2.565v.12l2.454,1.034a5.437,5.437,0,0,0,4.328-5.322V95.789A4.852,4.852,0,0,1,162.726,97.3Z" transform="translate(-154.659 -95.789)" fill="#412c01"/>
                    </g>
                  </g>
                  <g id="Grupo_116304" data-name="Grupo 116304" transform="translate(12.84)">
                    <g id="Grupo_116302" data-name="Grupo 116302" transform="translate(12.445 29.999)">
                      <path id="Trazado_178010" data-name="Trazado 178010" d="M165.408,106.581a2.97,2.97,0,0,1,.908,2.132v.12l2.454,1.034a5.437,5.437,0,0,0,4.328-5.322V95.789a4.851,4.851,0,0,1-3.518,1.51h-2.507l-.036.134a10.726,10.726,0,0,1-1.232,2.827v4.286a5.415,5.415,0,0,1-.4,2.036Z" transform="translate(-165.408 -95.789)" fill="#412c01"/>
                    </g>
                    <g id="Grupo_116303" data-name="Grupo 116303">
                      <path id="Trazado_178011" data-name="Trazado 178011" d="M143.8,27.624a2.539,2.539,0,0,1,1.72,2.4v4.3h2.164a4.852,4.852,0,0,1,3.518,1.51V29.491a16.5,16.5,0,0,0-20.135-16.082A16.5,16.5,0,0,1,143.8,27.624Z" transform="translate(-131.065 -13.003)" fill="#412c01"/>
                    </g>
                  </g>
                </g>
              </g>
            </g>
            <g id="Grupo_116327" data-name="Grupo 116327" transform="translate(21.218 14.303)">
              <g id="Grupo_116309" data-name="Grupo 116309" transform="translate(18.677 34.95)">
                <g id="Grupo_116308" data-name="Grupo 116308">
                  <path id="Trazado_178012" data-name="Trazado 178012" d="M133.592,154.76l.028-.129-9.886-5.708-9.886,5.708.028.129a9.243,9.243,0,0,0,.676,2l6.562,13.886a2.9,2.9,0,0,0,5.242,0l6.562-13.886A9.267,9.267,0,0,0,133.592,154.76Z" transform="translate(-113.847 -148.923)" fill="#fff"/>
                </g>
              </g>
              <g id="Grupo_116310" data-name="Grupo 116310" transform="translate(25.593 38.554)">
                <path id="Trazado_178013" data-name="Trazado 178013" d="M142.144,158.868a9.262,9.262,0,0,1-.651,1.895l-6.562,13.886a2.871,2.871,0,0,1-2,1.595l.35.74a2.9,2.9,0,0,0,5.242,0l6.562-13.886a9.26,9.26,0,0,0,.676-2l.028-.129Z" transform="translate(-132.932 -158.868)" fill="#f3f0f3"/>
              </g>
              <g id="Grupo_116311" data-name="Grupo 116311" transform="translate(18.495 24.033)">
                <path id="Trazado_178014" data-name="Trazado 178014" d="M113.344,133.6a9.253,9.253,0,0,0,.223,2.009l9.846-5.684,9.846,5.684a9.254,9.254,0,0,0,.223-2.009v-9.619l-.181-.6a3.143,3.143,0,0,0-1.572-2.722l-3.232-1.866c-.074.039-.147.079-.222.117l-.1.05v5.463l-4.762,3.055-4.763-3.055v-5.463l-.1-.05c-.075-.038-.148-.078-.222-.117l-3.232,1.866a3.143,3.143,0,0,0-1.571,2.722l-.181.391Z" transform="translate(-113.344 -118.795)" fill="#f3f0f3"/>
              </g>
              <g id="Grupo_116312" data-name="Grupo 116312" transform="translate(18.495 24.033)">
                <path id="Trazado_178015" data-name="Trazado 178015" d="M113.344,133.6a9.253,9.253,0,0,0,.223,2.009l9.846-5.684,9.846,5.684a9.254,9.254,0,0,0,.223-2.009v-9.619l-.181-.6a3.143,3.143,0,0,0-1.572-2.722l-3.232-1.866c-.074.039-.147.079-.222.117l-.1.05v5.463l-4.762,3.055-4.763-3.055v-5.463l-.1-.05c-.075-.038-.148-.078-.222-.117l-3.232,1.866a3.143,3.143,0,0,0-1.571,2.722l-.181.391Z" transform="translate(-113.344 -118.795)" fill="#f3f0f3"/>
              </g>
              <g id="Grupo_116314" data-name="Grupo 116314" transform="translate(33.326 24.033)">
                <g id="Grupo_116313" data-name="Grupo 116313">
                  <path id="Trazado_178016" data-name="Trazado 178016" d="M159.4,123.383a3.143,3.143,0,0,0-1.572-2.722l-3.232-1.866c-.074.039-.147.079-.222.117l-.1.05v1.772a3.142,3.142,0,0,1,1.351,2.58v10.136l3.733,2.155a9.254,9.254,0,0,0,.223-2.009v-9.619Z" transform="translate(-154.272 -118.795)" fill="#e2dee2"/>
                </g>
              </g>
              <g id="Grupo_116315" data-name="Grupo 116315" transform="translate(0 28.62)">
                <path id="Trazado_178017" data-name="Trazado 178017" d="M117.177,156.239a.725.725,0,0,1-.725-.725v-1.107a1.094,1.094,0,0,0-.77-1.04,9.834,9.834,0,0,1-1.506-.625,1.111,1.111,0,0,0-.507-.124,1.061,1.061,0,0,0-.755.311l-.791.791a.725.725,0,0,1-1.025,0l-2.146-2.146a.725.725,0,0,1,0-1.025l.791-.791a1.078,1.078,0,0,0,.188-1.262,9.822,9.822,0,0,1-.625-1.506,1.094,1.094,0,0,0-1.04-.77H107.16a.725.725,0,0,1-.725-.725v-3.035a.725.725,0,0,1,.725-.725h1.107a1.094,1.094,0,0,0,1.04-.77,9.814,9.814,0,0,1,.625-1.506,1.078,1.078,0,0,0-.188-1.262l-.791-.791a.725.725,0,0,1,0-1.025l1.036-1.036-9.233-3.892V141.67a9.059,9.059,0,0,1-.868,3.87l-6.562,13.886a2.718,2.718,0,0,1-4.914,0L81.85,145.54a9.06,9.06,0,0,1-.868-3.87V131.455l-10.366,4.37a13.589,13.589,0,0,0-8.31,12.522v20.81a2.718,2.718,0,0,0,2.718,2.718h51.691a2.718,2.718,0,0,0,2.718-2.718V156.239Z" transform="translate(-62.305 -131.455)" fill="#6677d6"/>
              </g>
              <g id="Grupo_116318" data-name="Grupo 116318" transform="translate(38.451 28.62)">
                <g id="Grupo_116316" data-name="Grupo 116316" transform="translate(0)">
                  <path id="Trazado_178018" data-name="Trazado 178018" d="M177.59,139.461a1.078,1.078,0,0,0-.188-1.262l-.79-.791a.725.725,0,0,1,0-1.025l1.036-1.036-9.233-3.892v4.967l4.639,1.956a13.568,13.568,0,0,1,3.931,2.532,9.8,9.8,0,0,1,.6-1.449Z" transform="translate(-168.415 -131.455)" fill="#4e2e8e"/>
                </g>
                <g id="Grupo_116317" data-name="Grupo 116317" transform="translate(12.949 21.166)">
                  <path id="Trazado_178019" data-name="Trazado 178019" d="M207.622,193.484a.725.725,0,0,1-.725-.725v-1.107a1.094,1.094,0,0,0-.77-1.04,9.837,9.837,0,0,1-1.506-.625,1.11,1.11,0,0,0-.471-.122v19.253h3.009a2.718,2.718,0,0,0,2.718-2.718V193.484Z" transform="translate(-204.151 -189.867)" fill="#4e2e8e"/>
                </g>
              </g>
              <g id="Grupo_116319" data-name="Grupo 116319" transform="translate(23.62 24.104)">
                <path id="Trazado_178020" data-name="Trazado 178020" d="M132.431,120.194a10.733,10.733,0,0,1-4.944-1.2v5.658l4.944,3.171,4.944-3.171v-5.658A10.734,10.734,0,0,1,132.431,120.194Z" transform="translate(-127.487 -118.992)" fill="#fbd894"/>
              </g>
              <g id="Grupo_116320" data-name="Grupo 116320" transform="translate(25.217 24.104)">
                <path id="Trazado_178021" data-name="Trazado 178021" d="M136.386,120.133V122.3a.906.906,0,0,1-.417.762l-4.073,2.613,3.346,2.146,4.944-3.171v-5.658a10.717,10.717,0,0,1-3.8,1.141Z" transform="translate(-131.896 -118.992)" fill="#fbd894"/>
              </g>
              <g id="Grupo_116326" data-name="Grupo 116326" transform="translate(10.546)">
                <g id="Grupo_116323" data-name="Grupo 116323" transform="translate(0 6.84)">
                  <g id="Grupo_116321" data-name="Grupo 116321">
                    <path id="Trazado_178022" data-name="Trazado 178022" d="M98.622,79.011V71.388c0-.013,0-.025,0-.038H96.457A5.048,5.048,0,0,0,91.41,76.4v.451A5.048,5.048,0,0,0,96.457,81.9h2.559A10.764,10.764,0,0,1,98.622,79.011Z" transform="translate(-91.41 -71.35)" fill="#fbd894"/>
                  </g>
                  <g id="Grupo_116322" data-name="Grupo 116322" transform="translate(28.428)">
                    <path id="Trazado_178023" data-name="Trazado 178023" d="M172.418,71.35h-2.164v7.661a10.771,10.771,0,0,1-.394,2.885h2.559a5.048,5.048,0,0,0,5.048-5.048V76.4A5.048,5.048,0,0,0,172.418,71.35Z" transform="translate(-169.859 -71.35)" fill="#fbd894"/>
                  </g>
                </g>
                <g id="Grupo_116324" data-name="Grupo 116324" transform="translate(7.031)">
                  <path id="Trazado_178024" data-name="Trazado 178024" d="M125.7,52.473a2.737,2.737,0,0,0-2.064.952,9.29,9.29,0,0,1-7.033,3.209H113.53a2.718,2.718,0,0,0-2.718,2.718v7.623a10.986,10.986,0,0,0,21.972,0V55.191a2.718,2.718,0,0,0-2.718-2.718Z" transform="translate(-110.812 -52.473)" fill="#fbd894"/>
                </g>
                <g id="Grupo_116325" data-name="Grupo 116325" transform="translate(15.767)">
                  <path id="Trazado_178025" data-name="Trazado 178025" d="M145.438,52.473h-4.365c-.029,0-.057,0-.085,0a2.716,2.716,0,0,1,2.658,2.715V66.975a10.989,10.989,0,0,1-8.726,10.752,10.982,10.982,0,0,0,13.236-10.752V55.191a2.718,2.718,0,0,0-2.718-2.718Z" transform="translate(-134.919 -52.473)" fill="#fbd894"/>
                </g>
              </g>
            </g>
            <g id="Grupo_116332" data-name="Grupo 116332" transform="translate(65.168 43.007)">
              <g id="Grupo_116328" data-name="Grupo 116328">
                <path id="Trazado_178026" data-name="Trazado 178026" d="M208.469,145.645V142.61a.906.906,0,0,0-.906-.906h-1.107a.914.914,0,0,1-.867-.644,9.969,9.969,0,0,0-.636-1.534.9.9,0,0,1,.155-1.051l.791-.791a.906.906,0,0,0,0-1.281l-2.146-2.146a.906.906,0,0,0-1.281,0l-.791.791a.9.9,0,0,1-1.05.155,9.97,9.97,0,0,0-1.534-.636.914.914,0,0,1-.644-.867v-1.107a.906.906,0,0,0-.906-.906h-3.035a.906.906,0,0,0-.906.906V133.7a.914.914,0,0,1-.644.867,9.97,9.97,0,0,0-1.534.636.9.9,0,0,1-1.05-.155l-.791-.791a.906.906,0,0,0-1.281,0l-2.146,2.146a.906.906,0,0,0,0,1.281l.791.791a.9.9,0,0,1,.155,1.051,9.967,9.967,0,0,0-.636,1.534.914.914,0,0,1-.867.644h-1.107a.906.906,0,0,0-.906.906v3.035a.906.906,0,0,0,.906.906H185.6a.914.914,0,0,1,.867.644,9.969,9.969,0,0,0,.636,1.534.9.9,0,0,1-.155,1.051l-.791.791a.906.906,0,0,0,0,1.281L188.306,154a.906.906,0,0,0,1.281,0l.791-.791a.9.9,0,0,1,1.05-.155,9.965,9.965,0,0,0,1.534.636.914.914,0,0,1,.644.867v1.107a.906.906,0,0,0,.906.906h3.035a.906.906,0,0,0,.906-.906v-1.107a.914.914,0,0,1,.644-.867,10,10,0,0,0,1.534-.636.9.9,0,0,1,1.05.155l.791.791a.906.906,0,0,0,1.281,0l2.146-2.146a.906.906,0,0,0,0-1.281l-.791-.791a.9.9,0,0,1-.155-1.051,9.969,9.969,0,0,0,.636-1.534.914.914,0,0,1,.867-.644h1.107A.906.906,0,0,0,208.469,145.645Z" transform="translate(-183.589 -131.687)" fill="#a3ade6"/>
              </g>
              <g id="Grupo_116329" data-name="Grupo 116329">
                <path id="Trazado_178027" data-name="Trazado 178027" d="M208.469,145.645V142.61a.906.906,0,0,0-.906-.906h-1.107a.914.914,0,0,1-.867-.644,9.969,9.969,0,0,0-.636-1.534.9.9,0,0,1,.155-1.051l.791-.791a.906.906,0,0,0,0-1.281l-2.146-2.146a.906.906,0,0,0-1.281,0l-.791.791a.9.9,0,0,1-1.05.155,9.97,9.97,0,0,0-1.534-.636.914.914,0,0,1-.644-.867v-1.107a.906.906,0,0,0-.906-.906h-3.035a.906.906,0,0,0-.906.906V133.7a.914.914,0,0,1-.644.867,9.97,9.97,0,0,0-1.534.636.9.9,0,0,1-1.05-.155l-.791-.791a.906.906,0,0,0-1.281,0l-2.146,2.146a.906.906,0,0,0,0,1.281l.791.791a.9.9,0,0,1,.155,1.051,9.967,9.967,0,0,0-.636,1.534.914.914,0,0,1-.867.644h-1.107a.906.906,0,0,0-.906.906v3.035a.906.906,0,0,0,.906.906H185.6a.914.914,0,0,1,.867.644,9.969,9.969,0,0,0,.636,1.534.9.9,0,0,1-.155,1.051l-.791.791a.906.906,0,0,0,0,1.281L188.306,154a.906.906,0,0,0,1.281,0l.791-.791a.9.9,0,0,1,1.05-.155,9.965,9.965,0,0,0,1.534.636.914.914,0,0,1,.644.867v1.107a.906.906,0,0,0,.906.906h3.035a.906.906,0,0,0,.906-.906v-1.107a.914.914,0,0,1,.644-.867,10,10,0,0,0,1.534-.636.9.9,0,0,1,1.05.155l.791.791a.906.906,0,0,0,1.281,0l2.146-2.146a.906.906,0,0,0,0-1.281l-.791-.791a.9.9,0,0,1-.155-1.051,9.969,9.969,0,0,0,.636-1.534.914.914,0,0,1,.867-.644h1.107A.906.906,0,0,0,208.469,145.645Z" transform="translate(-183.589 -131.687)" fill="#a3ade6"/>
              </g>
              <g id="Grupo_116330" data-name="Grupo 116330" transform="translate(10.016 0)">
                <path id="Trazado_178028" data-name="Trazado 178028" d="M225.189,141.7h-1.107a.914.914,0,0,1-.867-.644,9.968,9.968,0,0,0-.636-1.534.9.9,0,0,1,.155-1.051l.791-.791a.906.906,0,0,0,0-1.281l-2.146-2.146a.906.906,0,0,0-1.281,0l-.791.791a.9.9,0,0,1-1.05.155,9.967,9.967,0,0,0-1.534-.636.914.914,0,0,1-.644-.867v-1.107a.906.906,0,0,0-.906-.906h-3.035a.906.906,0,0,0-.906.906v.823a12.679,12.679,0,0,1,0,21.423v.823a.906.906,0,0,0,.906.906h3.035a.906.906,0,0,0,.906-.906v-1.107a.914.914,0,0,1,.644-.867,10,10,0,0,0,1.534-.636.9.9,0,0,1,1.05.155l.791.791a.906.906,0,0,0,1.281,0l2.146-2.146a.906.906,0,0,0,0-1.281l-.791-.791a.9.9,0,0,1-.155-1.051,9.969,9.969,0,0,0,.636-1.534.914.914,0,0,1,.867-.644h1.107a.906.906,0,0,0,.906-.906V142.61A.905.905,0,0,0,225.189,141.7Z" transform="translate(-211.23 -131.688)" fill="#8379c1"/>
              </g>
              <g id="Grupo_116331" data-name="Grupo 116331" transform="translate(6.369 6.386)">
                <circle id="Elipse_15982" data-name="Elipse 15982" cx="4.282" cy="4.282" r="4.282" transform="translate(0 6.056) rotate(-45)" fill="#fff"/>
              </g>
            </g>
          </g>
          <g id="Grupo_116334" data-name="Grupo 116334">
            <path id="Trazado_178029" data-name="Trazado 178029" d="M21.724,62.983a1.358,1.358,0,0,0,.961.4c.032,0,.064,0,.1,0a1.359,1.359,0,0,0,.991-.54l3.943-5.258a1.359,1.359,0,0,0-2.174-1.631l-3,4-1.375-1.375A1.359,1.359,0,1,0,19.242,60.5Z" transform="translate(-12.015 -38.681)"/>
            <path id="Trazado_178030" data-name="Trazado 178030" d="M19.241,84.619,21.724,87.1a1.358,1.358,0,0,0,.961.4c.032,0,.064,0,.1,0a1.359,1.359,0,0,0,.991-.54L27.715,81.7a1.359,1.359,0,0,0-2.174-1.631l-3,4L21.163,82.7a1.359,1.359,0,1,0-1.922,1.922Z" transform="translate(-12.015 -54.06)"/>
            <path id="Trazado_178031" data-name="Trazado 178031" d="M51.521,91.989h3.112a1.359,1.359,0,0,0,0-2.718H51.521a1.359,1.359,0,0,0,0,2.718Z" transform="translate(-31.985 -60.275)"/>
            <path id="Trazado_178032" data-name="Trazado 178032" d="M19.241,108.737l2.483,2.483a1.358,1.358,0,0,0,.961.4c.032,0,.064,0,.1,0a1.359,1.359,0,0,0,.991-.54l3.943-5.258a1.359,1.359,0,0,0-2.174-1.631l-3,4-1.375-1.375a1.359,1.359,0,1,0-1.922,1.922Z" transform="translate(-12.015 -69.439)"/>
            <path id="Trazado_178033" data-name="Trazado 178033" d="M19.241,132.854l2.483,2.483a1.359,1.359,0,0,0,.961.4q.048,0,.1,0a1.359,1.359,0,0,0,.991-.54l3.943-5.258a1.359,1.359,0,0,0-2.174-1.631l-3,4-1.375-1.375a1.359,1.359,0,0,0-1.922,1.922Z" transform="translate(-12.015 -84.817)"/>
            <path id="Trazado_178034" data-name="Trazado 178034" d="M27.443,152.15a1.359,1.359,0,0,0-1.9.272l-3,4-1.375-1.375a1.359,1.359,0,1,0-1.921,1.922l2.483,2.483a1.358,1.358,0,0,0,.961.4q.048,0,.1,0a1.359,1.359,0,0,0,.991-.54l3.943-5.257A1.359,1.359,0,0,0,27.443,152.15Z" transform="translate(-12.015 -100.195)"/>
            <path id="Trazado_178035" data-name="Trazado 178035" d="M123.415,74.861a1.359,1.359,0,0,0,1.359-1.359V71.3a1.359,1.359,0,1,0-2.718,0v2.2A1.359,1.359,0,0,0,123.415,74.861Z" transform="translate(-77.827 -47.953)"/>
            <path id="Trazado_178036" data-name="Trazado 178036" d="M154.062,74.861a1.359,1.359,0,0,0,1.359-1.359V71.3a1.359,1.359,0,0,0-2.718,0v2.2A1.359,1.359,0,0,0,154.062,74.861Z" transform="translate(-97.369 -47.953)"/>
            <path id="Trazado_178037" data-name="Trazado 178037" d="M131.766,77.983l2.2,1.977a1.359,1.359,0,1,0,1.818-2.02l-1.225-1.1,1.36-1.632a1.359,1.359,0,0,0-2.088-1.74l-2.2,2.637A1.359,1.359,0,0,0,131.766,77.983Z" transform="translate(-83.732 -49.886)"/>
            <path id="Trazado_178038" data-name="Trazado 178038" d="M127.475,100.373a6.646,6.646,0,0,0,9.389,0,1.359,1.359,0,0,0-1.922-1.922,3.925,3.925,0,0,1-5.545,0,1.359,1.359,0,0,0-1.922,1.922Z" transform="translate(-81.028 -65.875)"/>
            <path id="Trazado_178039" data-name="Trazado 178039" d="M90.5,62.276H89.72a11.442,11.442,0,0,0-.475-1.147l.552-.552a2.265,2.265,0,0,0,0-3.2l-2.146-2.146a2.265,2.265,0,0,0-3.2,0l-.552.552a11.4,11.4,0,0,0-1.147-.475v-.781a2.267,2.267,0,0,0-2.265-2.265H77.449a2.267,2.267,0,0,0-2.265,2.265V55.3a11.414,11.414,0,0,0-1.148.475l-.552-.552a2.268,2.268,0,0,0-3.2,0l-.515.515-3.072-1.295a6.794,6.794,0,0,0,2.293-5.082V41.4a6.377,6.377,0,0,0,1.529-4.147V36.8a6.377,6.377,0,0,0-1.529-4.147V27.1A17.851,17.851,0,0,0,42.678,11.383a1.359,1.359,0,0,0,1.291,2.392A15.133,15.133,0,0,1,66.269,27.1v3.672a6.377,6.377,0,0,0-2.16-.375h-.624V27.632a4.081,4.081,0,0,0-4.077-4.077H55.043a4.1,4.1,0,0,0-3.09,1.419,7.954,7.954,0,0,1-6.007,2.741H42.872a4.084,4.084,0,0,0-3.83,2.68h-.871a6.376,6.376,0,0,0-2.159.375V27.1a15.152,15.152,0,0,1,3.442-9.608,1.359,1.359,0,0,0-2.1-1.727,17.736,17.736,0,0,0-1.486,2.107H3.171A3.174,3.174,0,0,0,0,21.042v35.77a1.359,1.359,0,0,0,2.718,0V21.042a.453.453,0,0,1,.453-.453H34.529a17.867,17.867,0,0,0-1.235,6.51v2.41H19.536a1.359,1.359,0,0,0,0,2.718H33.294v.428A6.377,6.377,0,0,0,31.765,36.8v.451a6.413,6.413,0,0,0,.078,1H26.815a1.359,1.359,0,1,0,0,2.718h6.14q.16.224.339.435v5.587H19.536a1.359,1.359,0,1,0,0,2.718H33.3a6.8,6.8,0,0,0,2.279,4.745l-3.029,1.277H19.536a1.359,1.359,0,1,0,0,2.718h7.691a14.9,14.9,0,0,0-4.774,6.022H19.536a1.359,1.359,0,0,0,0,2.718h2.036a15.014,15.014,0,0,0-.354,3.241V74.3H3.171a.453.453,0,0,1-.453-.453V63.153a1.359,1.359,0,0,0-2.718,0V73.845a3.174,3.174,0,0,0,3.171,3.171H21.218v14.22a4.081,4.081,0,0,0,4.077,4.077H61.24a1.359,1.359,0,1,0,0-2.718H32.569V73.48a1.359,1.359,0,1,0-2.718,0V92.594H25.295a1.36,1.36,0,0,1-1.359-1.359V70.426a12.206,12.206,0,0,1,7.479-11.269l8.48-3.575v8.167a10.484,10.484,0,0,0,1,4.451l6.562,13.886a4.077,4.077,0,0,0,7.372,0L61.388,68.2a10.487,10.487,0,0,0,1-4.451V55.582l5.385,2.27a2.261,2.261,0,0,0,.363,2.725l.552.552a11.379,11.379,0,0,0-.475,1.147h-.781a2.267,2.267,0,0,0-2.265,2.265v3.035a2.267,2.267,0,0,0,2.265,2.265h.781a11.429,11.429,0,0,0,.475,1.147l-.552.552a2.265,2.265,0,0,0,0,3.2l1.58,1.58c0,.019,0,.037,0,.056V92.594H67.581a1.359,1.359,0,0,0,0,2.718h9.405a4.081,4.081,0,0,0,4.077-4.077V79.78a2.267,2.267,0,0,0,1.686-2.187v-.781a11.437,11.437,0,0,0,1.147-.475l.552.552a2.265,2.265,0,0,0,3.2,0L89.8,74.743a2.264,2.264,0,0,0,0-3.2l-.552-.552a11.409,11.409,0,0,0,.475-1.147H90.5a2.267,2.267,0,0,0,2.265-2.265V64.541A2.268,2.268,0,0,0,90.5,62.276ZM64.11,33.113A3.693,3.693,0,0,1,67.8,36.8v.451a3.693,3.693,0,0,1-3.689,3.689h-.722a12.374,12.374,0,0,0,.1-1.526v-6.3Zm-21.238-2.68h3.074a10.671,10.671,0,0,0,8.058-3.677,1.381,1.381,0,0,1,1.038-.484h4.366a1.36,1.36,0,0,1,1.359,1.359V39.416a9.627,9.627,0,0,1-19.254,0v-7.59c0-.019,0-.038,0-.052s0-.006,0-.009a1.36,1.36,0,0,1,1.357-1.331Zm4.683,20.795a12.333,12.333,0,0,0,7.17,0v2.705l-3.585,2.3-3.585-2.3ZM38.8,33.113v6.3a12.409,12.409,0,0,0,.1,1.526h-.722a3.693,3.693,0,0,1-3.689-3.689V36.8a3.693,3.693,0,0,1,3.689-3.689H38.8ZM40,52.589l-1.374.579a4.08,4.08,0,0,1-2.611-3.8V43.284a6.376,6.376,0,0,0,2.159.375h1.376a12.4,12.4,0,0,0,3.771,5.3l-1.173.677A4.514,4.514,0,0,0,40,52.589Zm2.615.945a1.789,1.789,0,0,1,.892-1.545l1.334-.77v3.457a1.359,1.359,0,0,0,.625,1.144l4.892,3.138-7.743,4.471Zm16.319,13.5L52.369,80.925a1.359,1.359,0,0,1-2.457,0L43.35,67.039a7.665,7.665,0,0,1-.3-.727l8.087-4.669,8.087,4.669a7.672,7.672,0,0,1-.3.728Zm.738-13.5v9.894l-7.743-4.47,4.892-3.138a1.359,1.359,0,0,0,.625-1.144V51.219l1.334.77a1.789,1.789,0,0,1,.892,1.544s0,0,0,0Zm.467-3.9-1.173-.677a12.4,12.4,0,0,0,3.771-5.3H64.11a6.377,6.377,0,0,0,2.16-.375v6.083a4.08,4.08,0,0,1-2.611,3.8l-1.374-.579a4.515,4.515,0,0,0-2.148-2.954Zm18.209,41.6a1.36,1.36,0,0,1-1.359,1.359H72.43V77.482a2.248,2.248,0,0,0,1.055-.593l.552-.552a11.425,11.425,0,0,0,1.148.475v.781a2.267,2.267,0,0,0,2.265,2.265h.9Zm11.7-24.112h-.654a2.268,2.268,0,0,0-2.161,1.588,8.662,8.662,0,0,1-.549,1.325,2.25,2.25,0,0,0,.4,2.635l.47.471-1.506,1.506-.47-.47a2.251,2.251,0,0,0-2.634-.4,8.646,8.646,0,0,1-1.325.55,2.268,2.268,0,0,0-1.589,2.161v.654H77.9v-.654a2.268,2.268,0,0,0-1.589-2.161,8.633,8.633,0,0,1-1.325-.55,2.252,2.252,0,0,0-2.635.4l-.47.47-1.505-1.506.47-.47a2.251,2.251,0,0,0,.4-2.635,8.64,8.64,0,0,1-.55-1.326,2.268,2.268,0,0,0-2.161-1.588h-.654V64.994h.654A2.268,2.268,0,0,0,70.7,63.405a8.638,8.638,0,0,1,.549-1.325,2.251,2.251,0,0,0-.4-2.635l-.47-.47,1.505-1.506.471.471a2.251,2.251,0,0,0,2.634.4,8.646,8.646,0,0,1,1.325-.55A2.268,2.268,0,0,0,77.9,55.63v-.654h2.129v.654a2.268,2.268,0,0,0,1.589,2.162,8.618,8.618,0,0,1,1.325.55,2.251,2.251,0,0,0,2.634-.4l.471-.471,1.506,1.506-.47.47a2.251,2.251,0,0,0-.4,2.635,8.627,8.627,0,0,1,.549,1.325,2.268,2.268,0,0,0,2.162,1.589h.654Z" transform="translate(0 -9.252)"/>
            <path id="Trazado_178040" data-name="Trazado 178040" d="M207.991,150.449a5.642,5.642,0,1,0,5.642,5.642A5.648,5.648,0,0,0,207.991,150.449Zm0,8.566a2.924,2.924,0,1,1,2.924-2.924A2.927,2.927,0,0,1,207.991,159.015Z" transform="translate(-129.025 -99.284)"/>
            <path id="Trazado_178041" data-name="Trazado 178041" d="M137.38,162.563v.906a1.359,1.359,0,1,0,2.718,0v-.906a1.359,1.359,0,1,0-2.718,0Z" transform="translate(-87.598 -106.142)"/>
            <path id="Trazado_178042" data-name="Trazado 178042" d="M138.739,181.2a1.359,1.359,0,0,0-1.359,1.359v.906a1.359,1.359,0,1,0,2.718,0v-.906A1.359,1.359,0,0,0,138.739,181.2Z" transform="translate(-87.598 -118.895)"/>
          </g>
        </g>
      </g>
    </g>
  </g>
</svg>
